<!-- Generated by IcoMoon.io -->
<svg version="1.1" xmlns="http://www.w3.org/2000/svg" width="24" height="24" viewBox="0 0 24 24">
<title>account-12</title>
<path fill="#a7a8aa" d="M18.67 17.988c-0.566-1.828-1.81-3.303-3.432-4.158l-0.038-0.018c1.092-0.92 1.8-2.28 1.8-3.812 0-2.756-2.242-5-5-5-2.76 0.003-4.997 2.24-5 5v0c0 1.534 0.71 2.894 1.8 3.812-1.66 0.873-2.904 2.348-3.457 4.127l-0.013 0.049c-1.439-1.575-2.322-3.677-2.33-5.986v-0.002c0-4.962 4.038-9 9-9s9 4.038 9 9c-0.008 2.311-0.891 4.413-2.336 5.995l0.006-0.007zM9 10c0-1.654 1.346-3 3-3s3 1.346 3 3-1.346 3-3 3-3-1.346-3-3zM7.050 19.504c0.255-2.533 2.372-4.495 4.949-4.504h0.001c2.588 0 4.698 1.984 4.95 4.504-1.391 0.938-3.105 1.497-4.95 1.497s-3.559-0.559-4.982-1.517l0.032 0.020zM12 1c-6.072 0.008-10.992 4.928-11 10.999v0.001c0 6.066 4.936 11 11 11s11-4.934 11-11c0-6.064-4.936-11-11-11z"></path>
</svg>
