<!-- Generated by IcoMoon.io -->
<svg version="1.1" xmlns="http://www.w3.org/2000/svg" width="24" height="24" viewBox="0 0 24 24">
<title>account-16</title>
<path fill="#a7a8aa" d="M19.266 18.479c-0.597-2.383-2.274-4.281-4.468-5.172l-0.050-0.018c1.066-0.824 1.747-2.102 1.752-3.539v-0.001c0-2.479-2.018-4.5-4.5-4.5-2.481 0-4.5 2.021-4.5 4.5 0 1.444 0.695 2.715 1.752 3.54-2.244 0.909-3.921 2.807-4.507 5.138l-0.011 0.052c-1.541-1.71-2.484-3.985-2.484-6.48v-0c0-5.374 4.374-9.75 9.75-9.75s9.75 4.376 9.75 9.75c0 2.49-0.945 4.755-2.484 6.48zM9 9.748c0-1.653 1.347-3 3-3 1.654 0 3 1.347 3 3 0 1.656-1.346 3-3 3-1.653 0-3-1.344-3-3zM6.054 19.709c0.279-3.050 2.82-5.459 5.946-5.459 3.125 0 5.669 2.409 5.946 5.46-1.624 1.271-3.695 2.039-5.946 2.040h-0c-2.251-0.001-4.322-0.769-5.967-2.056l0.021 0.016zM12 0.75c-6.202 0-11.25 5.048-11.25 11.25 0 6.206 5.048 11.25 11.25 11.25 6.204 0 11.25-5.044 11.25-11.25 0-6.202-5.046-11.25-11.25-11.25z"></path>
</svg>
