<!-- Generated by IcoMoon.io -->
<svg version="1.1" xmlns="http://www.w3.org/2000/svg" width="24" height="24" viewBox="0 0 24 24">
<title>add-outline-16</title>
<path fill="#a7a8aa" d="M12 0.75c6.213 0 11.25 5.037 11.25 11.25s-5.037 11.25-11.25 11.25v0c-6.213 0-11.25-5.037-11.25-11.25s5.037-11.25 11.25-11.25v0zM12 21.75c5.381-0.009 9.741-4.369 9.75-9.749v-0.001c0-5.385-4.365-9.75-9.75-9.75s-9.75 4.365-9.75 9.75c0 5.385 4.365 9.75 9.75 9.75v0zM12.75 6v5.25h5.25v1.5h-5.25v5.25h-1.5v-5.25h-5.25v-1.5h5.25v-5.25h1.5z"></path>
</svg>
