<!-- Generated by IcoMoon.io -->
<svg version="1.1" xmlns="http://www.w3.org/2000/svg" width="24" height="24" viewBox="0 0 24 24">
<title>app-24</title>
<path fill="#a7a8aa" d="M14.75 8.25v-5.5h6.5v5.5h-6.5zM18.25 21.25h-12.5v-2.5h6.25c0.414 0 0.75-0.336 0.75-0.75v0-6c0-0.414-0.336-0.75-0.75-0.75v0h-6.25v-6.5h7.5v4.25c0 0.414 0.336 0.75 0.75 0.75h4.25v11.5zM2.75 17.25v-4.5h8.5v4.5h-8.5zM22 1.25h-8c-0.414 0-0.75 0.336-0.75 0.75v0 1.25h-8.25c-0.414 0-0.75 0.336-0.75 0.75v0 7.25h-2.25c-0.414 0-0.75 0.336-0.75 0.75v0 6c0 0.414 0.336 0.75 0.75 0.75h2.25v3.25c0 0.414 0.336 0.75 0.75 0.75h14c0.414 0 0.75-0.336 0.75-0.75v0-12.25h2.25c0.414 0 0.75-0.336 0.75-0.75v0-7c0-0.414-0.336-0.75-0.75-0.75v0z"></path>
</svg>
