<!-- Generated by IcoMoon.io -->
<svg version="1.1" xmlns="http://www.w3.org/2000/svg" width="24" height="24" viewBox="0 0 24 24">
<title>app-16</title>
<path fill="#a7a8aa" d="M20.25 9.75v12.75c0 0.414-0.336 0.75-0.75 0.75v0h-15c-0.414 0-0.75-0.336-0.75-0.75v0-3.75h-2.25c-0.414 0-0.75-0.336-0.75-0.75v0-6c0-0.414 0.336-0.75 0.75-0.75v0h2.25v-8.25c0-0.414 0.336-0.75 0.75-0.75v0h8.25v-0.75c0-0.414 0.336-0.75 0.75-0.75v0h9c0.414 0 0.75 0.336 0.75 0.75v0 7.5c0 0.414-0.336 0.75-0.75 0.75v0h-2.25zM18.75 9.75h-5.25c-0.414 0-0.75-0.336-0.75-0.75v0-5.25h-7.5v7.5h6.75c0.414 0 0.75 0.336 0.75 0.75v0 6c0 0.414-0.336 0.75-0.75 0.75v0h-6.75v3h13.5v-12zM2.25 17.25h9v-4.5h-9v4.5zM14.25 8.25h7.5v-6h-7.5v6z"></path>
</svg>
