<!-- Generated by IcoMoon.io -->
<svg version="1.1" xmlns="http://www.w3.org/2000/svg" width="24" height="24" viewBox="0 0 24 24">
<title>app-12</title>
<path fill="#a7a8aa" d="M15 7v-4h6v4h-6zM19 21h-14v-2h7c0.552 0 1-0.448 1-1v0-6c0-0.552-0.448-1-1-1v0h-7v-6h8v3c0 0.552 0.448 1 1 1v0h5v12zM3 17v-4h8v4h-8zM22 1h-8c-0.552 0-1 0.448-1 1v0 1h-9c-0.552 0-1 0.448-1 1v0 7h-1c-0.552 0-1 0.448-1 1v0 6c0 0.552 0.448 1 1 1v0h1v3c0 0.552 0.448 1 1 1v0h16c0.552 0 1-0.448 1-1v0-13h1c0.552 0 1-0.448 1-1v0-6c0-0.552-0.448-1-1-1v0z"></path>
</svg>
