<!-- Generated by IcoMoon.io -->
<svg version="1.1" xmlns="http://www.w3.org/2000/svg" width="24" height="24" viewBox="0 0 24 24">
<title>attachment-24</title>
<path fill="#a7a8aa" d="M7.050 22.53c-0.001 0-0.002 0-0.003 0-0.758 0-1.443-0.31-1.936-0.81l-2.83-2.83c-0.5-0.495-0.809-1.181-0.809-1.94s0.309-1.445 0.809-1.94l0-0 7.070-7.080c0.499-0.496 1.186-0.802 1.945-0.802s1.446 0.306 1.945 0.802l-0-0 2.12 2.13-1.060 1.060-2.12-2.12c-0.228-0.222-0.541-0.359-0.885-0.359s-0.657 0.137-0.885 0.359l0-0-7.070 7.070c-0.229 0.224-0.371 0.535-0.371 0.88s0.142 0.656 0.37 0.88l2.83 2.83c0.225 0.226 0.536 0.366 0.88 0.366s0.655-0.14 0.88-0.366l2.83-2.83 1.060 1.060-2.82 2.83c-0.499 0.5-1.188 0.809-1.95 0.81h-0zM12.71 16.87c-0.016 0-0.034 0-0.052 0-0.76 0-1.448-0.306-1.948-0.801l0 0-2.070-2.13 1.060-1.060 2.12 2.12c0.228 0.222 0.541 0.359 0.885 0.359s0.657-0.137 0.885-0.359l-0 0 7.070-7.080c0.229-0.224 0.371-0.535 0.371-0.88s-0.142-0.656-0.37-0.88l-0-0-2.83-2.82c-0.225-0.226-0.536-0.366-0.88-0.366s-0.655 0.14-0.88 0.366l-2.83 2.83-1.060-1.060 2.82-2.83c0.499-0.496 1.186-0.802 1.945-0.802s1.446 0.306 1.945 0.802l2.83 2.83c0.5 0.495 0.809 1.181 0.809 1.94s-0.309 1.445-0.809 1.94l-0 0-7.070 7.080c-0.497 0.494-1.182 0.8-1.939 0.8-0 0-0.001 0-0.001 0h0z"></path>
</svg>
