<!-- Generated by IcoMoon.io -->
<svg version="1.1" xmlns="http://www.w3.org/2000/svg" width="24" height="24" viewBox="0 0 24 24">
<title>attachment-12</title>
<path fill="#a7a8aa" d="M8 22.16c-0.005 0-0.011 0-0.017 0-0.819 0-1.562-0.328-2.103-0.86l-3.18-3.18c-0.537-0.545-0.869-1.294-0.869-2.12s0.332-1.575 0.87-2.12l6.18-6.18c0.545-0.537 1.294-0.869 2.12-0.869s1.575 0.332 2.12 0.87l-0-0 2.58 2.6-1.4 1.4-2.6-2.58c-0.18-0.177-0.427-0.286-0.7-0.286s-0.52 0.109-0.7 0.286l-6.18 6.18c-0.177 0.18-0.286 0.427-0.286 0.7s0.109 0.52 0.286 0.7l3.18 3.18c0.18 0.177 0.427 0.286 0.7 0.286s0.52-0.109 0.7-0.286l-0 0 1.6-1.58 1.4 1.4-1.58 1.6c-0.541 0.532-1.283 0.86-2.103 0.86-0.006 0-0.012-0-0.018-0h0.001zM13 17.16c-0.005 0-0.011 0-0.017 0-0.819 0-1.562-0.328-2.103-0.86l0 0-2.58-2.6 1.4-1.4 2.6 2.58c0.18 0.177 0.427 0.286 0.7 0.286s0.52-0.109 0.7-0.286l6.18-6.18c0.177-0.18 0.286-0.427 0.286-0.7s-0.109-0.52-0.286-0.7l-3.18-3.18c-0.18-0.177-0.427-0.286-0.7-0.286s-0.52 0.109-0.7 0.286l0-0-1.6 1.58-1.4-1.4 1.58-1.6c0.545-0.537 1.294-0.869 2.12-0.869s1.575 0.332 2.12 0.87l3.18 3.18c0.537 0.545 0.869 1.294 0.869 2.12s-0.332 1.575-0.87 2.12l-6.18 6.18c-0.541 0.532-1.283 0.86-2.103 0.86-0.006 0-0.012-0-0.018-0h0.001z"></path>
</svg>
