<!-- Generated by IcoMoon.io -->
<svg version="1.1" xmlns="http://www.w3.org/2000/svg" width="24" height="24" viewBox="0 0 24 24">
<title>attachment-16</title>
<path fill="#a7a8aa" d="M7.5 22.62c-0.004 0-0.009 0-0.013 0-0.614 0-1.171-0.246-1.577-0.645l0 0-3.885-3.885c-0.403-0.409-0.652-0.97-0.652-1.59s0.249-1.181 0.652-1.59l7.635-7.635c0.409-0.403 0.97-0.652 1.59-0.652s1.181 0.249 1.59 0.652l-0-0 3.435 3.45-1.050 1.050-3.45-3.435c-0.135-0.133-0.321-0.214-0.525-0.214s-0.39 0.082-0.525 0.215l-7.635 7.635c-0.133 0.135-0.214 0.321-0.214 0.525s0.082 0.39 0.215 0.525l3.885 3.885c0.135 0.133 0.321 0.214 0.525 0.214s0.39-0.082 0.525-0.215l-0 0 2.7-2.685 1.050 1.050-2.685 2.7c-0.406 0.399-0.963 0.645-1.577 0.645-0.005 0-0.009-0-0.014-0h0.001zM12.75 17.37c-0.004 0-0.009 0-0.013 0-0.614 0-1.171-0.246-1.577-0.645l0 0-3.435-3.45 1.050-1.050 3.45 3.435c0.135 0.133 0.321 0.214 0.525 0.214s0.39-0.082 0.525-0.215l7.635-7.635c0.133-0.135 0.214-0.321 0.214-0.525s-0.082-0.39-0.215-0.525l-3.885-3.885c-0.135-0.133-0.321-0.214-0.525-0.214s-0.39 0.082-0.525 0.215l0-0-2.7 2.685-1.050-1.050 2.685-2.7c0.409-0.403 0.97-0.652 1.59-0.652s1.181 0.249 1.59 0.652l3.885 3.885c0.403 0.409 0.652 0.97 0.652 1.59s-0.249 1.181-0.652 1.59l-7.635 7.635c-0.406 0.399-0.963 0.645-1.577 0.645-0.005 0-0.009-0-0.014-0h0.001z"></path>
</svg>
