<!-- Generated by IcoMoon.io -->
<svg version="1.1" xmlns="http://www.w3.org/2000/svg" width="24" height="24" viewBox="0 0 24 24">
<title>brightness-16</title>
<path fill="#a7a8aa" d="M23.25 12.75v-1.5h-3c-0.164-1.731-0.845-3.278-1.885-4.512l0.010 0.012 2.16-2.145-1.035-1.095-2.22 2.16c-1.222-1.030-2.769-1.711-4.467-1.872l-0.033-0.003v-3.045h-1.5v3c-1.731 0.164-3.278 0.845-4.512 1.885l0.012-0.010-2.205-2.115-1.065 1.065 2.16 2.145c-1.030 1.222-1.711 2.769-1.872 4.467l-0.003 0.033h-3.045v1.5h3c0.164 1.731 0.845 3.278 1.885 4.512l-0.010-0.012-2.115 2.28 1.065 1.065 2.145-2.16c1.222 1.030 2.769 1.711 4.467 1.872l0.033 0.003v3h1.5v-3c1.731-0.164 3.278-0.845 4.512-1.885l-0.012 0.010 2.28 2.085 1.065-1.065-2.16-2.145c1.030-1.222 1.711-2.769 1.872-4.467l0.003-0.033 2.97-0.030zM12 18.75c-3.728 0-6.75-3.022-6.75-6.75s3.022-6.75 6.75-6.75c3.728 0 6.75 3.022 6.75 6.75v0c-0.009 3.725-3.025 6.741-6.749 6.75h-0.001z"></path>
</svg>
