<!-- Generated by IcoMoon.io -->
<svg version="1.1" xmlns="http://www.w3.org/2000/svg" width="24" height="24" viewBox="0 0 24 24">
<title>brightness-12</title>
<path fill="#a7a8aa" d="M12 18c-3.308 0-6-2.692-6-6s2.692-6 6-6 6 2.692 6 6-2.692 6-6 6zM23 13v-2h-3.102c-0.188-1.483-0.762-2.805-1.617-3.897l0.013 0.017 2.192-2.192-1.414-1.414-2.192 2.192c-1.075-0.842-2.397-1.416-3.841-1.6l-0.039-0.004v-3.102h-2v3.102c-1.483 0.188-2.805 0.762-3.897 1.617l0.017-0.013-2.192-2.192-1.414 1.414 2.192 2.192c-0.842 1.075-1.416 2.397-1.6 3.841l-0.004 0.039h-3.102v2h3.102c0.184 1.454 0.746 2.776 1.604 3.88l-2.192 2.192 1.414 1.414 2.192-2.192c1.104 0.858 2.426 1.42 3.88 1.604v3.102h2v-3.102c1.483-0.188 2.805-0.762 3.897-1.617l-0.017 0.013 2.192 2.192 1.414-1.414-2.192-2.192c0.858-1.104 1.42-2.426 1.604-3.88h3.102z"></path>
</svg>
