<!-- Generated by IcoMoon.io -->
<svg version="1.1" xmlns="http://www.w3.org/2000/svg" width="24" height="24" viewBox="0 0 24 24">
<title>brightness-24</title>
<path fill="#a7a8aa" d="M22 12.75v-1.5h-3.29c-0.154-1.326-0.672-2.509-1.45-3.473l0.010 0.013 2.33-2.33-1.060-1.060-2.33 2.33c-0.951-0.768-2.134-1.286-3.429-1.437l-0.031-0.003v-3.29h-1.5v3.29c-1.326 0.154-2.509 0.672-3.473 1.45l0.013-0.010-2.33-2.33-1.060 1.060 2.33 2.33c-0.768 0.951-1.286 2.134-1.437 3.429l-0.003 0.031h-3.29v1.5h3.29c0.154 1.326 0.672 2.509 1.45 3.473l-0.010-0.013-2.33 2.33 1.060 1.060 2.33-2.33c0.951 0.768 2.134 1.286 3.429 1.437l0.031 0.003v3.29h1.5v-3.29c1.326-0.154 2.509-0.672 3.473-1.45l-0.013 0.010 2.33 2.33 1.060-1.060-2.33-2.33c0.768-0.951 1.286-2.134 1.437-3.429l0.003-0.031h3.29zM12 17.25c-2.899 0-5.25-2.351-5.25-5.25s2.351-5.25 5.25-5.25c2.899 0 5.25 2.351 5.25 5.25v0c-0.006 2.897-2.353 5.244-5.249 5.25h-0.001z"></path>
</svg>
