<!-- Generated by IcoMoon.io -->
<svg version="1.1" xmlns="http://www.w3.org/2000/svg" width="24" height="24" viewBox="0 0 24 24">
<title>cart-16</title>
<path fill="#a7a8aa" d="M23.070 5.52c0.15 0.167 0.21 0.396 0.165 0.615l-1.5 8.25c-0.060 0.351-0.362 0.615-0.725 0.615-0.003 0-0.007-0-0.010-0h-13.994l0.375 2.25h13.62v1.5h-14.265c-0.37-0.003-0.675-0.272-0.734-0.626l-0.001-0.004-2.13-12.87h-3.12v-1.5h3.75c0.37 0.003 0.675 0.272 0.734 0.626l0.001 0.004 0.15 0.87h17.115c0 0 0.001 0 0.001 0 0.229 0 0.433 0.105 0.568 0.269l0.001 0.001zM20.37 13.5l1.23-6.75h-15.96l1.125 6.75h13.605zM7.5 22.125c-0.621 0-1.125-0.504-1.125-1.125s0.504-1.125 1.125-1.125v0c0.621 0 1.125 0.504 1.125 1.125s-0.504 1.125-1.125 1.125v0zM19.5 22.125c-0.621 0-1.125-0.504-1.125-1.125s0.504-1.125 1.125-1.125v0c0.621 0 1.125 0.504 1.125 1.125s-0.504 1.125-1.125 1.125v0z"></path>
</svg>
