<!-- Generated by IcoMoon.io -->
<svg version="1.1" xmlns="http://www.w3.org/2000/svg" width="24" height="24" viewBox="0 0 24 24">
<title>cart-12</title>
<path fill="#a7a8aa" d="M22.78 5.38c0.14 0.173 0.224 0.396 0.224 0.638 0 0.079-0.009 0.155-0.026 0.229l0.001-0.007-2 8c-0.118 0.439-0.512 0.757-0.98 0.76h-13.42l0.28 2h13.14v2h-14c-0.504-0.004-0.92-0.372-0.999-0.854l-0.001-0.006-1.86-13.14h-2.14v-2h3c0.504 0.004 0.92 0.372 0.999 0.854l0.001 0.006 0.16 1.14h16.84c0.002 0 0.003-0 0.005-0 0.314 0 0.594 0.148 0.773 0.378l0.002 0.002zM19.22 13l1.5-6h-15.28l0.86 6h12.92zM7 22c-0.552 0-1-0.448-1-1s0.448-1 1-1v0c0.552 0 1 0.448 1 1s-0.448 1-1 1v0zM19 22c-0.552 0-1-0.448-1-1s0.448-1 1-1v0c0.552 0 1 0.448 1 1s-0.448 1-1 1v0z"></path>
</svg>
