<!-- Generated by IcoMoon.io -->
<svg version="1.1" xmlns="http://www.w3.org/2000/svg" width="24" height="24" viewBox="0 0 24 24">
<title>cart-24</title>
<path fill="#a7a8aa" d="M22.59 5.54c0.099 0.128 0.159 0.292 0.159 0.469 0 0.061-0.007 0.12-0.020 0.176l0.001-0.005-2 8c-0.087 0.328-0.38 0.567-0.73 0.57h-12.71l0.36 2.5h12.35v1.5h-13c-0.002 0-0.004 0-0.007 0-0.373 0-0.682-0.277-0.733-0.636l-0-0.004-1.91-13.36h-3.35v-1.5h4c0.002-0 0.004-0 0.007-0 0.373 0 0.682 0.277 0.733 0.636l0 0.004 0.2 1.36h16.060c0.239 0.001 0.452 0.113 0.589 0.288l0.001 0.002zM19.41 13.25l1.59-6.5h-14.85l0.93 6.5h12.33zM19 22c-0.552 0-1-0.448-1-1s0.448-1 1-1v0c0.552 0 1 0.448 1 1s-0.448 1-1 1v0zM8 22c-0.552 0-1-0.448-1-1s0.448-1 1-1v0c0.552 0 1 0.448 1 1s-0.448 1-1 1v0z"></path>
</svg>
