<!-- Generated by IcoMoon.io -->
<svg version="1.1" xmlns="http://www.w3.org/2000/svg" width="24" height="24" viewBox="0 0 24 24">
<title>check-filled-24</title>
<path fill="#a7a8aa" d="M12 1.25c-5.937 0-10.75 4.813-10.75 10.75s4.813 10.75 10.75 10.75 10.75-4.813 10.75-10.75c-0.006-5.935-4.815-10.744-10.75-10.75zM11.5 15.53c-0.13 0.136-0.312 0.22-0.514 0.22-0.006 0-0.011-0-0.017-0l0.001 0c-0.001 0-0.002 0-0.003 0-0.206 0-0.392-0.084-0.526-0.22l-3-3 1.060-1.060 2.5 2.47 5.49-5.48 1.060 1.060-6.050 6.010z"></path>
</svg>
