<?xml version="1.0" encoding="UTF-8"?>
<svg width="18px" height="18px" viewBox="0 0 18 18" version="1.1" xmlns="http://www.w3.org/2000/svg" xmlns:xlink="http://www.w3.org/1999/xlink">
    <!-- Generator: Sketch 60.1 (88133) - https://sketch.com -->
    <g id="Input-/-Filter-/-Controls-" stroke="none" stroke-width="1" fill="none">
        <g id="Components-/-Checkbox-/-Indetermined-/-Active-" transform="translate(-3.000000, -3.000000)">
            <rect id="bounds" fill-rule="nonzero" x="0" y="0" width="24" height="24"></rect>
            <path d="M19,3 C20.05,3 20.9177686,3.82004132 20.9944872,4.85130541 L21,5 L21,19 C21,20.05 20.1799587,20.9177686 19.1486946,20.9944872 L19,21 L5,21 C3.95,21 3.0822314,20.1799587 3.00551277,19.1486946 L3,19 L3,5 C3,3.95 3.82004132,3.0822314 4.85130541,3.00551277 L5,3 L19,3 Z M19,11 L5,11 L5,13 L19,13 L19,11 Z" id="Combined-Shape" fill="#000000"></path>
        </g>
    </g>
</svg>