<!-- Generated by IcoMoon.io -->
<svg version="1.1" xmlns="http://www.w3.org/2000/svg" width="24" height="24" viewBox="0 0 24 24">
<title>check-outline-24</title>
<path fill="#a7a8aa" d="M12 22.75c-5.937 0-10.75-4.813-10.75-10.75s4.813-10.75 10.75-10.75 10.75 4.813 10.75 10.75c-0.006 5.935-4.815 10.744-10.75 10.75zM12 2.75c-5.109 0-9.25 4.141-9.25 9.25s4.141 9.25 9.25 9.25c5.109 0 9.25-4.141 9.25-9.25v0c-0.006-5.106-4.144-9.244-9.249-9.25h-0.001zM11 15.75c-0.001 0-0.002 0-0.003 0-0.206 0-0.392-0.084-0.526-0.22l-3-3 1.060-1.060 2.47 2.47 5.49-5.48 1.060 1.060-6 6c-0.13 0.142-0.317 0.23-0.524 0.23-0.009 0-0.019-0-0.028-0.001l0.001 0z"></path>
</svg>
