<!-- Generated by IcoMoon.io -->
<svg version="1.1" xmlns="http://www.w3.org/2000/svg" width="24" height="24" viewBox="0 0 24 24">
<title>check-outline-16</title>
<path fill="#a7a8aa" d="M12 23.25c-6.213 0-11.25-5.037-11.25-11.25s5.037-11.25 11.25-11.25v0c6.213 0 11.25 5.037 11.25 11.25s-5.037 11.25-11.25 11.25v0zM12 2.25c-5.385 0-9.75 4.365-9.75 9.75s4.365 9.75 9.75 9.75c5.385 0 9.75-4.365 9.75-9.75v0c-0.009-5.381-4.369-9.741-9.749-9.75h-0.001zM10.5 15.75c-0.003 0-0.007 0-0.011 0-0.2 0-0.382-0.080-0.515-0.21l-3-3 1.065-1.065 2.46 2.475 5.505-5.49 1.050 1.050-6 6c-0.137 0.148-0.333 0.24-0.55 0.24-0.002 0-0.004 0-0.005-0h0z"></path>
</svg>
