<!-- Generated by IcoMoon.io -->
<svg version="1.1" xmlns="http://www.w3.org/2000/svg" width="24" height="24" viewBox="0 0 24 24">
<title>check-outline-12</title>
<path fill="#a7a8aa" d="M12 23c-6.076 0-11.002-4.926-11.002-11.002s4.926-11.002 11.002-11.002v0c0.002 0 0.003 0 0.005 0 6.075 0 11 4.925 11 11 0 1.52-0.309 2.969-0.866 4.286l0.027-0.072c-1.697 4.020-5.606 6.79-10.162 6.79-0.001 0-0.002 0-0.004 0h0zM12 3c-0.005 0-0.011-0-0.016-0-4.982 0-9.020 4.038-9.020 9.020s4.038 9.020 9.020 9.020c4.982 0 9.020-4.038 9.020-9.020 0-2.492-1.010-4.748-2.644-6.38l-0-0c-1.62-1.631-3.864-2.64-6.343-2.64-0.006 0-0.012 0-0.018 0h0.001zM10 17c-0.003 0-0.007 0-0.011 0-0.272 0-0.516-0.115-0.688-0.3l-0.001-0.001-4-4 1.4-1.4 3.3 3.28 7.3-7.28 1.4 1.4-8 8c-0.172 0.185-0.417 0.3-0.689 0.3-0.004 0-0.008-0-0.012-0h0.001z"></path>
</svg>
