<!-- Generated by IcoMoon.io -->
<svg version="1.1" xmlns="http://www.w3.org/2000/svg" width="24" height="24" viewBox="0 0 24 24">
<title>clock-24</title>
<path fill="#a7a8aa" d="M12 22.75c-5.937 0-10.75-4.813-10.75-10.75s4.813-10.75 10.75-10.75 10.75 4.813 10.75 10.75c-0.006 5.935-4.815 10.744-10.75 10.75zM12 2.75c-5.109 0-9.25 4.141-9.25 9.25s4.141 9.25 9.25 9.25c5.109 0 9.25-4.141 9.25-9.25v0c-0.006-5.106-4.144-9.244-9.249-9.25h-0.001zM15.47 16.53l-4-4c-0.136-0.136-0.22-0.323-0.22-0.53v-7h1.5v6.69l3.78 3.78-1.060 1.060z"></path>
</svg>
