<!-- Generated by IcoMoon.io -->
<svg version="1.1" xmlns="http://www.w3.org/2000/svg" width="24" height="24" viewBox="0 0 24 24">
<title>clock-16</title>
<path fill="#a7a8aa" d="M12 23.25c-6.213 0-11.25-5.037-11.25-11.25s5.037-11.25 11.25-11.25v0c6.213 0 11.25 5.037 11.25 11.25s-5.037 11.25-11.25 11.25v0zM12 2.25c-5.385 0-9.75 4.365-9.75 9.75s4.365 9.75 9.75 9.75c5.385 0 9.75-4.365 9.75-9.75v0c-0.009-5.381-4.369-9.741-9.749-9.75h-0.001zM15.975 17.025l-4.5-4.5c-0.139-0.129-0.225-0.313-0.225-0.516 0-0.003 0-0.006 0-0.009v0-6.75h1.5v6.435l4.275 4.29-1.050 1.050z"></path>
</svg>
