<!-- Generated by IcoMoon.io -->
<svg version="1.1" xmlns="http://www.w3.org/2000/svg" width="24" height="24" viewBox="0 0 24 24">
<title>clock-12</title>
<path fill="#a7a8aa" d="M13 6v5.58l3.7 3.72-1.4 1.4-4-4c-0.185-0.172-0.3-0.417-0.3-0.689 0-0.004 0-0.008 0-0.012v0.001-6h2zM12 1c6.071 0.011 10.989 4.929 11 10.999v0.001c0 6.075-4.925 11-11 11s-11-4.925-11-11c0-6.075 4.925-11 11-11v0zM12 21c4.966-0.011 8.989-4.034 9-8.999v-0.001c0-4.971-4.029-9-9-9s-9 4.029-9 9c0 4.971 4.029 9 9 9v0z"></path>
</svg>
