<!-- Generated by IcoMoon.io -->
<svg version="1.1" xmlns="http://www.w3.org/2000/svg" width="24" height="24" viewBox="0 0 24 24">
<title>cloud-12</title>
<path fill="#a7a8aa" d="M18.736 7.076c2.46 0.388 4.264 2.45 4.264 4.924 0 2.756-2.24 5-5 5h-2v-2h2c1.654 0 3-1.346 3-3s-1.346-3-3-3h-0.032c-0.498 0-0.988-0.356-1.058-0.848-0.433-2.916-2.91-5.131-5.908-5.152l-0.002-0c-3.126 0-5.74 2.46-5.956 5.6-0.025 0.344-0.22 0.637-0.501 0.797l-0.005 0.003c-0.918 0.52-1.53 1.488-1.538 2.599v0.001c0 1.654 1.346 3 3 3h2v2h-2c-2.76-0.003-4.997-2.24-5-5v-0c0-1.61 0.792-3.118 2.102-4.052 0.52-3.936 3.898-6.948 7.9-6.948 3.666 0 6.86 2.562 7.734 6.076zM13 19.586l1.292-1.292 1.416 1.414-3 3c-0.181 0.181-0.432 0.292-0.708 0.292s-0.527-0.112-0.708-0.292l-3-3 1.416-1.414 1.292 1.292v-7.586h2v7.586z"></path>
</svg>
