<!-- Generated by IcoMoon.io -->
<svg version="1.1" xmlns="http://www.w3.org/2000/svg" width="24" height="24" viewBox="0 0 24 24">
<title>cloud-24</title>
<path fill="#a7a8aa" d="M19 7.25c2.070 0.003 3.747 1.68 3.75 3.75v0c-0.003 2.070-1.68 3.747-3.75 3.75h-3v-1.5h3c1.24 0 2.25-1.009 2.25-2.25s-1.010-2.25-2.25-2.25h-2c-0.414 0-0.75-0.336-0.75-0.75v0c-0.003-2.898-2.352-5.247-5.25-5.25h-0c-2.898 0.003-5.247 2.352-5.25 5.25v0c0 0.414-0.336 0.75-0.75 0.75v0c-1.242 0.002-2.248 1.008-2.25 2.25v0c0 1.241 1.010 2.25 2.25 2.25h3v1.5h-3c-2.070-0.003-3.747-1.68-3.75-3.75v-0c0.003-1.817 1.295-3.331 3.010-3.678l0.024-0.004c0.343-3.403 3.224-6.068 6.716-6.068 3.469 0 6.334 2.63 6.709 6h1.291zM12.75 20.19l2.72-2.72 1.060 1.060-4 4c-0.135 0.136-0.323 0.22-0.53 0.22s-0.395-0.084-0.53-0.22l-4-4 1.060-1.060 2.72 2.72v-8.19h1.5v8.19z"></path>
</svg>
