<!-- Generated by IcoMoon.io -->
<svg version="1.1" xmlns="http://www.w3.org/2000/svg" width="24" height="24" viewBox="0 0 24 24">
<title>cloud-16</title>
<path fill="#a7a8aa" d="M12.75 20.689l3.219-3.219 1.062 1.061-4.5 4.5c-0.136 0.135-0.324 0.219-0.531 0.219s-0.395-0.084-0.531-0.219l-4.5-4.5 1.062-1.061 3.219 3.219v-8.69h1.5v8.69zM23.25 11.25c-0.003 2.482-2.013 4.493-4.493 4.5h-2.257v-1.5h2.25c1.654 0 3-1.346 3-3s-1.346-3-3-3l-1.471 0.003-0.073-0.669c-0.033-0.317-0.083-0.601-0.153-0.878l0.009 0.042c-0.688-2.607-3.025-4.499-5.804-4.499-0.002 0-0.005 0-0.007 0h0c-3.092 0.001-5.634 2.355-5.934 5.369l-0.002 0.025-0.056 0.561-0.554 0.102c-1.405 0.263-2.455 1.481-2.455 2.943v0c0 1.655 1.345 3 3 3h2.25v1.5h-2.25c-2.481 0-4.5-2.019-4.5-4.5 0-1.982 1.293-3.703 3.146-4.286 0.615-3.549 3.672-6.214 7.351-6.214 0.001 0 0.002 0 0.004 0h-0c0.001 0 0.001 0 0.002 0 3.61 0 6.624 2.552 7.336 5.951l0.009 0.049h0.153c2.481 0 4.5 2.019 4.5 4.5z"></path>
</svg>
