<!-- Generated by IcoMoon.io -->
<svg version="1.1" xmlns="http://www.w3.org/2000/svg" width="24" height="24" viewBox="0 0 24 24">
<title>code-24</title>
<path fill="#a7a8aa" d="M2.75 20.25h18.5v-16.5h-18.5zM22 21.75h-20c-0.414 0-0.75-0.336-0.75-0.75v0-18c0-0.414 0.336-0.75 0.75-0.75v0h20c0.414 0 0.75 0.336 0.75 0.75v0 18c0 0.414-0.336 0.75-0.75 0.75v0zM7.47 15.53l-3-3c-0.136-0.136-0.219-0.323-0.219-0.53s0.084-0.394 0.219-0.53v0l3-3 1.060 1.060-2.47 2.47 2.47 2.47zM16.53 15.53l-1.060-1.060 2.47-2.47-2.47-2.47 1.060-1.060 3 3c0.136 0.136 0.219 0.323 0.219 0.53s-0.084 0.394-0.219 0.53v0zM11.727 16.182l-1.454-0.364 2-8 1.454 0.364z"></path>
</svg>
