<!-- Generated by IcoMoon.io -->
<svg version="1.1" xmlns="http://www.w3.org/2000/svg" width="24" height="24" viewBox="0 0 24 24">
<title>code-16</title>
<path fill="#a7a8aa" d="M2.25 20.25h19.5v-16.5h-19.5v16.5zM22.5 21.75h-21c-0.414 0-0.75-0.336-0.75-0.75v0-18c0-0.414 0.336-0.75 0.75-0.75v0h21c0.414 0 0.75 0.336 0.75 0.75v0 18c0 0.414-0.336 0.75-0.75 0.75v0zM6.969 15.531l-3-3c-0.136-0.136-0.22-0.323-0.22-0.53s0.084-0.395 0.22-0.53l3-3 1.062 1.060-2.471 2.469 2.471 2.469-1.062 1.061zM17.031 15.531l-1.061-1.061 2.469-2.471-2.469-2.469 1.061-1.062 3 3c0.136 0.136 0.22 0.324 0.22 0.531s-0.084 0.395-0.22 0.531l-3 3zM11.211 16.737l-1.422-0.474 3-9 1.423 0.474-3 9z"></path>
</svg>
