<!-- Generated by IcoMoon.io -->
<svg version="1.1" xmlns="http://www.w3.org/2000/svg" width="24" height="24" viewBox="0 0 24 24">
<title>code-12</title>
<path fill="#a7a8aa" d="M3 19h18v-14h-18zM22 21h-20c-0.552 0-1-0.448-1-1v0-16c0-0.552 0.448-1 1-1v0h20c0.552 0 1 0.448 1 1v0 16c0 0.552-0.448 1-1 1v0zM7.292 14.708l-2-2c-0.181-0.181-0.294-0.431-0.294-0.708s0.112-0.527 0.294-0.708l2-2 1.416 1.416-1.294 1.292 1.294 1.292zM16.708 14.708l-1.414-1.416 1.292-1.292-1.292-1.292 1.414-1.416 2 2c0.181 0.181 0.294 0.431 0.294 0.708s-0.112 0.527-0.294 0.708l-0 0zM10.894 16.448l-1.79-0.894 4-8 1.79 0.894z"></path>
</svg>
