<!-- Generated by IcoMoon.io -->
<svg version="1.1" xmlns="http://www.w3.org/2000/svg" width="24" height="24" viewBox="0 0 24 24">
<title>copy-16</title>
<path fill="#a7a8aa" d="M21.525 6.975l-6-6c-0.129-0.139-0.313-0.225-0.516-0.225-0.003 0-0.006 0-0.009 0h-7.5c-0.414 0-0.75 0.336-0.75 0.75v0 3.75h-3.75c-0.414 0-0.75 0.336-0.75 0.75v0 16.5c0 0.414 0.336 0.75 0.75 0.75v0h13.5c0.414 0 0.75-0.336 0.75-0.75v0-3.75h3.75c0.414 0 0.75-0.336 0.75-0.75v0-10.5c0-0.003 0-0.006 0-0.009 0-0.204-0.086-0.387-0.225-0.516l-0-0zM15.75 3.315l3.435 3.435h-3.435v-3.435zM15.75 21.75h-12v-15h3v11.25c0 0.414 0.336 0.75 0.75 0.75v0h8.25v3zM8.25 17.25v-15h6v5.25c0 0.414 0.336 0.75 0.75 0.75v0h5.25v9h-12z"></path>
</svg>
