<!-- Generated by IcoMoon.io -->
<svg version="1.1" xmlns="http://www.w3.org/2000/svg" width="24" height="24" viewBox="0 0 24 24">
<title>copy-24</title>
<path fill="#a7a8aa" d="M21.53 5.47l-4-4c-0.136-0.136-0.323-0.22-0.53-0.22h-9c-0.412 0.006-0.744 0.338-0.75 0.749v3.251h-4.25c-0.412 0.006-0.744 0.338-0.75 0.749v16.001c0.006 0.412 0.338 0.744 0.749 0.75h13.001c0.412-0.006 0.744-0.338 0.75-0.749v-3.251h4.25c0.412-0.006 0.744-0.338 0.75-0.749v-12.001c-0-0.207-0.084-0.394-0.22-0.53v0zM20.19 6.25h-3.44v-3.44l3.44 3.44zM15.25 21.25h-11.5v-14.5h3.5v11.25c0.006 0.412 0.338 0.744 0.749 0.75h7.251v2.5zM8.75 17.25v-14.5h6.5v4.25c0.006 0.412 0.338 0.744 0.749 0.75h4.251v9.5h-11.5z"></path>
</svg>
