<!-- Generated by IcoMoon.io -->
<svg version="1.1" xmlns="http://www.w3.org/2000/svg" width="24" height="24" viewBox="0 0 24 24">
<title>delete-16</title>
<path fill="#a7a8aa" d="M21.75 5.25v1.5h-2.25v14.25c0 1.243-1.007 2.25-2.25 2.25v0h-10.5c-1.243 0-2.25-1.007-2.25-2.25v0-14.25h-2.25v-1.5h6v-3.75c0-0.414 0.336-0.75 0.75-0.75v0h6c0.414 0 0.75 0.336 0.75 0.75v0 3.75h6zM9.75 2.25v3h4.5v-3h-4.5zM18 21v-14.25h-12v14.25c0 0.414 0.336 0.75 0.75 0.75v0h10.5c0.414 0 0.75-0.336 0.75-0.75v0zM9 9h1.5v10.5h-1.5v-10.5zM13.5 9h1.5v10.5h-1.5v-10.5z"></path>
</svg>
