<!-- Generated by IcoMoon.io -->
<svg version="1.1" xmlns="http://www.w3.org/2000/svg" width="24" height="24" viewBox="0 0 24 24">
<title>delete-24</title>
<path fill="#a7a8aa" d="M9.25 10h1.5v8h-1.5v-8zM13.25 10h1.5v8h-1.5v-8zM21 5.25v1.5h-1.25v14.25c-0.006 0.964-0.786 1.744-1.749 1.75h-12.001c-0.964-0.006-1.744-0.786-1.75-1.749v-14.251h-1.25v-1.5h5.25v-2.25c0.006-0.964 0.786-1.744 1.749-1.75h4.001c0.964 0.006 1.744 0.786 1.75 1.749v2.251h5.25zM9.75 3v2.25h4.5v-2.25c0-0.138-0.112-0.25-0.25-0.25v0h-4c-0.138 0-0.25 0.112-0.25 0.25v0zM18.25 21v-14.25h-12.5v14.25c0 0.138 0.112 0.25 0.25 0.25h12c0.138 0 0.25-0.112 0.25-0.25v0z"></path>
</svg>
