<!-- Generated by IcoMoon.io -->
<svg version="1.1" xmlns="http://www.w3.org/2000/svg" width="24" height="24" viewBox="0 0 24 24">
<title>device-24</title>
<path fill="#a7a8aa" d="M19 3.25c0.412 0.006 0.744 0.338 0.75 0.749v14.001c-0.006 0.412-0.338 0.744-0.749 0.75h-2.251v3.25h-1.5v-3.25h-2.5v3.25h-1.5v-3.25h-2.5v3.25h-1.5v-3.25h-2.25c-0.412-0.006-0.744-0.338-0.75-0.749v-14.001c0.006-0.412 0.338-0.744 0.749-0.75h14.001zM18.25 17.25v-12.5h-12.5v12.5h12.5zM9 14.75c-0.412-0.006-0.744-0.338-0.75-0.749v-6.001c0.006-0.412 0.338-0.744 0.749-0.75h6.001c0.412 0.006 0.744 0.338 0.75 0.749v6.001c-0.006 0.412-0.338 0.744-0.749 0.75h-6.001zM9.75 8.75v4.5h4.5v-4.5h-4.5z"></path>
</svg>
