<!-- Generated by IcoMoon.io -->
<svg version="1.1" xmlns="http://www.w3.org/2000/svg" width="24" height="24" viewBox="0 0 24 24">
<title>device-16</title>
<path fill="#a7a8aa" d="M19.5 3.75c0.414 0 0.75 0.336 0.75 0.75v0 15c0 0.414-0.336 0.75-0.75 0.75v0h-2.25v3h-1.5v-3h-3v3h-1.5v-3h-3v3h-1.5v-3h-2.25c-0.414 0-0.75-0.336-0.75-0.75v0-15c0-0.414 0.336-0.75 0.75-0.75v0h15zM18.75 18.75v-13.5h-13.5v13.5h13.5zM9 15.75c-0.414 0-0.75-0.336-0.75-0.75v0-6c0-0.414 0.336-0.75 0.75-0.75v0h6c0.414 0 0.75 0.336 0.75 0.75v0 6c0 0.414-0.336 0.75-0.75 0.75v0h-6zM9.75 9.75v4.5h4.5v-4.5h-4.5z"></path>
</svg>
