<!-- Generated by IcoMoon.io -->
<svg version="1.1" xmlns="http://www.w3.org/2000/svg" width="24" height="24" viewBox="0 0 24 24">
<title>document-16</title>
<path fill="#a7a8aa" d="M20.775 6.975l-6-6c-0.129-0.139-0.313-0.225-0.516-0.225-0.003 0-0.006 0-0.009 0h-10.5c-0.414 0-0.75 0.336-0.75 0.75v0 21c0 0.414 0.336 0.75 0.75 0.75v0h16.5c0.414 0 0.75-0.336 0.75-0.75v0-15c0-0.003 0-0.006 0-0.009 0-0.204-0.086-0.387-0.225-0.516l-0-0zM15 3.315l3.435 3.435h-3.435v-3.435zM4.5 21.75v-19.5h9v5.25c0 0.414 0.336 0.75 0.75 0.75v0h5.25v13.5h-15z"></path>
</svg>
