<!-- Generated by IcoMoon.io -->
<svg version="1.1" xmlns="http://www.w3.org/2000/svg" width="24" height="24" viewBox="0 0 24 24">
<title>download-24</title>
<path fill="#a7a8aa" d="M12 15.75c-0.001 0-0.002 0-0.003 0-0.206 0-0.392-0.084-0.526-0.22l-5-5 1.060-1.060 3.72 3.72v-11.19h1.5v11.19l3.72-3.72 1.060 1.060-5 5c-0.134 0.136-0.321 0.22-0.526 0.22-0.001 0-0.002 0-0.004 0h0zM20.25 12h1.5v9c-0.006 0.412-0.338 0.744-0.749 0.75h-18.001c-0.412-0.006-0.744-0.338-0.75-0.749v-9.001h1.5v8.25h16.5v-8.25z"></path>
</svg>
