<!-- Generated by IcoMoon.io -->
<svg version="1.1" xmlns="http://www.w3.org/2000/svg" width="24" height="24" viewBox="0 0 24 24">
<title>download-16</title>
<path fill="#a7a8aa" d="M21.75 12h1.5v10.5c0 0.414-0.336 0.75-0.75 0.75v0h-21c-0.414 0-0.75-0.336-0.75-0.75v0-10.5h1.5v9.75h19.5v-9.75zM12 17.25c-0.003 0-0.006 0-0.009 0-0.204 0-0.387-0.086-0.516-0.225l-0-0-6-6 1.050-1.050 4.725 4.71v-13.185h1.5v13.185l4.725-4.71 1.050 1.050-6 6c-0.129 0.139-0.313 0.225-0.516 0.225-0.003 0-0.006-0-0.009-0h0z"></path>
</svg>
