<!-- Generated by IcoMoon.io -->
<svg version="1.1" xmlns="http://www.w3.org/2000/svg" width="24" height="24" viewBox="0 0 24 24">
<title>edit-24</title>
<path fill="#a7a8aa" d="M20.47 5.41l-1.88-1.88c-0.407-0.407-0.969-0.658-1.59-0.658s-1.183 0.251-1.59 0.658l-11.94 11.94c-0.101 0.102-0.175 0.23-0.209 0.375l-0.001 0.005-1 5c-0.008 0.042-0.013 0.090-0.013 0.139 0 0.211 0.085 0.402 0.223 0.542l-0-0c0.14 0.14 0.331 0.22 0.53 0.22h0.15l5-1c0.151-0.031 0.281-0.106 0.38-0.21l0-0 11.94-11.95c0.407-0.407 0.658-0.969 0.658-1.59s-0.251-1.183-0.658-1.59l0 0zM7.63 19.31l-3.63 0.69 0.73-3.67 9.27-9.27 2.94 2.94-9.31 9.31zM19.41 7.53l-1.41 1.41-2.94-2.94 1.41-1.41c0.136-0.136 0.323-0.219 0.53-0.219s0.394 0.084 0.53 0.219v0l1.88 1.88c0.136 0.136 0.219 0.323 0.219 0.53s-0.084 0.394-0.219 0.53v0z"></path>
</svg>
