<!-- Generated by IcoMoon.io -->
<svg version="1.1" xmlns="http://www.w3.org/2000/svg" width="24" height="24" viewBox="0 0 24 24">
<title>edit-12</title>
<path fill="#a7a8aa" d="M22 4.58l-2.58-2.58c-0.361-0.359-0.86-0.582-1.41-0.582s-1.048 0.222-1.41 0.582l0-0-14.6 14.58c-0.135 0.154-0.233 0.343-0.279 0.552l-0.001 0.008-0.7 4.72c-0.008 0.045-0.012 0.097-0.012 0.151 0 0.27 0.112 0.515 0.292 0.689l0 0c0.172 0.185 0.417 0.3 0.689 0.3 0.004 0 0.008-0 0.012-0h0.159l4.7-0.72c0.223-0.023 0.418-0.126 0.559-0.279l0.001-0.001 14.58-14.58c0.365-0.363 0.592-0.865 0.592-1.42s-0.226-1.058-0.591-1.42l-0-0zM6.24 20.36l-3.040 0.46 0.46-3.040 10.34-10.36 2.6 2.58-10.36 10.36zM18 8.58l-2.58-2.58 2.58-2.58 2.6 2.58-2.6 2.58z"></path>
</svg>
