<!-- Generated by IcoMoon.io -->
<svg version="1.1" xmlns="http://www.w3.org/2000/svg" width="24" height="24" viewBox="0 0 24 24">
<title>edit-16</title>
<path fill="#a7a8aa" d="M21.975 4.41l-2.385-2.385c-0.409-0.403-0.97-0.652-1.59-0.652s-1.181 0.249-1.59 0.652l0-0-13.935 13.95c-0.098 0.091-0.171 0.208-0.209 0.34l-0.001 0.005-1.5 6c-0.013 0.051-0.020 0.11-0.020 0.171 0 0.21 0.088 0.4 0.23 0.534l0 0c0.129 0.139 0.313 0.225 0.516 0.225 0.003 0 0.006-0 0.009-0h-0c0.060 0.015 0.12 0.015 0.18 0l6-1.5c0.138-0.027 0.257-0.096 0.344-0.194l0.001-0.001 13.95-13.935c0.412-0.41 0.667-0.978 0.667-1.605s-0.255-1.195-0.667-1.605l-0-0zM7.11 20.325l-4.575 1.14 1.14-4.575 11.325-11.325 3.435 3.435zM20.91 6.525l-1.41 1.41-3.435-3.435 1.41-1.41c0.135-0.133 0.321-0.214 0.525-0.214s0.39 0.082 0.525 0.215l2.385 2.385c0.133 0.135 0.214 0.321 0.214 0.525s-0.082 0.39-0.215 0.525l0-0z"></path>
</svg>
