<!-- Generated by IcoMoon.io -->
<svg version="1.1" xmlns="http://www.w3.org/2000/svg" width="24" height="24" viewBox="0 0 24 24">
<title>ellipsis-16</title>
<path fill="#a7a8aa" d="M12 1.962c-1.243 0-2.25 1.007-2.25 2.25s1.007 2.25 2.25 2.25v0c1.243 0 2.25-1.007 2.25-2.25s-1.007-2.25-2.25-2.25v0zM12 17.538c-1.243 0-2.25 1.008-2.25 2.251s1.008 2.251 2.251 2.251c0 0 0.001 0 0.001 0h-0c1.243-0 2.25-1.008 2.25-2.251s-1.008-2.251-2.251-2.251c-0 0-0.001 0-0.001 0h0zM14.25 12c0 1.243-1.007 2.25-2.25 2.25s-2.25-1.007-2.25-2.25v0c0-1.243 1.007-2.25 2.25-2.25s2.25 1.007 2.25 2.25v0z"></path>
</svg>
