<!-- Generated by IcoMoon.io -->
<svg version="1.1" xmlns="http://www.w3.org/2000/svg" width="24" height="24" viewBox="0 0 24 24">
<title>ellipsis-12</title>
<path fill="#a7a8aa" d="M12 1.104c-1.436 0-2.6 1.164-2.6 2.6s1.164 2.6 2.6 2.6v0c1.436 0 2.6-1.164 2.6-2.6s-1.164-2.6-2.6-2.6v0zM12 17.694c-1.436 0-2.6 1.164-2.6 2.6s1.164 2.6 2.6 2.6v0c1.436 0 2.6-1.164 2.6-2.6s-1.164-2.6-2.6-2.6v0zM14.6 12c0 1.436-1.164 2.6-2.6 2.6s-2.6-1.164-2.6-2.6v0c0-1.436 1.164-2.6 2.6-2.6s2.6 1.164 2.6 2.6v0z"></path>
</svg>
