<!-- Generated by IcoMoon.io -->
<svg version="1.1" xmlns="http://www.w3.org/2000/svg" width="24" height="24" viewBox="0 0 24 24">
<title>emission-12</title>
<path fill="#a7a8aa" d="M11 9c-3.158 0.018-5.737 2.472-5.953 5.577l-0.001 0.019c-0.025 0.345-0.22 0.639-0.501 0.801l-0.005 0.003c-0.92 0.519-1.532 1.487-1.54 2.599v0.001c0 1.654 1.346 3 3 3h12c1.654 0 3-1.346 3-3s-1.346-3-3-3v-0.006c-0.486-0.028-1.022-0.37-1.090-0.842-0.432-2.917-2.91-5.132-5.908-5.152h-0.002zM18 23h-12c-2.76-0.003-4.997-2.24-5-5v-0c0-1.61 0.792-3.12 2.102-4.052 0.522-3.936 3.896-6.948 7.898-6.948 3.662 0 6.848 2.55 7.73 6.052 2.428 0.374 4.265 2.445 4.27 4.948v0c0 2.756-2.244 5-5 5zM22 11c0 0.552-0.448 1-1 1s-1-0.448-1-1v0c0-0.552 0.448-1 1-1s1 0.448 1 1v0zM20 7c0 0.552-0.448 1-1 1s-1-0.448-1-1v0c0-0.552 0.448-1 1-1s1 0.448 1 1v0zM4 7c0 0.552-0.448 1-1 1s-1-0.448-1-1v0c0-0.552 0.448-1 1-1s1 0.448 1 1v0zM8 3c0 0.552-0.448 1-1 1s-1-0.448-1-1v0c0-0.552 0.448-1 1-1s1 0.448 1 1v0z"></path>
</svg>
