<!-- Generated by IcoMoon.io -->
<svg version="1.1" xmlns="http://www.w3.org/2000/svg" width="24" height="24" viewBox="0 0 24 24">
<title>emission-24</title>
<path fill="#a7a8aa" d="M19 21.75h-14c-2.071-0.001-3.749-1.679-3.749-3.75 0-1.816 1.291-3.33 3.005-3.676l0.024-0.004c0.343-3.437 3.22-6.099 6.719-6.099 3.474 0 6.335 2.625 6.709 5.999l0.003 0.030h1.29c2.071 0 3.75 1.679 3.75 3.75s-1.679 3.75-3.75 3.75v0zM11 9.75c-2.897 0.006-5.244 2.353-5.25 5.249v0.001c-0.006 0.412-0.338 0.744-0.749 0.75h-0.001c-1.243 0-2.25 1.007-2.25 2.25s1.007 2.25 2.25 2.25v0h14c1.243 0 2.25-1.007 2.25-2.25s-1.007-2.25-2.25-2.25v0h-2c-0.412-0.006-0.744-0.338-0.75-0.749v-0.001c-0.006-2.897-2.353-5.244-5.249-5.25h-0.001zM4 9c-0.552 0-1-0.448-1-1s0.448-1 1-1v0c0.552 0 1 0.448 1 1s-0.448 1-1 1v0zM8 4c-0.552 0-1-0.448-1-1s0.448-1 1-1v0c0.552 0 1 0.448 1 1s-0.448 1-1 1v0zM17 8c-0.552 0-1-0.448-1-1s0.448-1 1-1v0c0.552 0 1 0.448 1 1s-0.448 1-1 1v0zM21 12c-0.552 0-1-0.448-1-1s0.448-1 1-1v0c0.552 0 1 0.448 1 1s-0.448 1-1 1v0z"></path>
</svg>
