<!-- Generated by IcoMoon.io -->
<svg version="1.1" xmlns="http://www.w3.org/2000/svg" width="24" height="24" viewBox="0 0 24 24">
<title>failure-16</title>
<path fill="#a7a8aa" d="M20.775 6.975c0.139 0.129 0.225 0.313 0.225 0.516 0 0.003-0 0.006-0 0.009v-0 15c0 0.414-0.336 0.75-0.75 0.75v0h-16.5c-0.414 0-0.75-0.336-0.75-0.75v0-21c0-0.414 0.336-0.75 0.75-0.75v0h10.5c0.003-0 0.006-0 0.009-0 0.204 0 0.387 0.086 0.516 0.225l0 0 6 6zM15 3.315v3.435h3.435l-3.435-3.435zM4.5 21.75h15v-13.5h-5.25c-0.414 0-0.75-0.336-0.75-0.75v0-5.25h-9v19.5zM14.655 11.295l1.050 1.050-2.64 2.655 2.64 2.655-1.050 1.050-2.655-2.64-2.655 2.64-1.050-1.050 2.64-2.655-2.64-2.655 1.050-1.050 2.655 2.64 2.655-2.64z"></path>
</svg>
