<!-- Generated by IcoMoon.io -->
<svg version="1.1" xmlns="http://www.w3.org/2000/svg" width="24" height="24" viewBox="0 0 24 24">
<title>favorite-outline-16</title>
<path fill="#a7a8aa" d="M18.495 22.74c-0.132-0.001-0.256-0.034-0.364-0.092l0.004 0.002-6.135-3.15-6.135 3.15c-0.103 0.057-0.226 0.091-0.357 0.091-0.414 0-0.75-0.336-0.75-0.75 0-0.048 0.005-0.095 0.013-0.14l-0.001 0.005 1.23-6.855-5.025-4.815c-0.14-0.143-0.227-0.34-0.227-0.556 0-0.080 0.012-0.157 0.034-0.229l-0.001 0.006c0.094-0.269 0.327-0.467 0.611-0.509l0.004-0.001 6.855-0.99 3.075-6.225c0.137-0.234 0.388-0.389 0.675-0.389s0.538 0.155 0.673 0.385l0.002 0.004 3.075 6.225 6.855 0.99c0.288 0.043 0.521 0.241 0.613 0.505l0.002 0.005c0.020 0.067 0.032 0.144 0.032 0.224 0 0.217-0.087 0.413-0.227 0.556l0-0-5.025 4.815 1.17 6.84c0.006 0.036 0.010 0.078 0.010 0.12 0 0.251-0.121 0.474-0.308 0.613l-0.002 0.001c-0.101 0.088-0.23 0.148-0.372 0.165l-0.003 0zM12 17.82c0.12 0 0.24 0.030 0.345 0.090l5.145 2.7-0.99-5.73c-0.008-0.040-0.012-0.086-0.012-0.133 0-0.206 0.085-0.393 0.222-0.526l4.17-4.050-5.76-0.84c-0.23-0.028-0.427-0.151-0.553-0.328l-0.002-0.002-2.565-5.295-2.565 5.295c-0.117 0.212-0.322 0.363-0.565 0.404l-0.005 0.001-5.76 0.84 4.17 4.050c0.14 0.134 0.227 0.322 0.227 0.531 0 0.019-0.001 0.038-0.002 0.056l0-0.002-0.975 5.73 5.145-2.7c0.095-0.055 0.208-0.088 0.329-0.090h0.001z"></path>
</svg>
