<!-- Generated by IcoMoon.io -->
<svg version="1.1" xmlns="http://www.w3.org/2000/svg" width="24" height="24" viewBox="0 0 24 24">
<title>favorite-filled-12</title>
<path fill="#a7a8aa" d="M18.18 22.52c-0.002 0-0.004 0-0.006 0-0.167 0-0.324-0.045-0.459-0.122l0.004 0.002-5.72-3-5.72 3c-0.148 0.094-0.327 0.149-0.52 0.149s-0.372-0.056-0.524-0.152l0.004 0.002c-0.255-0.171-0.421-0.458-0.421-0.784 0-0.070 0.008-0.137 0.022-0.203l-0.001 0.006 1.16-6.44-4.7-4.5c-0.187-0.191-0.303-0.453-0.303-0.742 0-0.106 0.016-0.209 0.045-0.306l-0.002 0.008c0.125-0.359 0.436-0.623 0.814-0.679l0.006-0.001 6.38-0.92 2.86-5.84c0.183-0.312 0.518-0.519 0.9-0.519s0.717 0.206 0.897 0.514l0.003 0.005 2.86 5.8 6.38 0.92c0.384 0.057 0.695 0.321 0.818 0.673l0.002 0.007c0.027 0.089 0.043 0.192 0.043 0.298 0 0.289-0.116 0.551-0.303 0.742l0-0-4.7 4.54 1.080 6.36c0.013 0.059 0.021 0.127 0.021 0.196 0 0.326-0.166 0.613-0.417 0.781l-0.003 0.002c-0.139 0.106-0.309 0.178-0.495 0.2l-0.005 0z"></path>
</svg>
