<!-- Generated by IcoMoon.io -->
<svg version="1.1" xmlns="http://www.w3.org/2000/svg" width="24" height="24" viewBox="0 0 24 24">
<title>favorite-filled-24</title>
<path fill="#a7a8aa" d="M18.18 22.26c-0.128-0-0.249-0.034-0.354-0.092l0.004 0.002-5.83-3.060-5.83 3.060c-0.103 0.058-0.225 0.093-0.356 0.093-0.163 0-0.314-0.054-0.436-0.144l0.002 0.001c-0.19-0.138-0.312-0.359-0.312-0.609 0-0.046 0.004-0.092 0.012-0.136l-0.001 0.005 1.11-6.49-4.71-4.6c-0.141-0.135-0.228-0.325-0.228-0.535 0-0.084 0.014-0.165 0.040-0.241l-0.002 0.005c0.086-0.272 0.314-0.474 0.596-0.519l0.004-0.001 6.52-0.94 2.92-5.91c0.139-0.23 0.387-0.381 0.67-0.381s0.531 0.151 0.668 0.377l0.002 0.003 2.92 5.91 6.52 0.94c0.363 0.056 0.638 0.367 0.638 0.742 0 0.211-0.087 0.402-0.228 0.538l-0 0-4.71 4.6 1.11 6.49c0.007 0.040 0.012 0.085 0.012 0.131 0 0.25-0.122 0.471-0.309 0.607l-0.002 0.002c-0.122 0.091-0.274 0.146-0.439 0.15l-0.001 0z"></path>
</svg>
