<!-- Generated by IcoMoon.io -->
<svg version="1.1" xmlns="http://www.w3.org/2000/svg" width="24" height="24" viewBox="0 0 24 24">
<title>fill-16</title>
<path fill="#a7a8aa" d="M23.76 13.635c-0.424-1.454-1.546-2.576-2.969-2.992l-0.031-0.008-8.235-8.16c-0.129-0.139-0.313-0.225-0.516-0.225-0.003 0-0.006 0-0.009 0h-6.75c-2.468 0.023-4.46 2.029-4.46 4.5 0 1.725 0.97 3.223 2.395 3.978l0.024 0.012-1.185 1.17c-0.407 0.407-0.658 0.969-0.658 1.59s0.251 1.183 0.658 1.59l6.885 6.885c0.407 0.407 0.969 0.658 1.59 0.658s1.183-0.251 1.59-0.658l8.91-8.91v1.935c0 0.828 0.672 1.5 1.5 1.5s1.5-0.672 1.5-1.5v0c-0.020-0.494-0.106-0.961-0.25-1.401l0.010 0.036zM11.025 20.91c-0.135 0.133-0.321 0.214-0.525 0.214s-0.39-0.082-0.525-0.215l-6.885-6.885c-0.133-0.135-0.214-0.321-0.214-0.525s0.082-0.39 0.215-0.525l-0 0 1.755-1.77h7.155v-1.5h-6.75c-1.657 0-3-1.343-3-3s1.343-3 3-3v0h4.935l-3.21 3.255 1.065 1.065 3.96-3.96 7.935 7.935-8.91 8.91z"></path>
</svg>
