<!-- Generated by IcoMoon.io -->
<svg version="1.1" xmlns="http://www.w3.org/2000/svg" width="24" height="24" viewBox="0 0 24 24">
<title>fill-12</title>
<path fill="#a7a8aa" d="M18.166 10.394l-6.442-6.424c-0.159-0.171-0.385-0.278-0.637-0.278-0.004 0-0.008 0-0.012 0h-6.459c-2.021 0.024-3.65 1.668-3.65 3.692 0 1.628 1.053 3.009 2.516 3.501l0.026 0.008-1.66 1.644c-0.337 0.335-0.545 0.798-0.545 1.31s0.209 0.975 0.545 1.31l6.072 6.074c0.335 0.337 0.798 0.545 1.31 0.545s0.975-0.209 1.31-0.545l7.92-7.92v2.382c0 1.020 0.827 1.847 1.847 1.847s1.847-0.827 1.847-1.847v0c0.009-0.11 0.013-0.239 0.013-0.368 0-2.416-1.7-4.435-3.968-4.926l-0.033-0.006zM9.23 19.92l-6.074-6.074 2.77-2.77h5.15v-1.846h-6.46c-1.020 0-1.846-0.826-1.846-1.846s0.826-1.846 1.846-1.846v0h4.228l-1.182 1.2 1.292 1.292 2.122-2.104 6.074 6.074z"></path>
</svg>
