<!-- Generated by IcoMoon.io -->
<svg version="1.1" xmlns="http://www.w3.org/2000/svg" width="24" height="24" viewBox="0 0 24 24">
<title>fill-24</title>
<path fill="#a7a8aa" d="M21 11c-0.452-0.538-1.111-0.89-1.853-0.93l-0.007-0-6.61-6.6c-0.134-0.136-0.321-0.22-0.526-0.22-0.001 0-0.002 0-0.004 0h-6c-2.064 0.009-3.734 1.684-3.734 3.75 0 1.522 0.907 2.833 2.211 3.42l0.024 0.010-1.62 1.63c-0.495 0.497-0.801 1.183-0.801 1.94s0.306 1.443 0.801 1.94l5.18 5.18c0.497 0.495 1.183 0.801 1.94 0.801s1.443-0.306 1.94-0.801l8.060-8.060v0.94c0 0.552 0.448 1 1 1s1-0.448 1-1v0c0.018-0.136 0.028-0.293 0.028-0.453 0-0.99-0.392-1.888-1.029-2.548l0.001 0.001zM10.88 20.060c-0.227 0.222-0.537 0.358-0.88 0.358s-0.653-0.137-0.88-0.358l0 0-5.18-5.18c-0.222-0.227-0.358-0.537-0.358-0.88s0.137-0.653 0.358-0.88l-0 0 2.37-2.37h6.69v-1.5h-7c-1.243 0-2.25-1.007-2.25-2.25s1.007-2.25 2.25-2.25v0h4.19l-2.72 2.72 1.060 1.060 3.47-3.47 6.94 6.94-8.060 8.060z"></path>
</svg>
