<!-- Generated by IcoMoon.io -->
<svg version="1.1" xmlns="http://www.w3.org/2000/svg" width="24" height="24" viewBox="0 0 24 24">
<title>filter-16</title>
<path fill="#a7a8aa" d="M5.25 12.75h3v-1.5h-3v1.5zM9.75 10.5c0-0.414-0.336-0.75-0.75-0.75v0h-4.5c-0.414 0-0.75 0.336-0.75 0.75v0 0.75h-2.25v1.5h2.25v0.75c0 0.414 0.336 0.75 0.75 0.75v0h4.5c0.414 0 0.75-0.336 0.75-0.75v0-0.75h12.75v-1.5h-12.75v-0.75zM15.75 18.75h3v-1.5h-3v1.5zM20.25 16.5c0-0.414-0.336-0.75-0.75-0.75v0h-4.5c-0.414 0-0.75 0.336-0.75 0.75v0 0.75h-12.75v1.5h12.75v0.75c0 0.414 0.336 0.75 0.75 0.75v0h4.5c0.414 0 0.75-0.336 0.75-0.75v0-0.75h2.25v-1.5h-2.25v-0.75zM15.75 6.75h3v-1.5h-3v1.5zM20.25 5.25v-0.75c0-0.414-0.336-0.75-0.75-0.75v0h-4.5c-0.414 0-0.75 0.336-0.75 0.75v0 0.75h-12.75v1.5h12.75v0.75c0 0.414 0.336 0.75 0.75 0.75v0h4.5c0.414 0 0.75-0.336 0.75-0.75v0-0.75h2.25v-1.5h-2.25z"></path>
</svg>
