<!-- Generated by IcoMoon.io -->
<svg version="1.1" xmlns="http://www.w3.org/2000/svg" width="24" height="24" viewBox="0 0 24 24">
<title>filter-24</title>
<path fill="#a7a8aa" d="M20.75 4.25h2.25v1.5h-2.25v0.25c-0.006 0.964-0.786 1.744-1.749 1.75h-3.001c-0.964-0.006-1.744-0.786-1.75-1.749v-0.251h-13.25v-1.5h13.25v-0.25c0.006-0.964 0.786-1.744 1.749-1.75h3.001c0.964 0.006 1.744 0.786 1.75 1.749v0.251zM19.25 6v-2c0-0.138-0.112-0.25-0.25-0.25v0h-3c-0.138 0-0.25 0.112-0.25 0.25v0 2c0 0.138 0.112 0.25 0.25 0.25h3c0.138 0 0.25-0.112 0.25-0.25v0zM20.75 18v0.25h2.25v1.5h-2.25v0.25c-0.006 0.964-0.786 1.744-1.749 1.75h-3.001c-0.964-0.006-1.744-0.786-1.75-1.749v-0.251h-13.25v-1.5h13.25v-0.25c0.006-0.964 0.786-1.744 1.749-1.75h3.001c0.964 0.006 1.744 0.786 1.75 1.749v0.001zM19.25 20v-2c0-0.138-0.112-0.25-0.25-0.25v0h-3c-0.138 0-0.25 0.112-0.25 0.25v0 2c0 0.138 0.112 0.25 0.25 0.25h3c0.138 0 0.25-0.112 0.25-0.25v0zM9.75 11v0.25h13.25v1.5h-13.25v0.25c-0.006 0.964-0.786 1.744-1.749 1.75h-3.001c-0.964-0.006-1.744-0.786-1.75-1.749v-0.251h-2.25v-1.5h2.25v-0.25c0.006-0.964 0.786-1.744 1.749-1.75h3.001c0.964 0.006 1.744 0.786 1.75 1.749v0.001zM8.25 13v-2c0-0.138-0.112-0.25-0.25-0.25v0h-3c-0.138 0-0.25 0.112-0.25 0.25v0 2c0 0.138 0.112 0.25 0.25 0.25h3c0.138 0 0.25-0.112 0.25-0.25v0z"></path>
</svg>
