<!-- Generated by IcoMoon.io -->
<svg version="1.1" xmlns="http://www.w3.org/2000/svg" width="24" height="24" viewBox="0 0 24 24">
<title>filter-12</title>
<path fill="#a7a8aa" d="M3 13h4v-2h-4v2zM9 10c0-0.552-0.448-1-1-1v0h-6c-0.552 0-1 0.448-1 1v0 1h-1v2h1v1c0 0.552 0.448 1 1 1v0h6c0.552 0 1-0.448 1-1v0-1h15v-2h-15v-1zM17 21h4v-2h-4v2zM23 18c0-0.552-0.448-1-1-1v0h-6c-0.552 0-1 0.448-1 1v0 1h-15v2h15v1c0 0.552 0.448 1 1 1v0h6c0.552 0 1-0.448 1-1v0-1h1v-2h-1v-1zM17 5h4v-2h-4v2zM23 3v-1c0-0.552-0.448-1-1-1v0h-6c-0.552 0-1 0.448-1 1v0 1h-15v2h15v1c0 0.552 0.448 1 1 1v0h6c0.552 0 1-0.448 1-1v0-1h1v-2h-1z"></path>
</svg>
