<!-- Generated by IcoMoon.io -->
<svg version="1.1" xmlns="http://www.w3.org/2000/svg" width="24" height="24" viewBox="0 0 24 24">
<title>floorplan-16</title>
<path fill="#a7a8aa" d="M16.5 8.25v1.5h4.076l2.031 3.386 1.287-0.771-2.143-3.573v-5.792c0-0.414-0.336-0.75-0.75-0.75v0h-18c-0.414 0-0.75 0.336-0.75 0.75v0 18c0 0.414 0.336 0.75 0.75 0.75v0h18c0.414 0 0.75-0.336 0.75-0.75v0-5.25h-1.5v4.5h-7.5v-2.25h-1.5v2.25h-7.5v-7.5h7.5v2.25h1.5v-3c0-0.414-0.336-0.75-0.75-0.75v0h-8.25v-7.5h16.5v4.5h-3.75z"></path>
</svg>
