<!-- Generated by IcoMoon.io -->
<svg version="1.1" xmlns="http://www.w3.org/2000/svg" width="24" height="24" viewBox="0 0 24 24">
<title>floorplan-24</title>
<path fill="#a7a8aa" d="M16 8.25v1.5h4.536l1.793 3.585 1.342-0.67-1.921-3.842v-5.823c0-0.414-0.336-0.75-0.75-0.75v0h-18c-0.414 0-0.75 0.336-0.75 0.75v0 18c0 0.414 0.336 0.75 0.75 0.75h18c0.414 0 0.75-0.336 0.75-0.75v0-6h-1.5v5.25h-7.5v-2.25h-1.5v2.25h-7.5v-7.484h7.5v2.234h1.5v-2.984c0-0.414-0.336-0.75-0.75-0.75v0h-8.25v-7.516h16.5v4.5h-4.25z"></path>
</svg>
