<!-- Generated by IcoMoon.io -->
<svg version="1.1" xmlns="http://www.w3.org/2000/svg" width="24" height="24" viewBox="0 0 24 24">
<title>help-filled-16</title>
<path fill="#a7a8aa" d="M12 0.75c-6.213 0-11.25 5.037-11.25 11.25s5.037 11.25 11.25 11.25v0c6.213 0 11.25-5.037 11.25-11.25s-5.037-11.25-11.25-11.25v0zM12.525 15.93c-0.163 0.15-0.381 0.243-0.621 0.243-0.024 0-0.049-0.001-0.073-0.003l0.003 0c-0.014 0.001-0.030 0.001-0.047 0.001-0.237 0-0.453-0.092-0.614-0.242l0.001 0c-0.158-0.168-0.254-0.395-0.254-0.645s0.097-0.477 0.255-0.646l-0 0.001c0.164-0.141 0.379-0.226 0.613-0.226 0.016 0 0.033 0 0.049 0.001l-0.002-0c0.019-0.001 0.042-0.002 0.064-0.002 0.239 0 0.458 0.086 0.627 0.228l-0.001-0.001c0.158 0.168 0.254 0.395 0.254 0.645s-0.097 0.477-0.255 0.646l0-0.001zM14.37 10.74c-0.091 0.248-0.218 0.462-0.377 0.648l0.002-0.003c-0.148 0.179-0.31 0.336-0.488 0.475l-0.007 0.005c-0.187 0.144-0.354 0.291-0.509 0.449l-0.001 0.001c-0.154 0.154-0.285 0.332-0.385 0.528l-0.005 0.012c-0.105 0.22-0.166 0.478-0.166 0.751 0 0.016 0 0.031 0.001 0.047l-0-0.002h-1.29c-0.027-0.153-0.042-0.33-0.042-0.51s0.015-0.357 0.045-0.528l-0.003 0.018c0.071-0.273 0.179-0.513 0.321-0.729l-0.006 0.009c0.151-0.205 0.33-0.379 0.533-0.52l0.007-0.005 0.48-0.435c0.134-0.133 0.253-0.28 0.354-0.44l0.006-0.010c0.094-0.142 0.151-0.316 0.151-0.503 0-0.013-0-0.026-0.001-0.039l0 0.002c0-0.010 0.001-0.021 0.001-0.032 0-0.234-0.085-0.449-0.227-0.614l0.001 0.001c-0.185-0.143-0.42-0.229-0.675-0.229-0.032 0-0.063 0.001-0.094 0.004l0.004-0h-0.39c-0.16 0.029-0.3 0.071-0.435 0.125l0.015-0.005-0.39 0.165-0.3 0.255-0.57-1.11c0.312-0.21 0.649-0.375 1.005-0.495 0.374-0.125 0.806-0.197 1.253-0.197 0.039 0 0.078 0.001 0.117 0.002l-0.006-0c0.042-0.002 0.091-0.004 0.14-0.004 0.588 0 1.129 0.199 1.561 0.533l-0.006-0.004c0.411 0.351 0.638 0.87 0.615 1.41-0.017 0.357-0.104 0.69-0.247 0.991l0.007-0.016z"></path>
</svg>
