<!-- Generated by IcoMoon.io -->
<svg version="1.1" xmlns="http://www.w3.org/2000/svg" width="24" height="24" viewBox="0 0 24 24">
<title>help-outline-12</title>
<path fill="#a7a8aa" d="M12 3c-4.968 0.006-8.994 4.032-9 8.999v0.001c0 4.962 4.038 9 9 9s9-4.038 9-9-4.038-9-9-9zM12 23c-6.072-0.007-10.993-4.928-11-10.999v-0.001c0-6.066 4.936-11 11-11s11 4.934 11 11-4.936 11-11 11zM10.304 16.38c0-0.36 0.112-0.642 0.34-0.852 0.221-0.197 0.514-0.317 0.835-0.317 0.018 0 0.036 0 0.054 0.001l-0.003-0c0.39 0 0.696 0.108 0.922 0.314 0.208 0.201 0.338 0.483 0.338 0.795 0 0.021-0.001 0.042-0.002 0.062l0-0.003c0.001 0.016 0.001 0.035 0.001 0.053 0 0.314-0.129 0.599-0.337 0.803l-0 0c-0.226 0.216-0.532 0.324-0.92 0.324-0.017 0.001-0.037 0.001-0.057 0.001-0.322 0-0.614-0.124-0.833-0.326l0.001 0.001c-0.209-0.205-0.339-0.49-0.339-0.805 0-0.018 0-0.035 0.001-0.053l-0 0.002zM10.61 14.2c-0.017-0.137-0.027-0.295-0.027-0.455 0-0.32 0.039-0.63 0.113-0.927l-0.006 0.026c0.174-0.672 0.537-1.243 1.028-1.671l0.004-0.003c0.23-0.196 0.446-0.388 0.644-0.574 0.2-0.182 0.366-0.376 0.5-0.574 0.126-0.191 0.201-0.425 0.201-0.677 0-0.013-0-0.026-0.001-0.039l0 0.002c0.001-0.017 0.001-0.037 0.001-0.057 0-0.308-0.114-0.589-0.303-0.804l0.001 0.001c-0.2-0.214-0.556-0.32-1.066-0.32-0.164 0-0.338 0.016-0.52 0.052-0.582 0.125-1.096 0.352-1.549 0.662l0.015-0.010-0.768-1.472c0.388-0.266 0.836-0.486 1.342-0.66s1.12-0.26 1.832-0.26c0.96 0 1.712 0.232 2.256 0.696 0.54 0.466 0.812 1.092 0.812 1.88 0 0.522-0.068 0.952-0.206 1.298-0.14 0.34-0.312 0.632-0.514 0.872-0.206 0.24-0.43 0.452-0.674 0.638-0.249 0.187-0.47 0.381-0.675 0.589l-0.001 0.001c-0.202 0.21-0.375 0.451-0.512 0.713l-0.008 0.017c-0.137 0.285-0.218 0.619-0.218 0.972 0 0.030 0.001 0.060 0.002 0.090l-0-0.004h-1.704z"></path>
</svg>
