<!-- Generated by IcoMoon.io -->
<svg version="1.1" xmlns="http://www.w3.org/2000/svg" width="24" height="24" viewBox="0 0 24 24">
<title>help-filled-12</title>
<path fill="#a7a8aa" d="M12 1c6.064 0 11 4.934 11 11 0 6.064-4.936 11-11 11-6.072-0.008-10.992-4.928-11-10.999v-0.001c0-6.066 4.936-11 11-11zM11.532 15.212c-0.017-0.001-0.036-0.001-0.056-0.001-0.321 0-0.613 0.12-0.836 0.316l0.001-0.001c-0.209 0.202-0.339 0.484-0.339 0.797 0 0.019 0 0.038 0.001 0.057l-0-0.003c0 0.36 0.112 0.644 0.338 0.86 0.219 0.2 0.511 0.323 0.833 0.323 0.020 0 0.040-0 0.060-0.001l-0.003 0c0.020 0.001 0.044 0.002 0.067 0.002 0.329 0 0.629-0.124 0.856-0.327l-0.001 0.001c0.208-0.205 0.337-0.491 0.337-0.806 0-0.018-0-0.036-0.001-0.055l0 0.003c0.001-0.016 0.001-0.035 0.001-0.054 0-0.313-0.129-0.595-0.337-0.798l-0-0c-0.228-0.196-0.527-0.316-0.854-0.316-0.024 0-0.047 0.001-0.071 0.002l0.003-0zM12.052 6.44c-0.714 0-1.326 0.086-1.832 0.26-0.512 0.174-0.956 0.397-1.362 0.673l0.020-0.013 0.766 1.472c0.283-0.19 0.606-0.358 0.949-0.487l0.033-0.011c0.184-0.066 0.368-0.118 0.554-0.154 0.184-0.034 0.358-0.054 0.522-0.054 0.508 0 0.864 0.108 1.066 0.322 0.185 0.214 0.297 0.495 0.297 0.802 0 0.020-0 0.041-0.001 0.061l0-0.003c0 0.011 0.001 0.025 0.001 0.038 0 0.25-0.073 0.483-0.2 0.679l0.003-0.005c-0.136 0.2-0.302 0.392-0.5 0.576-0.2 0.184-0.414 0.376-0.646 0.576-0.232 0.205-0.434 0.436-0.602 0.691l-0.008 0.013c-0.18 0.272-0.324 0.594-0.422 0.968-0.068 0.267-0.107 0.573-0.107 0.889 0 0.165 0.011 0.327 0.031 0.486l-0.002-0.019h1.702c0-0.43 0.070-0.78 0.216-1.058 0.144-0.279 0.317-0.519 0.521-0.729l-0.001 0.001c0.206-0.21 0.43-0.406 0.676-0.592 0.253-0.19 0.474-0.399 0.669-0.63l0.005-0.006c0.204-0.24 0.376-0.532 0.514-0.874 0.138-0.34 0.208-0.774 0.208-1.294 0-0.79-0.272-1.414-0.814-1.88s-1.294-0.698-2.256-0.698z"></path>
</svg>
