<!-- Generated by IcoMoon.io -->
<svg version="1.1" xmlns="http://www.w3.org/2000/svg" width="24" height="24" viewBox="0 0 24 24">
<title>help-outline-24</title>
<path fill="#a7a8aa" d="M12 22.75c-5.937 0-10.75-4.813-10.75-10.75s4.813-10.75 10.75-10.75 10.75 4.813 10.75 10.75c-0.006 5.935-4.815 10.744-10.75 10.75zM12 2.75c-5.109 0-9.25 4.141-9.25 9.25s4.141 9.25 9.25 9.25c5.109 0 9.25-4.141 9.25-9.25v0c-0.006-5.106-4.144-9.244-9.249-9.25h-0.001zM11.23 13.85c-0.017-0.122-0.026-0.263-0.026-0.406 0-0.26 0.031-0.513 0.091-0.756l-0.005 0.022c0.084-0.308 0.208-0.577 0.367-0.821l-0.007 0.011c0.148-0.228 0.317-0.425 0.507-0.598l0.003-0.002c0.2-0.16 0.38-0.33 0.54-0.48 0.159-0.142 0.3-0.304 0.42-0.48 0.107-0.157 0.171-0.35 0.171-0.559 0-0.014-0-0.029-0.001-0.043l0 0.002c0-0.010 0.001-0.023 0.001-0.035 0-0.275-0.111-0.524-0.291-0.705l0 0c-0.208-0.172-0.477-0.277-0.77-0.277-0.046 0-0.091 0.003-0.135 0.007l0.005-0c-0.064-0.006-0.139-0.010-0.215-0.010s-0.151 0.004-0.224 0.011l0.009-0.001c-0.18 0.033-0.338 0.078-0.489 0.136l0.019-0.006c-0.174 0.061-0.319 0.126-0.459 0.199l0.019-0.009c-0.145 0.070-0.27 0.147-0.386 0.234l0.006-0.004-0.61-1.18c0.325-0.225 0.699-0.414 1.098-0.55l0.032-0.010c0.436-0.14 0.937-0.221 1.457-0.221 0.029 0 0.058 0 0.087 0.001l-0.004-0c0.048-0.003 0.104-0.005 0.161-0.005 0.658 0 1.264 0.224 1.745 0.599l-0.006-0.005c0.407 0.368 0.662 0.897 0.662 1.487 0 0.033-0.001 0.065-0.002 0.098l0-0.005c0.010 0.37-0.048 0.74-0.17 1.090-0.114 0.284-0.262 0.528-0.443 0.744l0.003-0.004c-0.167 0.197-0.351 0.371-0.551 0.524l-0.009 0.006c-0.211 0.157-0.397 0.321-0.569 0.499l-0.001 0.001c-0.172 0.175-0.318 0.376-0.433 0.596l-0.007 0.014c-0.114 0.239-0.181 0.52-0.181 0.817 0 0.026 0 0.051 0.001 0.077l-0-0.004h-1.41zM11 15.68c-0.001-0.016-0.001-0.034-0.001-0.052 0-0.259 0.108-0.492 0.281-0.658l0-0c0.178-0.168 0.419-0.271 0.684-0.271 0.013 0 0.025 0 0.038 0.001l-0.002-0c0.018-0.001 0.039-0.002 0.060-0.002 0.277 0 0.529 0.103 0.721 0.273l-0.001-0.001c0.173 0.171 0.281 0.408 0.281 0.67 0 0.014-0 0.028-0.001 0.042l0-0.002c0 0.008 0 0.017 0 0.026 0 0.27-0.107 0.515-0.281 0.695l0-0c-0.192 0.174-0.449 0.281-0.731 0.281-0.017 0-0.035-0-0.052-0.001l0.002 0c-0.011 0-0.023 0.001-0.035 0.001-0.276 0-0.528-0.107-0.715-0.281l0.001 0.001c-0.157-0.168-0.253-0.393-0.253-0.642 0-0.028 0.001-0.055 0.003-0.082l-0 0.003z"></path>
</svg>
