<!-- Generated by IcoMoon.io -->
<svg version="1.1" xmlns="http://www.w3.org/2000/svg" width="24" height="24" viewBox="0 0 24 24">
<title>hidden-24</title>
<path fill="#a7a8aa" d="M5.021 16.504c-2.458-1.788-3.614-4.013-3.692-4.168-0.050-0.098-0.079-0.213-0.079-0.336s0.029-0.238 0.081-0.34l-0.002 0.004c0.13-0.262 3.293-6.415 10.672-6.415 1.38 0 2.614 0.216 3.707 0.568l-1.228 1.227c-0.76-0.182-1.58-0.295-2.48-0.295-5.58 0-8.414 4.032-9.142 5.25 0.848 1.371 1.929 2.515 3.198 3.408l0.037 0.024zM22.671 11.664c0.050 0.098 0.079 0.214 0.079 0.336s-0.029 0.238-0.081 0.34l0.002-0.004c-0.131 0.262-3.292 6.414-10.671 6.414-1.381 0-2.614-0.215-3.707-0.567l1.227-1.227c0.759 0.18 1.58 0.294 2.48 0.294 5.58 0 8.413-4.032 9.142-5.25-0.849-1.371-1.93-2.514-3.199-3.407l-0.037-0.024 1.073-1.072c2.459 1.787 3.615 4.013 3.692 4.168zM9.775 11.75l-1.344 1.344c-0.109-0.326-0.175-0.701-0.18-1.091l-0-0.003c0.002-2.070 1.679-3.747 3.749-3.75h0c0.381 0 0.744 0.075 1.092 0.182l-1.342 1.343c-1.039 0.12-1.855 0.936-1.974 1.965l-0.001 0.010zM14.225 12.25l1.344-1.344c0.107 0.349 0.18 0.711 0.18 1.094-0.002 2.070-1.679 3.747-3.749 3.75h-0c-0.381 0-0.744-0.075-1.092-0.182l1.343-1.343c1.039-0.12 1.855-0.936 1.974-1.965l0.001-0.010zM4.53 20.53l-1.060-1.060 16-16 1.060 1.060z"></path>
</svg>
