<!-- Generated by IcoMoon.io -->
<svg version="1.1" xmlns="http://www.w3.org/2000/svg" width="24" height="24" viewBox="0 0 24 24">
<title>hidden-16</title>
<path fill="#a7a8aa" d="M23.157 11.636c0.059 0.105 0.093 0.23 0.093 0.364s-0.035 0.259-0.095 0.368l0.002-0.004c-0.163 0.293-4.049 7.137-11.157 7.137-0.002 0-0.004 0-0.006 0-1.317 0-2.58-0.236-3.747-0.668l0.075 0.024 1.212-1.207c0.738 0.22 1.586 0.348 2.464 0.351h0.002c5.355 0 8.745-4.645 9.619-6-0.866-1.305-1.866-2.428-3.004-3.394l-0.023-0.019 1.076-1.077c2.205 1.878 3.399 3.967 3.488 4.125zM4.329 16.488c-2.204-1.875-3.399-3.966-3.485-4.125-0.059-0.105-0.093-0.23-0.093-0.364s0.035-0.259 0.095-0.368l-0.002 0.004c0.161-0.291 4.046-7.135 11.155-7.135 1.342 0 2.568 0.244 3.675 0.642l-1.207 1.209c-0.738-0.22-1.587-0.348-2.466-0.351h-0.002c-5.355 0-8.747 4.645-9.62 6 0.427 0.66 1.463 2.104 3.027 3.411l-1.077 1.077zM12.201 14.979c1.49-0.105 2.673-1.288 2.777-2.769l0.001-0.009 1.353-1.35c0.097 0.368 0.165 0.75 0.165 1.149 0 2.481-2.016 4.5-4.5 4.5-0.398 0-0.78-0.069-1.148-0.168l1.35-1.353zM7.5 12c0-2.481 2.019-4.5 4.5-4.5 0.4 0 0.782 0.069 1.15 0.168l-1.353 1.353c-1.49 0.104-2.673 1.287-2.776 2.767l-0.001 0.009-1.355 1.353c-0.1-0.343-0.161-0.739-0.166-1.147l-0-0.003zM19.719 3.219l1.061 1.062-16.5 16.5-1.060-1.061 16.5-16.5z"></path>
</svg>
