<!-- Generated by IcoMoon.io -->
<svg version="1.1" xmlns="http://www.w3.org/2000/svg" width="24" height="24" viewBox="0 0 24 24">
<title>hidden-12</title>
<path fill="#a7a8aa" d="M13.024 8.15l-4.876 4.874c-0.088-0.305-0.141-0.657-0.148-1.020l-0-0.004c0-2.206 1.796-4 4-4 0.356 0 0.694 0.060 1.024 0.15zM10.976 15.85l4.876-4.874c0.084 0.33 0.148 0.668 0.148 1.024 0 2.206-1.796 4-4 4-0.356 0-0.694-0.060-1.024-0.15zM4.31 16.862c-1.319-1.249-2.403-2.73-3.192-4.379l-0.038-0.089c-0.051-0.116-0.081-0.251-0.081-0.393s0.030-0.277 0.083-0.399l-0.003 0.006c0.134-0.312 3.348-7.608 10.92-7.608 1.63 0 3.046 0.352 4.286 0.886l-1.578 1.576c-0.806-0.284-1.736-0.452-2.704-0.462l-0.004-0c-5.352 0-8.164 4.614-8.892 6.004 0.704 1.331 1.576 2.468 2.607 3.438l0.007 0.006-1.412 1.414zM22.92 11.606c0.051 0.116 0.081 0.252 0.081 0.394s-0.030 0.278-0.083 0.4l0.003-0.006c-0.134 0.31-3.348 7.606-10.92 7.606-0.006 0-0.014 0-0.021 0-1.543 0-3.010-0.326-4.335-0.913l0.068 0.027 1.58-1.576c0.824 0.266 1.706 0.462 2.708 0.462 5.352 0 8.164-4.614 8.89-6.004-0.703-1.331-1.575-2.468-2.605-3.438l-0.007-0.006 1.412-1.414c1.318 1.249 2.403 2.73 3.192 4.379l0.038 0.089zM4.706 20.706l-1.414-1.414 16-16 1.414 1.416-16 16z"></path>
</svg>
