<!-- Generated by IcoMoon.io -->
<svg version="1.1" xmlns="http://www.w3.org/2000/svg" width="24" height="24" viewBox="0 0 24 24">
<title>home-24</title>
<path fill="#a7a8aa" d="M21.25 21.25h-6v-7.25c0-0.414-0.336-0.75-0.75-0.75v0h-5c-0.414 0-0.75 0.336-0.75 0.75v0 7.25h-6v-11.859l9.25-6.475 9.25 6.475v11.859zM10.25 21.25h3.5v-6.5h-3.5v6.5zM22.43 8.386l-10-7c-0.12-0.085-0.269-0.136-0.43-0.136s-0.31 0.051-0.432 0.137l0.002-0.002-10 7c-0.194 0.137-0.32 0.36-0.32 0.613 0 0 0 0.001 0 0.001v-0 13c0 0.414 0.336 0.75 0.75 0.75h20c0.414 0 0.75-0.336 0.75-0.75v0-13c0-0 0-0.001 0-0.001 0-0.253-0.126-0.476-0.318-0.611l-0.002-0.002z"></path>
</svg>
