<!-- Generated by IcoMoon.io -->
<svg version="1.1" xmlns="http://www.w3.org/2000/svg" width="24" height="24" viewBox="0 0 24 24">
<title>home-16</title>
<path fill="#a7a8aa" d="M21.75 21.75h-6v-6.75c0-0.414-0.336-0.75-0.75-0.75v0h-6c-0.414 0-0.75 0.336-0.75 0.75v0 6.75h-6v-10.886l9.75-7.66 9.75 7.66v10.886zM9.75 21.75h4.5v-6h-4.5v6zM22.963 9.911l-10.5-8.25c-0.126-0.1-0.288-0.161-0.464-0.161s-0.337 0.061-0.465 0.162l0.002-0.001-10.5 8.25c-0.175 0.139-0.286 0.351-0.286 0.589v0 12c0 0.414 0.336 0.75 0.75 0.75v0h21c0.414 0 0.75-0.336 0.75-0.75v0-12c-0-0.239-0.111-0.451-0.285-0.588l-0.002-0.001z"></path>
</svg>
