<!-- Generated by IcoMoon.io -->
<svg version="1.1" xmlns="http://www.w3.org/2000/svg" width="24" height="24" viewBox="0 0 24 24">
<title>home-12</title>
<path fill="#a7a8aa" d="M21 21h-5v-7c0-0.552-0.448-1-1-1v0h-6c-0.552 0-1 0.448-1 1v0 7h-5v-10.52l9-7.2 9 7.2v10.52zM10 21h4v-6h-4v6zM22.624 9.218l-9.998-8c-0.17-0.136-0.388-0.218-0.625-0.218s-0.455 0.082-0.627 0.219l0.002-0.002-10.002 8c-0.229 0.186-0.373 0.467-0.374 0.782v12c0 0.552 0.448 1 1 1v0h20c0.552 0 1-0.448 1-1v0-12c-0-0.315-0.146-0.597-0.374-0.78l-0.002-0.002z"></path>
</svg>
