<!-- Generated by IcoMoon.io -->
<svg version="1.1" xmlns="http://www.w3.org/2000/svg" width="24" height="24" viewBox="0 0 24 24">
<title>hourglass-24</title>
<path fill="#a7a8aa" d="M18.75 5.29v-2.54h1.25v-1.5h-16v1.5h1.25v2.54c0.005 2.615 1.505 4.879 3.692 5.982l0.038 0.018 1.34 0.67-1.32 0.71c-2.225 1.121-3.725 3.385-3.73 5.999v2.541h-1.27v1.5h16v-1.5h-1.25v-2.5c-0.005-2.615-1.505-4.879-3.692-5.982l-0.038-0.018-1.34-0.71 1.32-0.67c2.239-1.119 3.75-3.394 3.75-6.022 0-0.006 0-0.013-0-0.019v0.001zM17.25 18.71v2.54h-10.5v-2.54c-0-0.008-0-0.018-0-0.028 0-2.039 1.167-3.806 2.87-4.669l0.030-0.014 2.35-1.16 2.35 1.16c1.733 0.876 2.9 2.643 2.9 4.682 0 0.010-0 0.019-0 0.029v-0.002zM12 11.16l-2.35-1.16c-1.733-0.876-2.9-2.643-2.9-4.682 0-0.006 0-0.012 0-0.019v0.001-2.55h10.5v2.54c0 0.005 0 0.011 0 0.018 0 2.039-1.167 3.806-2.87 4.669l-0.030 0.014-2.35 1.17z"></path>
</svg>
