<!-- Generated by IcoMoon.io -->
<svg version="1.1" xmlns="http://www.w3.org/2000/svg" width="24" height="24" viewBox="0 0 24 24">
<title>hourglass-12</title>
<path fill="#a7a8aa" d="M20 5.68v-2.68h2v-2h-20v2h2v2.68c0.008 1.841 1.010 3.446 2.496 4.307l0.024 0.013 3.48 2-3.48 2c-1.51 0.874-2.512 2.479-2.52 4.319v2.681h-2v2h20v-2h-2v-2.68c-0.008-1.841-1.010-3.446-2.496-4.307l-0.024-0.013-3.48-2 3.48-2c1.51-0.874 2.512-2.479 2.52-4.319v-0.001zM18 18.32v2.68h-12v-2.68c-0-0.004-0-0.009-0-0.014 0-1.106 0.607-2.070 1.505-2.578l0.015-0.008 4.48-2.56 4.48 2.56c0.942 0.524 1.526 1.52 1.52 2.6zM16.48 8.32l-4.48 2.52-4.48-2.56c-0.913-0.516-1.52-1.48-1.52-2.586 0-0.005 0-0.010 0-0.015v0.001-2.68h12v2.68c0 0.004 0 0.009 0 0.014 0 1.106-0.607 2.070-1.505 2.578l-0.015 0.008v0.040z"></path>
</svg>
