<!-- Generated by IcoMoon.io -->
<svg version="1.1" xmlns="http://www.w3.org/2000/svg" width="24" height="24" viewBox="0 0 24 24">
<title>hourglass-16</title>
<path fill="#a7a8aa" d="M18.75 5.295v-3h1.5v-1.545h-16.5v1.5h1.5v3c-0 0.019-0 0.042-0 0.065 0 2.625 1.511 4.896 3.711 5.992l0.039 0.018 1.32 0.675-1.32 0.675c-2.23 1.116-3.734 3.382-3.735 6v3h-1.5v1.5h16.5v-1.5h-1.5v-3c-0.001-2.618-1.505-4.884-3.696-5.982l-0.039-0.018-1.35-0.675 1.32-0.675c2.239-1.113 3.75-3.385 3.75-6.009 0-0.007 0-0.014-0-0.022v0.001zM17.25 18.705v3h-10.5v-3c0-0.004-0-0.008-0-0.012 0-2.038 1.165-3.804 2.865-4.669l0.030-0.014 2.355-1.17 2.355 1.17c1.73 0.878 2.895 2.645 2.895 4.683 0 0.004 0 0.008-0 0.013v-0.001zM12 11.16l-2.355-1.17c-1.73-0.878-2.895-2.645-2.895-4.683 0-0.004 0-0.008 0-0.013v0.001-3h10.5v3c0 0.004 0 0.008 0 0.012 0 2.038-1.165 3.804-2.865 4.669l-0.030 0.014-2.355 1.17z"></path>
</svg>
