<!-- Generated by IcoMoon.io -->
<svg version="1.1" xmlns="http://www.w3.org/2000/svg" width="24" height="24" viewBox="0 0 24 24">
<title>humidity-24</title>
<path fill="#a7a8aa" d="M12 22.75c-4.278-0.006-7.744-3.472-7.75-7.749v-0.001c0-6.24 6.92-13.24 7.22-13.53 0.136-0.136 0.323-0.219 0.53-0.219s0.394 0.084 0.53 0.219v0c0.3 0.29 7.22 7.29 7.22 13.53-0.006 4.278-3.472 7.744-7.749 7.75h-0.001zM12 3.090c-1.6 1.75-6.25 7.23-6.25 11.91 0 3.452 2.798 6.25 6.25 6.25s6.25-2.798 6.25-6.25v0c0-4.68-4.65-10.16-6.25-11.91zM12 19.75v-1.5c1.793-0.006 3.244-1.457 3.25-3.249v-0.001h1.5c0 2.623-2.127 4.75-4.75 4.75v0z"></path>
</svg>
