<!-- Generated by IcoMoon.io -->
<svg version="1.1" xmlns="http://www.w3.org/2000/svg" width="24" height="24" viewBox="0 0 24 24">
<title>humidity-16</title>
<path fill="#a7a8aa" d="M12 23.25c-4.553-0.009-8.241-3.697-8.25-8.249v-0.001c0-7.005 7.5-13.77 7.755-14.055 0.13-0.119 0.304-0.192 0.495-0.192s0.365 0.073 0.496 0.192l-0.001-0.001c0.315 0.285 7.755 7.050 7.755 14.055-0.009 4.553-3.697 8.241-8.249 8.25h-0.001zM12 2.535c-1.635 1.635-6.75 7.125-6.75 12.465 0 3.728 3.022 6.75 6.75 6.75s6.75-3.022 6.75-6.75v0c0-5.355-5.1-10.83-6.75-12.465zM12 20.25v-1.5c2.071 0 3.75-1.679 3.75-3.75v0h1.5c0 2.899-2.351 5.25-5.25 5.25v0z"></path>
</svg>
