<!-- Generated by IcoMoon.io -->
<svg version="1.1" xmlns="http://www.w3.org/2000/svg" width="24" height="24" viewBox="0 0 24 24">
<title>humidity-12</title>
<path fill="#a7a8aa" d="M12 3.464c-1.724 1.916-6 7.114-6 11.536 0 3.308 2.692 6 6 6s6-2.692 6-6c0-4.422-4.276-9.62-6-11.536zM12 23c-4.412 0-8-3.588-8-8 0-6.34 6.996-13.41 7.292-13.706 0.181-0.181 0.431-0.294 0.708-0.294s0.527 0.112 0.708 0.294l0 0c0.296 0.296 7.292 7.366 7.292 13.706 0 4.412-3.588 8-8 8zM12 19v-2c1.104 0 2-0.898 2-2h2c0 2.206-1.794 4-4 4z"></path>
</svg>
