<!-- Generated by IcoMoon.io -->
<svg version="1.1" xmlns="http://www.w3.org/2000/svg" width="24" height="24" viewBox="0 0 24 24">
<title>info-outline-16</title>
<path fill="#a7a8aa" d="M11.25 11.25h1.5v4.5h-1.5zM11.25 8.25h1.5v1.5h-1.5zM12 23.25c-6.213 0-11.25-5.037-11.25-11.25s5.037-11.25 11.25-11.25v0c6.213 0 11.25 5.037 11.25 11.25s-5.037 11.25-11.25 11.25v0zM12 2.25c-5.385 0-9.75 4.365-9.75 9.75s4.365 9.75 9.75 9.75c5.385 0 9.75-4.365 9.75-9.75v0c-0.009-5.381-4.369-9.741-9.749-9.75h-0.001z"></path>
</svg>
