<!-- Generated by IcoMoon.io -->
<svg version="1.1" xmlns="http://www.w3.org/2000/svg" width="24" height="24" viewBox="0 0 24 24">
<title>key-12</title>
<path fill="#a7a8aa" d="M3 21h2v-1c0-0.552 0.448-1 1-1v0h1v-1c0-0.552 0.448-1 1-1v0h1.586l3.192-3.192c0.18-0.182 0.43-0.294 0.706-0.294 0.13 0 0.255 0.025 0.369 0.071l-0.007-0.002c4.044 1.564 8.154-1.56 8.154-5.582 0-3.308-2.692-6-6-6s-6 2.692-6 6c0 0.71 0.14 1.434 0.418 2.156 0.042 0.106 0.066 0.229 0.066 0.358 0 0.276-0.111 0.527-0.292 0.708l-7.192 7.192v2.586zM6 23h-4c-0.552 0-1-0.448-1-1v0-4c0-0.266 0.106-0.52 0.292-0.708l7.046-7.044c-0.212-0.672-0.335-1.445-0.338-2.247v-0.001c0-4.412 3.588-8 8-8s8 3.588 8 8-3.588 8-8 8c-0.75 0-1.504-0.114-2.25-0.336l-3.042 3.044c-0.182 0.18-0.432 0.292-0.708 0.292h-1v1c0 0.552-0.448 1-1 1v0h-1v1c0 0.552-0.448 1-1 1v0zM19 6.5c0 0.828-0.672 1.5-1.5 1.5s-1.5-0.672-1.5-1.5v0c0-0.828 0.672-1.5 1.5-1.5s1.5 0.672 1.5 1.5v0z"></path>
</svg>
