<!-- Generated by IcoMoon.io -->
<svg version="1.1" xmlns="http://www.w3.org/2000/svg" width="24" height="24" viewBox="0 0 24 24">
<title>key-24</title>
<path fill="#a7a8aa" d="M2.75 21.25h2.5v-1.25c0-0.414 0.336-0.75 0.75-0.75v0h1.25v-2.25c0-0.414 0.336-0.75 0.75-0.75v0h2.689l2.147-2.146c0.136-0.136 0.324-0.219 0.531-0.219 0.088 0 0.173 0.015 0.251 0.043l-0.005-0.002c0.562 0.204 1.21 0.323 1.886 0.324h0.001c3.171 0 5.75-2.58 5.75-5.75s-2.579-5.75-5.75-5.75c-3.174 0.004-5.746 2.576-5.75 5.75v0c0 0.635 0.109 1.27 0.324 1.887 0.027 0.074 0.042 0.159 0.042 0.247 0 0.207-0.084 0.395-0.22 0.531v0l-7.146 7.146v2.939zM6 22.75h-4c-0.414 0-0.75-0.336-0.75-0.75v0-4c0-0.199 0.079-0.39 0.22-0.53l7.045-7.045c-0.168-0.577-0.264-1.239-0.265-1.925v-0c0-3.998 3.252-7.25 7.25-7.25s7.25 3.252 7.25 7.25-3.252 7.25-7.25 7.25c-0.685-0.001-1.347-0.097-1.975-0.277l0.051 0.012-2.046 2.045c-0.135 0.136-0.323 0.22-0.529 0.22-0 0-0 0-0.001 0h-2.25v2.25c0 0.414-0.336 0.75-0.75 0.75v0h-1.25v1.25c0 0.414-0.336 0.75-0.75 0.75v0zM17 5.75c-0.689 0-1.25 0.561-1.25 1.25s0.561 1.25 1.25 1.25 1.25-0.561 1.25-1.25-0.561-1.25-1.25-1.25zM17 9.75c-1.518-0.001-2.749-1.232-2.75-2.75v-0c0.001-1.518 1.232-2.749 2.75-2.75h0c1.518 0.001 2.749 1.232 2.75 2.75v0c-0.001 1.518-1.232 2.749-2.75 2.75h-0z"></path>
</svg>
