<!-- Generated by IcoMoon.io -->
<svg version="1.1" xmlns="http://www.w3.org/2000/svg" width="24" height="24" viewBox="0 0 24 24">
<title>key-16</title>
<path fill="#a7a8aa" d="M2.25 21.75h3v-2.25c0-0.414 0.336-0.75 0.75-0.75v0h2.25v-2.25c0.003-0.415 0.339-0.75 0.754-0.75 0.001 0 0.001 0 0.002 0h-0l2.663 0.020 1.616-1.616c0.136-0.136 0.323-0.22 0.53-0.22 0.077 0 0.152 0.012 0.222 0.033l-0.005-0.001c0.512 0.171 1.102 0.274 1.715 0.283l0.004 0c3.309 0 6-2.691 6-6s-2.691-6-6-6-6 2.691-6 6c0 0.531 0.090 1.077 0.282 1.718 0.020 0.065 0.032 0.14 0.032 0.217 0 0.207-0.084 0.394-0.22 0.53v0l-7.595 7.596v3.439zM6 23.25h-4.5c-0.414 0-0.75-0.336-0.75-0.75v0-4.5c0-0.2 0.080-0.39 0.219-0.531l7.506-7.506c-0.138-0.513-0.22-1.102-0.225-1.71l-0-0.003c0-4.136 3.364-7.5 7.5-7.5s7.5 3.365 7.5 7.5-3.364 7.5-7.5 7.5c-0.543 0-1.107-0.073-1.715-0.226l-1.527 1.528c-0.136 0.136-0.324 0.22-0.531 0.221h-0.006l-2.222-0.017v2.244c0 0.414-0.336 0.75-0.75 0.75v0h-2.25v2.25c0 0.414-0.336 0.75-0.75 0.75v0zM16.5 6c-0.8 0.037-1.434 0.694-1.434 1.5s0.635 1.463 1.431 1.5l0.003 0c0.8-0.037 1.434-0.694 1.434-1.5s-0.635-1.463-1.431-1.5l-0.003-0zM16.5 10.5c-1.654 0-3-1.346-3-3s1.346-3 3-3 3 1.346 3 3-1.346 3-3 3z"></path>
</svg>
