<!-- Generated by IcoMoon.io -->
<svg version="1.1" xmlns="http://www.w3.org/2000/svg" width="24" height="24" viewBox="0 0 24 24">
<title>lifetime-24</title>
<path fill="#a7a8aa" d="M22 8.25c0.412 0.006 0.744 0.338 0.75 0.749v6.001c-0.006 0.412-0.338 0.744-0.749 0.75h-2.251v1.25c-0.006 0.412-0.338 0.744-0.749 0.75h-17.001c-0.412-0.006-0.744-0.338-0.75-0.749v-10.001c0.006-0.412 0.338-0.744 0.749-0.75h17.001c0.412 0.006 0.744 0.338 0.75 0.749v1.251zM18.25 16.25v-8.5h-15.5v8.5zM21.25 14.25v-4.5h-1.5v4.5zM10.63 15.75l0.26-2.62h-2.89l3.38-4.88-0.27 2.63h2.89z"></path>
</svg>
