<!-- Generated by IcoMoon.io -->
<svg version="1.1" xmlns="http://www.w3.org/2000/svg" width="24" height="24" viewBox="0 0 24 24">
<title>lifetime-16</title>
<path fill="#a7a8aa" d="M22.5 8.25c0.414 0 0.75 0.336 0.75 0.75v0 6c0 0.414-0.336 0.75-0.75 0.75v0h-2.25v1.5c0 0.414-0.336 0.75-0.75 0.75v0h-18c-0.414 0-0.75-0.336-0.75-0.75v0-10.5c0-0.414 0.336-0.75 0.75-0.75v0h18c0.414 0 0.75 0.336 0.75 0.75v0 1.5zM18.75 16.5v-9h-16.5v9zM21.75 14.25v-4.5h-1.5v4.5zM10.875 8.25l-0.255 2.625h2.88l-3.375 4.875 0.255-2.625h-2.88z"></path>
</svg>
