<!-- Generated by IcoMoon.io -->
<svg version="1.1" xmlns="http://www.w3.org/2000/svg" width="24" height="24" viewBox="0 0 24 24">
<title>light-24</title>
<path fill="#a7a8aa" d="M16.48 4c-1.192-1.081-2.782-1.743-4.527-1.743-0.269 0-0.534 0.016-0.795 0.046l0.032-0.003c-2.986 0.392-5.344 2.668-5.854 5.579l-0.006 0.041c-0.054 0.322-0.085 0.692-0.085 1.070 0 2.273 1.123 4.283 2.844 5.506l0.021 0.014c0.077 0.051 0.13 0.133 0.14 0.229l0 0.001v3.26c0 2.071 1.679 3.75 3.75 3.75s3.75-1.679 3.75-3.75v0-3.27c0.013-0.093 0.065-0.171 0.139-0.219l0.001-0.001c1.726-1.235 2.837-3.233 2.837-5.49 0-1.992-0.866-3.782-2.241-5.014l-0.006-0.006zM12 20.25c-1.243 0-2.25-1.007-2.25-2.25v0-1.25h4.5v1.25c0 1.243-1.007 2.25-2.25 2.25v0zM15 13.25c-0.461 0.321-0.761 0.844-0.77 1.439l-0 0.001v0.52h-4.48v-0.51c-0.014-0.584-0.304-1.097-0.745-1.416l-0.005-0.004c-1.365-0.957-2.247-2.523-2.247-4.296 0-0.295 0.024-0.583 0.071-0.865l-0.004 0.031c0.397-2.29 2.224-4.057 4.513-4.357l0.027-0.003c0.097-0.007 0.211-0.011 0.325-0.011s0.228 0.004 0.34 0.012l-0.015-0.001c2.881 0.006 5.217 2.331 5.24 5.208l0 0.002c-0.008 1.769-0.889 3.331-2.233 4.279l-0.017 0.011v-0.040z"></path>
</svg>
