<!-- Generated by IcoMoon.io -->
<svg version="1.1" xmlns="http://www.w3.org/2000/svg" width="24" height="24" viewBox="0 0 24 24">
<title>light-12</title>
<path fill="#a7a8aa" d="M15.984 13.474c-0.432 0.396-0.743 0.918-0.876 1.506l-0.004 0.020h-6.196c-0.134-0.603-0.444-1.12-0.872-1.508l-0.002-0.002c-1.252-1.102-2.038-2.709-2.038-4.498 0-0.469 0.054-0.924 0.156-1.362l-0.008 0.040c0.509-2.23 2.215-3.961 4.391-4.497l0.041-0.009c0.424-0.102 0.91-0.16 1.41-0.16h0c1.366 0 2.68 0.448 3.752 1.304 1.382 1.107 2.259 2.794 2.259 4.686 0 1.779-0.776 3.377-2.007 4.474l-0.006 0.005zM13.94 20.286c-0.68 0.58-1.55 0.82-2.452 0.672-1.42-0.23-2.49-1.594-2.49-3.172v-0.786h6v1c0 0.88-0.386 1.716-1.060 2.286zM16.984 2.744c-1.36-1.087-3.105-1.745-5.004-1.745-0.656 0-1.293 0.078-1.903 0.226l0.055-0.011c-2.926 0.666-5.314 3.092-5.944 6.038-0.622 2.904 0.32 5.796 2.524 7.738 0.179 0.181 0.289 0.429 0.289 0.703 0 0.016-0 0.033-0.001 0.049l0-0.002v2.046c0 2.548 1.792 4.76 4.168 5.146 0.25 0.044 0.538 0.070 0.832 0.070 2.761 0 5-2.239 5-5 0-0.001 0-0.001 0-0.002v0-2.214c-0.001-0.015-0.001-0.032-0.001-0.049 0-0.3 0.12-0.572 0.315-0.771l-0 0c1.649-1.47 2.683-3.601 2.683-5.973 0-2.523-1.169-4.773-2.995-6.237l-0.016-0.012z"></path>
</svg>
