<!-- Generated by IcoMoon.io -->
<svg version="1.1" xmlns="http://www.w3.org/2000/svg" width="24" height="24" viewBox="0 0 24 24">
<title>light-16</title>
<path fill="#a7a8aa" d="M16.725 3.18c-1.286-1.041-2.942-1.671-4.746-1.671-0.567 0-1.119 0.062-1.65 0.18l0.050-0.009c-3.371 0.782-5.845 3.76-5.845 7.315 0 2.623 1.347 4.932 3.387 6.272l0.028 0.018c0.183 0.138 0.3 0.356 0.3 0.6 0 0.005-0 0.010-0 0.016l0-0.001v2.85c0 2.071 1.679 3.75 3.75 3.75s3.75-1.679 3.75-3.75v0-2.835c-0-0.009-0.001-0.019-0.001-0.030 0-0.245 0.117-0.462 0.299-0.599l0.002-0.001c2.076-1.357 3.428-3.67 3.428-6.298 0-2.335-1.067-4.421-2.74-5.796l-0.013-0.010zM12 21c-1.243 0-2.25-1.007-2.25-2.25v0-1.5h4.5v1.5c0 1.243-1.007 2.25-2.25 2.25v0zM15.24 14.025c-0.571 0.375-0.949 1.003-0.975 1.721l-0 0.004h-4.5c-0.026-0.722-0.404-1.35-0.967-1.72l-0.008-0.005c-1.664-1.085-2.749-2.937-2.749-5.043 0-2.836 1.968-5.213 4.613-5.839l0.041-0.008c0.387-0.089 0.832-0.14 1.289-0.14 3.314 0 6 2.686 6 6 0 2.097-1.076 3.944-2.707 5.016l-0.023 0.014h-0.015z"></path>
</svg>
