<!-- Generated by IcoMoon.io -->
<svg version="1.1" xmlns="http://www.w3.org/2000/svg" width="24" height="24" viewBox="0 0 24 24">
<title>live-16</title>
<path fill="#a7a8aa" d="M4.050 19.95c-2.040-2.032-3.303-4.844-3.303-7.95s1.262-5.918 3.302-7.95l0-0 1.050 1.050c-1.761 1.768-2.849 4.207-2.849 6.9s1.088 5.132 2.849 6.9l-0-0zM19.95 19.95l-1.050-1.050c1.761-1.768 2.849-4.207 2.849-6.9s-1.088-5.132-2.849-6.9l0 0 1.050-1.050c2.040 2.032 3.303 4.844 3.303 7.95s-1.262 5.918-3.302 7.95l-0 0zM7.23 16.77c-1.223-1.22-1.98-2.906-1.98-4.77s0.757-3.55 1.98-4.77l0-0 1.065 1.050c-0.969 0.955-1.569 2.283-1.569 3.75s0.6 2.795 1.569 3.749l0.001 0.001zM16.77 16.77l-1.065-1.050c0.969-0.955 1.569-2.283 1.569-3.75s-0.6-2.795-1.569-3.749l-0.001-0.001 1.065-1.050c1.241 1.222 2.011 2.921 2.011 4.8s-0.769 3.578-2.010 4.799l-0.001 0.001zM12 14.25c-1.243 0-2.25-1.007-2.25-2.25s1.007-2.25 2.25-2.25v0c1.243 0 2.25 1.007 2.25 2.25s-1.007 2.25-2.25 2.25v0z"></path>
</svg>
