<!-- Generated by IcoMoon.io -->
<svg version="1.1" xmlns="http://www.w3.org/2000/svg" width="24" height="24" viewBox="0 0 24 24">
<title>live-12</title>
<path fill="#a7a8aa" d="M4.22 19.78c-1.992-1.991-3.224-4.742-3.224-7.78s1.232-5.789 3.224-7.78l0-0 1.42 1.42c-1.631 1.626-2.64 3.875-2.64 6.36s1.009 4.734 2.64 6.36l0 0zM19.78 19.78l-1.42-1.42c1.631-1.626 2.64-3.875 2.64-6.36s-1.009-4.734-2.64-6.36l-0-0 1.42-1.42c1.992 1.991 3.224 4.742 3.224 7.78s-1.232 5.789-3.224 7.78l-0 0zM12 14c-1.105 0-2-0.895-2-2s0.895-2 2-2v0c1.105 0 2 0.895 2 2s-0.895 2-2 2v0zM7.4 16.6c-1.174-1.179-1.899-2.805-1.899-4.6s0.726-3.421 1.9-4.6l-0 0 1.42 1.42c-0.813 0.814-1.316 1.938-1.316 3.18s0.503 2.366 1.316 3.18l-0-0zM16.6 16.6l-1.42-1.42c0.813-0.814 1.316-1.938 1.316-3.18s-0.503-2.366-1.316-3.18l0 0 1.42-1.42c1.174 1.179 1.899 2.805 1.899 4.6s-0.726 3.421-1.9 4.6l0-0z"></path>
</svg>
