<!-- Generated by IcoMoon.io -->
<svg version="1.1" xmlns="http://www.w3.org/2000/svg" width="24" height="24" viewBox="0 0 24 24">
<title>live-24</title>
<path fill="#a7a8aa" d="M12 14c-1.105 0-2-0.895-2-2s0.895-2 2-2v0c1.105 0 2 0.895 2 2s-0.895 2-2 2v0zM4.4 19.6c-1.947-1.944-3.151-4.631-3.151-7.6s1.204-5.656 3.151-7.6l0-0 1.060 1.060c-1.673 1.674-2.709 3.986-2.709 6.54s1.035 4.866 2.709 6.54l-0-0zM19.6 19.6l-1.060-1.060c1.673-1.674 2.709-3.986 2.709-6.54s-1.035-4.866-2.709-6.54l0 0 1.060-1.060c1.947 1.944 3.151 4.631 3.151 7.6s-1.204 5.656-3.151 7.6l-0 0zM16.77 16.77l-1.060-1.060c0.951-0.949 1.54-2.261 1.54-3.71s-0.588-2.761-1.539-3.71l-0-0 1.060-1.060c1.222 1.22 1.978 2.907 1.978 4.77s-0.756 3.55-1.978 4.77l-0 0zM7.23 16.77c-1.222-1.22-1.978-2.907-1.978-4.77s0.756-3.55 1.978-4.77l0-0 1.060 1.060c-0.951 0.949-1.54 2.261-1.54 3.71s0.588 2.761 1.539 3.71l0 0z"></path>
</svg>
