<!-- Generated by IcoMoon.io -->
<svg version="1.1" xmlns="http://www.w3.org/2000/svg" width="24" height="24" viewBox="0 0 24 24">
<title>location-24</title>
<path fill="#a7a8aa" d="M12 1.25c4.278 0.006 7.744 3.472 7.75 7.749v0.001c0 6.24-6.92 13.24-7.22 13.53-0.136 0.136-0.323 0.219-0.53 0.219s-0.394-0.084-0.53-0.219v0c-0.3-0.29-7.22-7.29-7.22-13.53 0.006-4.278 3.472-7.744 7.749-7.75h0.001zM12 20.91c1.6-1.75 6.25-7.23 6.25-11.91 0-3.452-2.798-6.25-6.25-6.25s-6.25 2.798-6.25 6.25v0c0 4.68 4.65 10.16 6.25 11.91zM12 5.25c2.071 0 3.75 1.679 3.75 3.75s-1.679 3.75-3.75 3.75v0c-2.071 0-3.75-1.679-3.75-3.75s1.679-3.75 3.75-3.75v0zM12 11.25c1.243 0 2.25-1.007 2.25-2.25s-1.007-2.25-2.25-2.25v0c-1.243 0-2.25 1.007-2.25 2.25s1.007 2.25 2.25 2.25v0z"></path>
</svg>
