<!-- Generated by IcoMoon.io -->
<svg version="1.1" xmlns="http://www.w3.org/2000/svg" width="24" height="24" viewBox="0 0 24 24">
<title>location-16</title>
<path fill="#a7a8aa" d="M12 23.25c-0.004 0-0.009 0-0.014 0-0.187 0-0.357-0.074-0.481-0.195l0 0c-0.315-0.285-7.755-7.050-7.755-14.055 0-4.556 3.694-8.25 8.25-8.25s8.25 3.694 8.25 8.25v0c0 7.005-7.5 13.77-7.755 14.055-0.124 0.121-0.294 0.195-0.481 0.195-0.005 0-0.010-0-0.015-0l0.001 0zM12 2.25c-3.725 0.009-6.741 3.026-6.75 6.749v0.001c0 5.355 5.1 10.83 6.75 12.465 1.635-1.635 6.75-7.125 6.75-12.465-0.009-3.724-3.025-6.741-6.749-6.75h-0.001zM12 12.75c-2.071 0-3.75-1.679-3.75-3.75s1.679-3.75 3.75-3.75v0c2.071 0 3.75 1.679 3.75 3.75s-1.679 3.75-3.75 3.75v0zM12 6.75c-1.243 0-2.25 1.007-2.25 2.25s1.007 2.25 2.25 2.25v0c1.243 0 2.25-1.007 2.25-2.25s-1.007-2.25-2.25-2.25v0z"></path>
</svg>
