<!-- Generated by IcoMoon.io -->
<svg version="1.1" xmlns="http://www.w3.org/2000/svg" width="24" height="24" viewBox="0 0 24 24">
<title>location-12</title>
<path fill="#a7a8aa" d="M12 23.42l-0.7-0.72c-0.3-0.3-7.3-7.36-7.3-13.7 0-4.418 3.582-8 8-8s8 3.582 8 8v0c0 6.34-7 13.4-7.3 13.7l-0.7 0.72zM12 3c-3.314 0-6 2.686-6 6v0c0 4.42 4.28 9.62 6 11.54 1.72-2 6-7.12 6-11.54 0-3.314-2.686-6-6-6v0zM12 13c-2.209 0-4-1.791-4-4s1.791-4 4-4v0c2.209 0 4 1.791 4 4s-1.791 4-4 4v0zM12 7c-1.105 0-2 0.895-2 2s0.895 2 2 2v0c1.105 0 2-0.895 2-2s-0.895-2-2-2v0z"></path>
</svg>
