<!-- Generated by IcoMoon.io -->
<svg version="1.1" xmlns="http://www.w3.org/2000/svg" width="24" height="24" viewBox="0 0 24 24">
<title>locked-24</title>
<path fill="#a7a8aa" d="M19 11.25h-1.25v-4.25c0-3.176-2.574-5.75-5.75-5.75s-5.75 2.574-5.75 5.75v0 4.25h-1.25c-0.412 0.006-0.744 0.338-0.75 0.749v10.001c0.006 0.412 0.338 0.744 0.749 0.75h14.001c0.412-0.006 0.744-0.338 0.75-0.749v-10.001c-0.006-0.412-0.338-0.744-0.749-0.75h-0.001zM7.75 7c0-2.347 1.903-4.25 4.25-4.25s4.25 1.903 4.25 4.25v0 4.25h-8.5v-4.25zM18.25 21.25h-12.5v-8.5h12.5v8.5z"></path>
</svg>
