<!-- Generated by IcoMoon.io -->
<svg version="1.1" xmlns="http://www.w3.org/2000/svg" width="24" height="24" viewBox="0 0 24 24">
<title>logo-12</title>
<path fill="#a7a8aa" d="M17.528 10.648c0.295 0.177 0.49 0.496 0.49 0.86 0 0.001 0 0.001 0 0.002v-0 2.912c0 0.001 0 0.002 0 0.002 0 0.352-0.182 0.661-0.456 0.839l-0.004 0.002-1.458 0.926v2.418c0 0.552-0.448 1-1 1s-1-0.448-1-1v0-2.966c0-0.353 0.183-0.664 0.46-0.842l0.004-0.002 1.454-0.926v-1.792l-1.472-0.866c-0.294-0.176-0.489-0.493-0.49-0.856v-0l-0.024-3.534c0-0.001 0-0.003 0-0.004 0-0.368 0.199-0.69 0.495-0.863l0.005-0.003 1.404-0.816c0.131-0.067 0.285-0.106 0.449-0.106 0.553 0 1.002 0.449 1.002 1.002 0 0.347-0.176 0.652-0.443 0.832l-0.004 0.002-0.902 0.524 0.012 2.386 1.478 0.868zM7.948 12.082v1.792l1.456 0.926c0.278 0.181 0.46 0.49 0.46 0.842 0 0.001 0 0.002 0 0.002v-0 2.966c0 0.552-0.448 1-1 1s-1-0.448-1-1v0-2.418l-1.456-0.926c-0.278-0.181-0.46-0.49-0.46-0.842 0-0.001 0-0.002 0-0.002v0-2.912c0-0.001 0-0.001 0-0.002 0-0.364 0.195-0.683 0.485-0.858l0.005-0.003 1.478-0.868 0.012-2.386-0.902-0.524c-0.271-0.182-0.447-0.488-0.447-0.834 0-0.553 0.449-1.002 1.002-1.002 0.164 0 0.318 0.039 0.455 0.109l-0.006-0.003 1.406 0.816c0.3 0.176 0.498 0.497 0.498 0.865 0 0.002 0 0.004-0 0.005v-0l-0.022 3.534c-0.002 0.363-0.198 0.68-0.489 0.853l-0.005 0.003-1.47 0.866zM21.108 13.824l-2.062 1.262c-0.29 0.178-0.48 0.493-0.48 0.853 0 0 0 0.001 0 0.001v-0 3.21l-4.050 2.37-1.516-0.854v-17.332l1.516-0.854 4.052 2.37v2.232c0 0 0 0.001 0 0.001 0 0.359 0.189 0.674 0.474 0.85l0.004 0.002 2.064 1.26v4.628zM9.486 21.52l-4.054-2.37v-3.21c0-0 0-0.001 0-0.001 0-0.359-0.189-0.674-0.474-0.85l-0.004-0.002-2.062-1.262v-4.628l2.064-1.26c0.288-0.18 0.476-0.495 0.476-0.854 0-0 0-0 0-0v0-2.232l4.052-2.37 1.516 0.854v17.332l-1.516 0.854zM22.634 7.782l-2.066-1.26v-2.246c0-0 0-0.001 0-0.001 0-0.366-0.196-0.686-0.489-0.86l-0.005-0.003-5.042-2.948c-0.145-0.086-0.319-0.137-0.505-0.137-0.18 0-0.35 0.048-0.496 0.131l0.005-0.003-2.036 1.146-2.036-1.146c-0.141-0.081-0.311-0.129-0.491-0.129-0.186 0-0.36 0.051-0.51 0.139l0.005-0.003-5.040 2.948c-0.299 0.177-0.496 0.497-0.496 0.864 0 0 0 0 0 0v-0 2.246l-2.064 1.26c-0.289 0.178-0.478 0.493-0.478 0.852 0 0.001 0 0.002 0 0.002v-0 5.75c0 0.348 0.18 0.672 0.48 0.852l2.062 1.262v3.224c0 0.356 0.192 0.684 0.496 0.864l5.042 2.948c0.304 0.18 0.684 0.182 0.994 0.008l2.036-1.146 2.036 1.146c0.141 0.082 0.31 0.13 0.49 0.13 0.186 0 0.36-0.051 0.508-0.14l-0.005 0.003 5.040-2.948c0.299-0.177 0.496-0.497 0.496-0.864 0-0 0-0 0-0v0-3.224l2.066-1.262c0.288-0.179 0.478-0.493 0.478-0.852v-5.75c-0-0.36-0.19-0.675-0.476-0.852l-0.004-0.002z"></path>
</svg>
