<!-- Generated by IcoMoon.io -->
<svg version="1.1" xmlns="http://www.w3.org/2000/svg" width="24" height="24" viewBox="0 0 24 24">
<title>logo-16</title>
<path fill="#a7a8aa" d="M17.424 10.863c0.228 0.135 0.369 0.381 0.369 0.646v2.916c0 0.27-0.145 0.518-0.378 0.653l-2.227 1.269v2.535c0 0.414-0.336 0.75-0.75 0.75s-0.75-0.336-0.75-0.75v0-2.97c0-0 0-0.001 0-0.001 0-0.277 0.151-0.52 0.374-0.649l0.004-0.002 2.227-1.27v-2.049l-2.124-1.248c-0.222-0.133-0.368-0.372-0.369-0.645v-2.937c0-0 0-0.001 0-0.001 0-0.276 0.149-0.516 0.37-0.647l0.004-0.002 2.495-1.447c0.108-0.064 0.238-0.101 0.376-0.101 0.414 0 0.75 0.336 0.75 0.75 0 0.276-0.149 0.516-0.37 0.647l-0.004 0.002-2.121 1.231v2.073l2.124 1.25zM10.188 15.91v2.971c0 0.414-0.336 0.75-0.75 0.75s-0.75-0.336-0.75-0.75v0-2.546l-2.13-1.266c-0.221-0.133-0.366-0.372-0.366-0.644 0-0 0-0.001 0-0.001v0-2.916c0-0.265 0.139-0.51 0.37-0.645l2.124-1.251v-2.069l-2.123-1.233c-0.225-0.132-0.374-0.373-0.374-0.649 0-0.414 0.336-0.75 0.75-0.75 0.139 0 0.269 0.038 0.38 0.103l-0.004-0.002 2.496 1.447c0.225 0.132 0.373 0.373 0.373 0.649 0 0 0 0.001 0 0.001v-0 2.934c-0 0.274-0.147 0.514-0.367 0.645l-0.003 0.002-2.124 1.248v2.061l2.13 1.268c0.221 0.133 0.366 0.372 0.366 0.644 0 0 0 0.001 0 0.001v-0zM19.183 15.303c-0.216 0.134-0.358 0.37-0.358 0.639 0 0.001 0 0.001 0 0.002v-0 3.357l-1.015 0.594v-1.372c0-0.414-0.336-0.75-0.75-0.75s-0.75 0.336-0.75 0.75v0 2.25l-1.79 1.045-1.77-0.997v-17.64l1.77-0.999 4.305 2.517v2.379c0 0 0 0.001 0 0.001 0 0.269 0.142 0.506 0.355 0.638l0.003 0.002 2.184 1.335v1.707h-1.985c-0.414 0-0.75 0.336-0.75 0.75s0.336 0.75 0.75 0.75h1.985v1.71l-2.184 1.335zM9.479 21.817l-1.787-1.045v-2.25c0-0.414-0.336-0.75-0.75-0.75s-0.75 0.336-0.75 0.75v0 1.374l-1.017-0.596v-3.355c0-0 0-0.001 0-0.001 0-0.269-0.142-0.506-0.355-0.638l-0.003-0.002-2.184-1.335v-1.71h1.985c0.414 0 0.75-0.336 0.75-0.75s-0.336-0.75-0.75-0.75v0h-1.985v-1.707l2.184-1.335c0.216-0.135 0.358-0.371 0.359-0.64v-2.379l4.303-2.517 1.772 0.999v17.64l-1.772 0.997zM22.509 7.992l-2.184-1.335v-2.388c0-0 0-0.001 0-0.001 0-0.274-0.147-0.514-0.367-0.645l-0.003-0.002-5.048-2.952c-0.108-0.065-0.239-0.103-0.379-0.103-0.135 0-0.262 0.036-0.372 0.099l0.004-0.002-2.16 1.218-2.162-1.218c-0.106-0.061-0.233-0.097-0.368-0.097-0.14 0-0.27 0.038-0.382 0.105l0.003-0.002-5.046 2.952c-0.223 0.133-0.37 0.373-0.37 0.647 0 0 0 0.001 0 0.001v-0 2.388l-2.184 1.335c-0.216 0.134-0.359 0.37-0.359 0.639 0 0.001 0 0.001 0 0.002v-0 5.755c0 0 0 0.001 0 0.001 0 0.269 0.142 0.506 0.355 0.638l0.003 0.002 2.184 1.335v3.367c0 0 0 0.001 0 0.001 0 0.274 0.147 0.514 0.367 0.645l0.003 0.002 5.046 2.952c0.108 0.064 0.238 0.102 0.377 0.102 0.136 0 0.263-0.036 0.373-0.099l-0.004 0.002 2.162-1.215 2.16 1.215c0.106 0.062 0.234 0.098 0.37 0.098 0.139 0 0.269-0.038 0.381-0.105l-0.003 0.002 5.048-2.952c0.223-0.133 0.37-0.373 0.37-0.647 0-0 0-0.001 0-0.001v0-3.366l2.184-1.335c0.216-0.135 0.358-0.371 0.358-0.64v-5.757c0-0 0-0.001 0-0.001 0-0.269-0.142-0.506-0.355-0.638l-0.003-0.002z"></path>
</svg>
