<!-- Generated by IcoMoon.io -->
<svg version="1.1" xmlns="http://www.w3.org/2000/svg" width="24" height="24" viewBox="0 0 24 24">
<title>logo-24</title>
<path fill="#a7a8aa" d="M17.394 10.907c0.167 0.099 0.277 0.279 0.278 0.484v2.99c0 0.198-0.104 0.383-0.274 0.484l-2.284 1.36v2.727c0 0.311-0.252 0.563-0.563 0.563s-0.563-0.252-0.563-0.563v0-3.047c0-0 0-0 0-0.001 0-0.204 0.109-0.383 0.272-0.482l0.003-0.001 2.284-1.36v-2.348l-2.28-1.342c-0.167-0.099-0.277-0.279-0.277-0.484v-3.008c0-0.201 0.106-0.385 0.279-0.486l2.559-1.485c0.078-0.043 0.17-0.068 0.269-0.068 0.311 0 0.563 0.252 0.563 0.563 0 0.201-0.105 0.377-0.263 0.476l-2.282 1.324v2.364l2.281 1.342zM7.311 11.713v2.349l2.284 1.36c0.166 0.1 0.274 0.279 0.274 0.483 0 0 0 0 0 0.001v-0 3.047c0 0.311-0.252 0.563-0.563 0.563s-0.563-0.252-0.563-0.563v0-2.727l-2.284-1.36c-0.166-0.1-0.274-0.279-0.274-0.483 0-0 0-0.001 0-0.001v0-2.99c0-0.198 0.105-0.383 0.277-0.485l2.281-1.341v-2.364l-2.279-1.323c-0.181-0.096-0.301-0.283-0.301-0.498 0-0.311 0.252-0.563 0.563-0.563 0.113 0 0.218 0.033 0.307 0.091l-0.002-0.001 2.559 1.485c0.173 0.1 0.28 0.285 0.28 0.486v3.010c-0 0.205-0.11 0.385-0.275 0.483l-0.003 0.001-2.28 1.341zM19.411 15.457c-0.162 0.101-0.268 0.278-0.268 0.48v3.563l-1.455 0.851v-1.163c0.265-0.183 0.45-0.472 0.45-0.82 0-0.559-0.453-1.012-1.013-1.012s-1.013 0.453-1.013 1.012v0c0 0.346 0.184 0.638 0.45 0.82v1.821l-2.038 1.192-2.025-1.141v-18.333l2.025-1.142 4.619 2.702v2.558c0 0.195 0.102 0.377 0.268 0.48l2.341 1.43v2.073h-1.223c-0.183-0.265-0.474-0.45-0.82-0.45-0.56 0-1.013 0.454-1.013 1.013s0.454 1.013 1.013 1.013v0c0.346 0 0.637-0.185 0.82-0.451h1.223v2.074l-2.34 1.43zM9.348 22.201l-2.037-1.191v-1.821c0.265-0.183 0.45-0.473 0.45-0.82 0-0.559-0.453-1.013-1.013-1.013s-1.013 0.453-1.013 1.013v0c0 0.346 0.185 0.637 0.45 0.82v1.163l-1.457-0.851v-3.561c0-0 0-0 0-0 0-0.202-0.106-0.379-0.266-0.478l-0.002-0.001-2.34-1.43v-2.074h1.425c0.181 0.266 0.473 0.45 0.818 0.45 0.543-0.022 0.974-0.467 0.974-1.012s-0.432-0.991-0.972-1.012l-0.002-0c-0.345 0-0.637 0.185-0.819 0.45h-1.424v-2.074l2.34-1.43c0.162-0.101 0.268-0.278 0.268-0.48 0-0 0-0 0-0v0-2.557l4.619-2.702 2.026 1.141v18.334l-2.025 1.141zM22.608 7.96l-2.34-1.431v-2.565c-0.001-0.206-0.111-0.386-0.276-0.484l-0.003-0.001-5.175-3.028c-0.081-0.048-0.179-0.077-0.284-0.077-0.102 0-0.198 0.027-0.28 0.075l0.003-0.001-2.317 1.305-2.317-1.305c-0.079-0.046-0.175-0.072-0.276-0.072-0.105 0-0.203 0.029-0.287 0.078l0.003-0.001-5.176 3.027c-0.167 0.1-0.277 0.28-0.277 0.486 0 0 0 0 0 0.001v-0 2.565l-2.34 1.43c-0.163 0.101-0.269 0.278-0.269 0.48v0 5.904c0 0 0 0 0 0 0 0.202 0.106 0.379 0.266 0.478l0.002 0.001 2.34 1.43v3.57c0 0.206 0.111 0.385 0.276 0.483l0.003 0.001 5.176 3.028c0.081 0.048 0.179 0.077 0.284 0.077 0.102 0 0.197-0.027 0.279-0.074l-0.003 0.001 2.317-1.305 2.316 1.305c0.079 0.046 0.175 0.073 0.276 0.073 0.105 0 0.203-0.029 0.287-0.079l-0.003 0.001 5.176-3.028c0.167-0.1 0.278-0.279 0.278-0.484v-3.57l2.34-1.43c0.163-0.1 0.27-0.278 0.27-0.48v-5.903c-0-0.202-0.107-0.38-0.268-0.479l-0.002-0.001z"></path>
</svg>
