<!-- Generated by IcoMoon.io -->
<svg version="1.1" xmlns="http://www.w3.org/2000/svg" width="24" height="24" viewBox="0 0 24 24">
<title>maintenance-24</title>
<path fill="#a7a8aa" d="M15.18 2.76c-0.52 0.030-1.037 0.131-1.547 0.305-1.797 0.64-3.162 2.090-3.672 3.899l-0.010 0.041c-0.128 0.448-0.201 0.962-0.201 1.494 0 0.677 0.119 1.326 0.338 1.928l-0.012-0.039c0.026 0.073 0.041 0.158 0.041 0.246 0 0.207-0.084 0.395-0.219 0.531l-6.367 6.366c-0.344 0.37-0.555 0.868-0.555 1.415 0 1.149 0.931 2.080 2.080 2.080 0.547 0 1.044-0.211 1.416-0.556l-0.001 0.001 6.366-6.366c0.136-0.136 0.323-0.22 0.531-0.22 0.088 0 0.173 0.015 0.252 0.043l-0.005-0.002c0.562 0.206 1.211 0.325 1.888 0.325 0.53 0 1.043-0.073 1.529-0.209l-0.040 0.010c1.851-0.519 3.303-1.884 3.931-3.642l0.013-0.040c0.163-0.456 0.273-0.984 0.306-1.533l0.001-0.016-2.71 2.71c-0.136 0.136-0.323 0.219-0.53 0.219-0.064 0-0.127-0.008-0.187-0.023l0.005 0.001-4-1c-0.269-0.069-0.477-0.276-0.545-0.54l-0.001-0.005-1-4c-0.014-0.055-0.023-0.118-0.023-0.182 0-0.207 0.084-0.395 0.22-0.531v0l2.71-2.71zM5 22.577c-0.003 0-0.006 0-0.010 0-0.985 0-1.876-0.401-2.52-1.048l-0-0c-0.647-0.644-1.048-1.535-1.048-2.52 0-0.003 0-0.006 0-0.009v0c0-0.956 0.372-1.855 1.048-2.53l6.045-6.045c-0.169-0.578-0.267-1.242-0.267-1.929 0-0.67 0.093-1.318 0.266-1.933l-0.012 0.050c0.62-2.299 2.4-4.203 4.647-4.968 0.701-0.251 1.509-0.396 2.351-0.396 0.536 0 1.057 0.059 1.559 0.17l-0.048-0.009c0.342 0.075 0.594 0.375 0.594 0.734 0 0.207-0.084 0.395-0.22 0.53l-3.556 3.556 0.787 3.151 3.152 0.788 3.556-3.556c0.136-0.135 0.324-0.219 0.531-0.219 0.076 0 0.149 0.011 0.218 0.032l-0.005-0.001c0.263 0.079 0.462 0.292 0.519 0.558l0.001 0.005c0.103 0.455 0.161 0.977 0.161 1.513 0 0.843-0.145 1.651-0.412 2.403l0.016-0.050c-0.768 2.25-2.675 4.030-4.977 4.646-0.562 0.16-1.207 0.252-1.874 0.252-0.686 0-1.35-0.097-1.978-0.279l0.050 0.012-6.045 6.045c-0.644 0.647-1.536 1.048-2.521 1.048-0.003 0-0.006 0-0.010-0h0z"></path>
</svg>
