<!-- Generated by IcoMoon.io -->
<svg version="1.1" xmlns="http://www.w3.org/2000/svg" width="24" height="24" viewBox="0 0 24 24">
<title>maintenance-16</title>
<path fill="#a7a8aa" d="M15.75 2.25c-3.309 0-6 2.691-6 6 0 0.531 0.090 1.077 0.282 1.717 0.020 0.065 0.032 0.14 0.032 0.217 0 0.207-0.084 0.394-0.22 0.53v0l-7.063 7.066c-0.439 0.44-0.711 1.048-0.711 1.719s0.272 1.279 0.711 1.719l-0-0c0.92 0.919 2.518 0.919 3.438 0l7.065-7.065c0.136-0.136 0.323-0.22 0.53-0.22 0.077 0 0.152 0.012 0.222 0.033l-0.005-0.001c0.512 0.171 1.102 0.274 1.715 0.283l0.004 0c3.309 0 6-2.691 6-6 0-0.138-0.006-0.279-0.020-0.42l-3.2 3.201c-0.136 0.135-0.324 0.219-0.531 0.219-0.123 0-0.238-0.029-0.341-0.081l0.004 0.002-3-1.5c-0.145-0.074-0.26-0.19-0.333-0.33l-0.002-0.004-1.5-3c-0.050-0.098-0.080-0.214-0.080-0.337 0-0.207 0.084-0.394 0.219-0.53v0l3.202-3.2c-0.125-0.012-0.27-0.019-0.416-0.019-0.002 0-0.004 0-0.006 0h0zM4.5 23.433c-1.050 0-2.037-0.41-2.781-1.152-0.71-0.713-1.149-1.696-1.149-2.781s0.439-2.068 1.149-2.781l6.756-6.756c-0.138-0.513-0.22-1.102-0.225-1.71l-0-0.003c0-4.135 3.364-7.5 7.5-7.5 0.672 0 1.375 0.114 2.152 0.348 0.311 0.096 0.533 0.381 0.533 0.718 0 0.207-0.084 0.394-0.219 0.53v0l-3.804 3.802 1.148 2.292 2.292 1.147 3.804-3.803c0.136-0.136 0.323-0.219 0.53-0.219 0.337 0 0.622 0.222 0.716 0.528l0.001 0.005c0.234 0.774 0.347 1.478 0.347 2.151 0 4.135-3.365 7.5-7.5 7.5-0.543 0-1.107-0.073-1.715-0.227l-6.755 6.758c-0.709 0.712-1.689 1.152-2.772 1.152-0.003 0-0.006 0-0.009 0h0z"></path>
</svg>
