<!-- Generated by IcoMoon.io -->
<svg version="1.1" xmlns="http://www.w3.org/2000/svg" width="24" height="24" viewBox="0 0 24 24">
<title>maintenance-12</title>
<path fill="#a7a8aa" d="M15 3.002c-0.728 0-1.456 0.144-2.174 0.43-1.536 0.631-2.734 1.822-3.359 3.314l-0.015 0.040c-0.285 0.657-0.45 1.422-0.45 2.225 0 0.772 0.153 1.509 0.43 2.181l-0.014-0.038c0.042 0.107 0.066 0.23 0.066 0.359 0 0.277-0.112 0.527-0.292 0.709l-6.484 6.486c-0.331 0.328-0.536 0.783-0.536 1.286 0 0.002 0 0.004 0 0.007v-0c0 0.001 0 0.003 0 0.004 0 0.504 0.205 0.96 0.536 1.29l0 0c0.331 0.329 0.788 0.532 1.292 0.532s0.961-0.203 1.292-0.532l6.486-6.486c0.18-0.182 0.43-0.295 0.705-0.295 0.13 0 0.255 0.025 0.369 0.071l-0.007-0.002c1.444 0.558 2.9 0.554 4.328-0.014 1.537-0.63 2.735-1.822 3.359-3.314l0.015-0.040c0.376-0.912 0.516-1.84 0.422-2.77l-2.262 2.264c-0.182 0.18-0.432 0.292-0.708 0.292h-4c-0.552 0-1-0.448-1-1v0-4c0-0.276 0.112-0.525 0.292-0.706l2.264-2.264c-0.166-0.018-0.36-0.028-0.555-0.028h-0.001zM4 23.826c-0.005 0-0.012 0-0.018 0-2.11 0-3.82-1.71-3.82-3.82 0-1.060 0.432-2.020 1.13-2.712l6.044-6.044c-0.215-0.673-0.339-1.446-0.339-2.249 0-1.074 0.222-2.096 0.622-3.022l-0.019 0.049c0.851-2.034 2.443-3.615 4.43-4.432l0.054-0.020c0.865-0.366 1.87-0.578 2.926-0.578 1.033 0 2.018 0.204 2.918 0.573l-0.051-0.019c0.377 0.149 0.639 0.51 0.639 0.933 0 0.276-0.112 0.526-0.293 0.707l-3.222 3.222v2.586h2.586l3.222-3.222c0.24-0.24 0.58-0.346 0.914-0.272s0.603 0.307 0.726 0.613l0.002 0.007c0.351 0.847 0.554 1.831 0.554 2.862 0 1.077-0.222 2.103-0.623 3.033l0.019-0.050c-0.851 2.034-2.443 3.615-4.43 4.432l-0.054 0.020c-1.708 0.68-3.442 0.76-5.166 0.24l-6.042 6.044c-0.691 0.691-1.646 1.118-2.7 1.118-0.003 0-0.005 0-0.008 0h0z"></path>
</svg>
