<!-- Generated by IcoMoon.io -->
<svg version="1.1" xmlns="http://www.w3.org/2000/svg" width="24" height="24" viewBox="0 0 24 24">
<title>message-16</title>
<path fill="#a7a8aa" d="M18 21.75c-0.003 0-0.006 0-0.009 0-0.204 0-0.387-0.086-0.516-0.225l-0-0-4.29-4.275h-10.185c-0.414 0-0.75-0.336-0.75-0.75v0-12c0-0.414 0.336-0.75 0.75-0.75v0h18c0.414 0 0.75 0.336 0.75 0.75v0 12c0 0.414-0.336 0.75-0.75 0.75v0h-2.25v3.75c-0.002 0.31-0.191 0.575-0.46 0.688l-0.005 0.002c-0.080 0.038-0.173 0.060-0.272 0.060-0.004 0-0.009-0-0.013-0h0.001zM3.75 15.75h9.75c0.003-0 0.006-0 0.009-0 0.204 0 0.387 0.086 0.516 0.225l0 0 3.225 3.21v-2.685c0-0.414 0.336-0.75 0.75-0.75v0h2.25v-10.5h-16.5v10.5z"></path>
</svg>
