<!-- Generated by IcoMoon.io -->
<svg version="1.1" xmlns="http://www.w3.org/2000/svg" width="24" height="24" viewBox="0 0 24 24">
<title>message-12</title>
<path fill="#a7a8aa" d="M22 3h-20c-0.552 0-1 0.448-1 1v0 12c0 0.552 0.448 1 1 1v0h9.58l5.72 5.7c0.172 0.185 0.417 0.3 0.689 0.3 0.004 0 0.008-0 0.012-0h-0.001c0.057 0.014 0.123 0.021 0.19 0.021s0.133-0.008 0.196-0.022l-0.006 0.001c0.368-0.153 0.623-0.51 0.623-0.926 0-0.026-0.001-0.052-0.003-0.077l0 0.003v-5h3c0.552 0 1-0.448 1-1v0-12c0-0.552-0.448-1-1-1v0zM21 15h-3c-0.552 0-1 0.448-1 1v0 3.58l-4.3-4.28c-0.172-0.185-0.417-0.3-0.689-0.3-0.004 0-0.008 0-0.012 0h-8.999v-10h18v10z"></path>
</svg>
