<!-- Generated by IcoMoon.io -->
<svg version="1.1" xmlns="http://www.w3.org/2000/svg" width="24" height="24" viewBox="0 0 24 24">
<title>message-24</title>
<path fill="#a7a8aa" d="M17 21.75c-0.207-0-0.394-0.084-0.53-0.22v0l-4.79-4.78h-8.68c-0.412-0.006-0.744-0.338-0.75-0.749v-12.001c0.006-0.412 0.338-0.744 0.749-0.75h18.001c0.412 0.006 0.744 0.338 0.75 0.749v12.001c-0.006 0.412-0.338 0.744-0.749 0.75h-3.221v4.26c-0.004 0.308-0.195 0.57-0.465 0.678l-0.005 0.002c-0.082 0.038-0.178 0.061-0.279 0.061-0.011 0-0.022-0-0.033-0.001l0.002 0zM3.75 15.25h8.25c0.199 0 0.39 0.080 0.53 0.22l3.74 3.74v-3.22c0.006-0.41 0.339-0.74 0.75-0.74 0 0 0 0 0 0h3.21v-10.5h-16.48v10.5z"></path>
</svg>
