<!-- Generated by IcoMoon.io -->
<svg version="1.1" xmlns="http://www.w3.org/2000/svg" width="24" height="24" viewBox="0 0 24 24">
<title>move-16</title>
<path fill="#a7a8aa" d="M23.025 11.475l-3-3-1.050 1.050 1.71 1.725h-7.935v-7.935l1.725 1.71 1.050-1.050-3-3c-0.132-0.14-0.318-0.227-0.525-0.227s-0.393 0.087-0.525 0.227l-0 0-3 3 1.050 1.050 1.725-1.71v7.935h-7.935l1.71-1.725-1.050-1.050-3 3c-0.14 0.132-0.227 0.318-0.227 0.525s0.087 0.393 0.227 0.525l0 0 3 3 1.050-1.050-1.71-1.725h7.935v7.935l-1.725-1.71-1.050 1.050 3 3c0.132 0.14 0.318 0.227 0.525 0.227s0.393-0.087 0.525-0.227l0-0 3-3-1.050-1.050-1.725 1.71v-7.935h7.935l-1.71 1.725 1.050 1.050 3-3c0.14-0.132 0.227-0.318 0.227-0.525s-0.087-0.393-0.227-0.525l-0-0z"></path>
</svg>
