<!-- Generated by IcoMoon.io -->
<svg version="1.1" xmlns="http://www.w3.org/2000/svg" width="24" height="24" viewBox="0 0 24 24">
<title>move-24</title>
<path fill="#a7a8aa" d="M23.53 11.47l-3-3-1.060 1.060 1.72 1.72h-8.44v-8.44l1.72 1.72 1.060-1.060-3-3c-0.136-0.136-0.323-0.219-0.53-0.219s-0.394 0.084-0.53 0.219v0l-3 3 1.060 1.060 1.72-1.72v8.44h-8.44l1.72-1.72-1.060-1.060-3 3c-0.136 0.136-0.219 0.323-0.219 0.53s0.084 0.394 0.219 0.53v0l3 3 1.060-1.060-1.72-1.72h8.44v8.44l-1.72-1.72-1.060 1.060 3 3c0.136 0.136 0.323 0.219 0.53 0.219s0.394-0.084 0.53-0.219v0l3-3-1.060-1.060-1.72 1.72v-8.44h8.44l-1.72 1.72 1.060 1.060 3-3c0.136-0.136 0.219-0.323 0.219-0.53s-0.084-0.394-0.219-0.53v0z"></path>
</svg>
