<!-- Generated by IcoMoon.io -->
<svg version="1.1" xmlns="http://www.w3.org/2000/svg" width="24" height="24" viewBox="0 0 24 24">
<title>notification-active-12</title>
<path fill="#a7a8aa" d="M20 10.874v4.886l2 3.8c0.039 0.104 0.062 0.225 0.062 0.351 0 0.23-0.076 0.442-0.204 0.612l0.002-0.003c-0.185 0.286-0.5 0.474-0.859 0.48h-6.181c-0.413 1.183-1.519 2.017-2.82 2.017s-2.407-0.834-2.814-1.996l-0.006-0.021h-6.22c-0.36-0.006-0.675-0.194-0.858-0.476l-0.002-0.004c-0.076-0.139-0.12-0.304-0.12-0.48s0.044-0.341 0.123-0.485l-0.003 0.005 1.9-3.8v-6.76c0-0 0-0.001 0-0.001 0-4.418 3.582-8 8-8 2.168 0 4.135 0.863 5.576 2.263l-0.002-0.002c0.31-0.086 0.666-0.136 1.034-0.136 2.209 0 4 1.791 4 4 0 1.709-1.072 3.168-2.58 3.741l-0.027 0.009zM15.916 4.454c-1.044-0.904-2.416-1.454-3.916-1.454-3.314 0-6 2.686-6 6 0 0 0 0 0 0v0 7c0.014 0.066 0.023 0.142 0.023 0.22s-0.008 0.154-0.024 0.227l0.001-0.007-1.38 2.56h14.76l-1.28-2.56c-0.061-0.129-0.098-0.28-0.1-0.439v-5.127c-1.739-0.46-3-2.019-3-3.873 0-0.971 0.346-1.861 0.921-2.554l-0.005 0.007z"></path>
</svg>
