<!-- Generated by IcoMoon.io -->
<svg version="1.1" xmlns="http://www.w3.org/2000/svg" width="24" height="24" viewBox="0 0 24 24">
<title>notification-active-24</title>
<path fill="#a7a8aa" d="M18.75 9.93v3.89l1.92 3.84c0.050 0.098 0.079 0.215 0.079 0.338 0 0.145-0.041 0.28-0.111 0.396l0.002-0.003c-0.132 0.217-0.367 0.36-0.635 0.36-0.002 0-0.004 0-0.005-0h-3.33c-0.375 2.269-2.323 3.979-4.67 3.979s-4.295-1.71-4.666-3.951l-0.004-0.028h-3.36c-0.001 0-0.003 0-0.005 0-0.268 0-0.503-0.143-0.633-0.357l-0.002-0.003c-0.059-0.105-0.093-0.231-0.093-0.365s0.035-0.26 0.095-0.369l-0.002 0.004 1.92-3.84v-4.82c0.002-3.034 2.006-5.599 4.762-6.447l0.048-0.013c0.225-0.876 1.008-1.514 1.94-1.514s1.715 0.637 1.937 1.5l0.003 0.014c0.463 0.139 0.903 0.325 1.314 0.551 0.715-0.675 1.681-1.090 2.744-1.090 2.209 0 4 1.791 4 4 0 1.943-1.386 3.563-3.223 3.925l-0.025 0.004zM14.371 4.315c-0.69-0.357-1.506-0.566-2.371-0.566-2.899 0-5.25 2.351-5.25 5.25 0 0 0 0.001 0 0.001v-0 5c-0.002 0.124-0.031 0.241-0.082 0.345l0.002-0.005-1.46 2.91h13.58l-1.46-2.91c-0.049-0.099-0.078-0.216-0.080-0.339v-4.071c-1.864-0.365-3.251-1.986-3.251-3.93 0-0.611 0.137-1.191 0.382-1.709l-0.010 0.024zM12 21.25c1.524-0.006 2.8-1.060 3.145-2.478l0.005-0.022h-6.3c0.35 1.44 1.626 2.494 3.149 2.5h0.001z"></path>
</svg>
