<!-- Generated by IcoMoon.io -->
<svg version="1.1" xmlns="http://www.w3.org/2000/svg" width="24" height="24" viewBox="0 0 24 24">
<title>notification-default-12</title>
<path fill="#a7a8aa" d="M22 19.56l-2-3.8v-6.76c0-4.418-3.582-8-8-8s-8 3.582-8 8v0 6.76l-1.9 3.8c-0.076 0.139-0.12 0.304-0.12 0.48s0.044 0.341 0.123 0.485l-0.003-0.005c0.185 0.286 0.5 0.474 0.859 0.48h6.221c0.413 1.183 1.519 2.017 2.82 2.017s2.407-0.834 2.814-1.996l0.006-0.021h6.18c0.36-0.006 0.675-0.194 0.858-0.476l0.002-0.004c0.126-0.168 0.202-0.38 0.202-0.609 0-0.126-0.023-0.246-0.064-0.358l0.002 0.007zM14 19h-9.38l1.38-2.56c0.014-0.066 0.023-0.142 0.023-0.22s-0.008-0.154-0.024-0.227l0.001 0.007v-7c0-3.314 2.686-6 6-6s6 2.686 6 6v0 7c0.002 0.16 0.039 0.311 0.103 0.447l-0.003-0.007 1.28 2.56h-5.38z"></path>
</svg>
