<!-- Generated by IcoMoon.io -->
<svg version="1.1" xmlns="http://www.w3.org/2000/svg" width="24" height="24" viewBox="0 0 24 24">
<title>notification-active-16</title>
<path fill="#a7a8aa" d="M18.75 11.938v2.131l2.25 4.35c0.030 0.078 0.047 0.169 0.047 0.263 0 0.172-0.057 0.331-0.153 0.459l0.001-0.002c-0.139 0.215-0.375 0.356-0.644 0.36h-3.751c-0.297 2.223-2.182 3.92-4.462 3.92s-4.165-1.697-4.46-3.897l-0.003-0.023h-3.825c-0.005 0-0.011 0-0.018 0-0.275 0-0.517-0.142-0.656-0.357l-0.002-0.003c-0.057-0.104-0.090-0.228-0.090-0.36s0.033-0.256 0.092-0.364l-0.002 0.004 2.175-4.35v-5.070c0.004-2.915 1.859-5.396 4.453-6.33l0.047-0.015c0-1.243 1.007-2.25 2.25-2.25s2.25 1.007 2.25 2.25v0c0.6 0.212 1.158 0.502 1.66 0.858 0.605-0.323 1.323-0.512 2.085-0.512 2.485 0 4.5 2.015 4.5 4.5 0 2.219-1.606 4.063-3.719 4.432l-0.027 0.004zM14.64 4.506c-0.774-0.475-1.712-0.757-2.715-0.757-2.899 0-5.25 2.35-5.25 5.25 0 0 0 0 0 0.001v-0 5.25c0.011 0.050 0.017 0.107 0.017 0.165s-0.006 0.115-0.018 0.17l0.001-0.005-1.71 3.42h14.070l-1.785-3.42c-0.046-0.097-0.073-0.21-0.075-0.329v-2.326c-2.106-0.403-3.676-2.23-3.676-4.424 0-1.152 0.433-2.203 1.145-2.999l-0.004 0.004zM12 21.75c1.386-0.005 2.551-0.949 2.89-2.229l0.005-0.021h-5.79c0.344 1.301 1.509 2.245 2.894 2.25h0.001z"></path>
</svg>
