<!-- Generated by IcoMoon.io -->
<svg version="1.1" xmlns="http://www.w3.org/2000/svg" width="24" height="24" viewBox="0 0 24 24">
<title>notification-default-24</title>
<path fill="#a7a8aa" d="M20.67 17.66l-1.92-3.84v-4.82c-0.002-3.034-2.006-5.599-4.762-6.447l-0.048-0.013c-0.225-0.876-1.008-1.514-1.94-1.514s-1.715 0.637-1.937 1.5l-0.003 0.014c-2.804 0.861-4.808 3.426-4.81 6.46v4.82l-1.92 3.84c-0.059 0.105-0.093 0.231-0.093 0.365s0.035 0.26 0.095 0.369l-0.002-0.004c0.132 0.217 0.367 0.36 0.635 0.36 0.002 0 0.004 0 0.005-0h3.36c0.375 2.269 2.323 3.979 4.67 3.979s4.295-1.71 4.666-3.951l0.004-0.028h3.33c0.001 0 0.003 0 0.005 0 0.268 0 0.503-0.143 0.633-0.357l0.002-0.003c0.069-0.112 0.109-0.247 0.109-0.392 0-0.123-0.029-0.239-0.081-0.342l0.002 0.004zM12 21.25c-1.524-0.006-2.8-1.060-3.145-2.478l-0.005-0.022h6.3c-0.35 1.44-1.626 2.494-3.149 2.5h-0.001zM5.21 17.25l1.46-2.91c0.049-0.099 0.078-0.216 0.080-0.339v-5.001c0-2.899 2.351-5.25 5.25-5.25s5.25 2.351 5.25 5.25v0 5c0.002 0.124 0.031 0.241 0.082 0.345l-0.002-0.005 1.46 2.91h-13.58z"></path>
</svg>
