<!-- Generated by IcoMoon.io -->
<svg version="1.1" xmlns="http://www.w3.org/2000/svg" width="24" height="24" viewBox="0 0 24 24">
<title>office-24</title>
<path fill="#a7a8aa" d="M3.75 21.25v-10.5h8.5v10.5h-8.5zM10.75 6.525l9.5-3.454v6.179h-2.25v1.5h2.25v1.5h-2.25v1.5h2.25v1.5h-2.25v1.5h2.25v4.5h-6.5v-11.25c0-0.414-0.336-0.75-0.75-0.75v0h-2.25v-2.725zM21.75 21.25v-19.25c0-0 0-0.001 0-0.001 0-0.414-0.335-0.749-0.749-0.749-0.092 0-0.181 0.017-0.262 0.047l0.005-0.002-11 4c-0.291 0.108-0.494 0.383-0.494 0.705 0 0 0 0 0 0v0 3.25h-6.25c-0.414 0-0.75 0.336-0.75 0.75v0 11.25h-1.25v1.5h22v-1.5h-1.25z"></path>
</svg>
