<!-- Generated by IcoMoon.io -->
<svg version="1.1" xmlns="http://www.w3.org/2000/svg" width="24" height="24" viewBox="0 0 24 24">
<title>office-16</title>
<path fill="#a7a8aa" d="M13.5 21.75v-12c0-0.414-0.336-0.75-0.75-0.75v0h-2.25v-3.174l9.75-2.599v5.774h-3v1.5h3v1.5h-3v1.5h3v1.5h-3v1.5h3v5.25h-6.75zM3.75 21.75v-11.25h8.25v11.25h-8.25zM21.75 21.75v-19.5c0-0.001 0-0.001 0-0.002 0-0.413-0.335-0.749-0.748-0.749-0.069 0-0.137 0.009-0.2 0.027l0.005-0.001-11.25 3c-0.323 0.088-0.557 0.378-0.557 0.723 0 0 0 0.001 0 0.001v-0 3.75h-6c-0.414 0-0.75 0.336-0.75 0.75v0 12h-0.75v1.5h21v-1.5h-0.75z"></path>
</svg>
