<!-- Generated by IcoMoon.io -->
<svg version="1.1" xmlns="http://www.w3.org/2000/svg" width="24" height="24" viewBox="0 0 24 24">
<title>power-12</title>
<path fill="#a7a8aa" d="M6.414 13h4.786c0.551 0.003 0.997 0.45 0.997 1.002 0 0.133-0.026 0.26-0.073 0.377l0.002-0.007-1.39 3.476 6.85-6.848h-4.786c-0.552-0.002-0.999-0.45-0.999-1.002 0-0.133 0.026-0.26 0.073-0.377l-0.002 0.007 1.392-3.476-6.85 6.848zM8 23c-0.003 0-0.006 0-0.009 0-0.549 0-0.994-0.445-0.994-0.994 0-0.136 0.027-0.266 0.077-0.385l-0.002 0.007 2.65-6.628h-5.722c-0.001 0-0.001 0-0.002 0-0.552 0-1-0.448-1-1 0-0.277 0.112-0.527 0.294-0.708l12-12c0.181-0.178 0.429-0.288 0.703-0.288 0.553 0 1.002 0.449 1.002 1.002 0 0.132-0.025 0.258-0.072 0.373l0.002-0.007-2.65 6.628h5.722c0.552 0 1 0.448 1 1 0 0.277-0.112 0.527-0.294 0.708l-12 12c-0.181 0.18-0.43 0.292-0.705 0.292-0 0-0 0-0.001 0h0z"></path>
</svg>
