<!-- Generated by IcoMoon.io -->
<svg version="1.1" xmlns="http://www.w3.org/2000/svg" width="24" height="24" viewBox="0 0 24 24">
<title>power-16</title>
<path fill="#a7a8aa" d="M10.5 23.25c-0.045 0.010-0.097 0.016-0.15 0.016s-0.105-0.006-0.155-0.017l0.005 0.001c-0.271-0.126-0.455-0.396-0.455-0.709 0-0.030 0.002-0.060 0.005-0.090l-0 0.004 0.96-6.645h-7.71c-0 0-0.001 0-0.001 0-0.294 0-0.549-0.169-0.672-0.416l-0.002-0.004c-0.045-0.095-0.072-0.206-0.072-0.324 0-0.178 0.061-0.342 0.163-0.472l-0.001 0.002 10.5-13.5c0.133-0.203 0.36-0.336 0.617-0.336 0.096 0 0.189 0.019 0.273 0.052l-0.005-0.002c0.271 0.126 0.455 0.396 0.455 0.709 0 0.030-0.002 0.060-0.005 0.090l0-0.004-0.96 6.645h7.71c0 0 0.001 0 0.002 0 0.294 0 0.549 0.169 0.672 0.416l0.002 0.004c0.045 0.095 0.072 0.206 0.072 0.324 0 0.178-0.061 0.342-0.163 0.473l0.001-0.002-10.5 13.5c-0.136 0.174-0.345 0.285-0.581 0.285-0.001 0-0.003 0-0.004 0h0zM4.5 14.25h7.065c0.004-0 0.009-0 0.013-0 0.222 0 0.421 0.099 0.556 0.254l0.001 0.001c0.117 0.13 0.188 0.302 0.188 0.491 0 0.038-0.003 0.076-0.009 0.113l0.001-0.004-0.675 4.71 7.86-10.065h-7.065c-0.004 0-0.009 0-0.013 0-0.222 0-0.421-0.099-0.556-0.254l-0.001-0.001c-0.117-0.13-0.188-0.302-0.188-0.491 0-0.038 0.003-0.076 0.009-0.113l-0.001 0.004 0.675-4.71-7.86 10.065z"></path>
</svg>
