<!-- Generated by IcoMoon.io -->
<svg version="1.1" xmlns="http://www.w3.org/2000/svg" width="24" height="24" viewBox="0 0 24 24">
<title>power-24</title>
<path fill="#a7a8aa" d="M11 22.75c-0.094-0.002-0.183-0.020-0.265-0.052l0.005 0.002c-0.29-0.105-0.494-0.377-0.494-0.698 0-0.025 0.001-0.051 0.004-0.075l-0 0.003 0.62-6.18h-6.87c-0.004 0-0.010 0-0.015 0-0.281 0-0.525-0.161-0.643-0.396l-0.002-0.004c-0.069-0.111-0.109-0.246-0.109-0.39s0.041-0.279 0.111-0.393l-0.002 0.003 9-13c0.137-0.194 0.361-0.319 0.614-0.319 0.096 0 0.187 0.018 0.271 0.051l-0.005-0.002c0.29 0.105 0.494 0.377 0.494 0.698 0 0.025-0.001 0.051-0.004 0.075l0-0.003-0.62 6.18h6.91c0.004-0 0.010-0 0.015-0 0.281 0 0.525 0.161 0.643 0.396l0.002 0.004c0.069 0.111 0.109 0.246 0.109 0.39s-0.041 0.279-0.111 0.393l0.002-0.003-9 13c-0.144 0.195-0.372 0.321-0.63 0.321-0.010 0-0.021-0-0.031-0.001l0.001 0zM5.43 14.25h6.27c0.222 0.002 0.42 0.098 0.559 0.249l0.001 0.001c0.12 0.131 0.193 0.306 0.193 0.499 0 0.025-0.001 0.050-0.004 0.074l0-0.003-0.45 4.12 6.53-9.44h-6.23c-0.222-0.002-0.42-0.098-0.56-0.249l-0.001-0.001c-0.12-0.131-0.193-0.306-0.193-0.499 0-0.025 0.001-0.050 0.004-0.074l-0 0.003 0.45-4.12-6.57 9.44z"></path>
</svg>
