<!-- Generated by IcoMoon.io -->
<svg version="1.1" xmlns="http://www.w3.org/2000/svg" width="24" height="24" viewBox="0 0 24 24">
<title>redirect-12</title>
<path fill="#a7a8aa" d="M2 22c-0.552 0-1-0.448-1-1v0-6c0-4.418 3.582-8 8-8v0h4v-3c0.002-0.413 0.255-0.767 0.613-0.918l0.007-0.002c0.114-0.053 0.247-0.084 0.388-0.084 0.273 0 0.52 0.117 0.691 0.303l0.001 0.001 8 8c0.187 0.176 0.303 0.424 0.303 0.7s-0.116 0.524-0.303 0.7l-0 0-8 8c-0.175 0.185-0.423 0.3-0.697 0.3-0.139 0-0.27-0.029-0.389-0.082l0.006 0.002c-0.365-0.153-0.618-0.507-0.62-0.92v-3h-6c-2.209 0-4 1.791-4 4v0c0 0.552-0.448 1-1 1v0zM7 15h7c0.552 0 1 0.448 1 1v0 1.58l5.58-5.58-5.58-5.58v1.58c0 0.552-0.448 1-1 1v0h-5c-3.314 0-6 2.686-6 6v0 1.54c1.055-0.952 2.459-1.536 3.999-1.54h0.001z"></path>
</svg>
