<!-- Generated by IcoMoon.io -->
<svg version="1.1" xmlns="http://www.w3.org/2000/svg" width="24" height="24" viewBox="0 0 24 24">
<title>redirect-24</title>
<path fill="#a7a8aa" d="M2 22.75c-0.412-0.006-0.744-0.338-0.75-0.749v-7.001c0.006-4.278 3.472-7.744 7.749-7.75h5.251v-4.25c-0.1-0.126-0.16-0.288-0.16-0.463 0-0.414 0.336-0.75 0.75-0.75s0.75 0.336 0.75 0.75c0 0.001 0 0.002 0 0.003v-0l7 9c0.21 0.27 0.21 0.65 0 0.92l-7 9c-0.139 0.175-0.351 0.287-0.59 0.287-0.413 0-0.748-0.334-0.75-0.747v-4.25h-6.25c-2.897 0.006-5.244 2.353-5.25 5.249v0.001c-0.006 0.412-0.338 0.744-0.749 0.75h-0.001zM8 15.25h7c0.412 0.006 0.744 0.338 0.75 0.749v2.811l5.3-6.81-5.3-6.81v2.81c-0.006 0.412-0.338 0.744-0.749 0.75h-6.001c-3.452 0-6.25 2.798-6.25 6.25v0 2.76c1.246-1.536 3.133-2.51 5.247-2.51 0.001 0 0.002 0 0.003 0h-0z"></path>
</svg>
