<!-- Generated by IcoMoon.io -->
<svg version="1.1" xmlns="http://www.w3.org/2000/svg" width="24" height="24" viewBox="0 0 24 24">
<title>redirect-16</title>
<path fill="#a7a8aa" d="M1.5 23.25c-0.414 0-0.75-0.336-0.75-0.75v0-6c0.009-5.381 4.369-9.741 9.749-9.75h3.766v-3.75c0.004-0.411 0.338-0.743 0.75-0.743 0.228 0 0.432 0.101 0.569 0.262l0.001 0.001 7.5 9c0.111 0.128 0.178 0.296 0.178 0.48s-0.068 0.352-0.179 0.481l0.001-0.001-7.5 9c-0.139 0.172-0.349 0.281-0.585 0.281-0.414 0-0.75-0.336-0.75-0.75 0-0.004 0-0.008 0-0.011v0.001-3.75h-6.75c-2.899 0-5.25 2.351-5.25 5.25v0c0 0.414-0.336 0.75-0.75 0.75v0zM7.5 15.75h7.5c0.414 0 0.75 0.336 0.75 0.75v0 2.43l5.775-6.93-5.775-6.93v2.43c-0.008 0.411-0.339 0.742-0.749 0.75l-0.001 0h-4.5c-4.553 0.009-8.241 3.697-8.25 8.249v1.756c1.247-1.533 3.134-2.505 5.248-2.505 0.001 0 0.001 0 0.002 0h-0z"></path>
</svg>
