<!-- Generated by IcoMoon.io -->
<svg version="1.1" xmlns="http://www.w3.org/2000/svg" width="24" height="24" viewBox="0 0 24 24">
<title>refresh-12</title>
<path fill="#a7a8aa" d="M19.080 4.92c1.815 1.811 2.938 4.314 2.938 7.080s-1.123 5.269-2.938 7.080l-0 0-1.42-1.42c1.45-1.448 2.346-3.449 2.346-5.66 0-4.418-3.582-8-8-8-0.002 0-0.004 0-0.007 0h0v2l-3-3 3-3v2c0.005 0 0.012-0 0.018-0 2.757 0 5.253 1.116 7.062 2.92l-0-0zM12 20v-2l3 3-3 3v-2c-0.005 0-0.012 0-0.018 0-5.523 0-10-4.477-10-10 0-2.766 1.123-5.269 2.938-7.080l0-0 1.42 1.42c-1.45 1.448-2.346 3.449-2.346 5.66 0 4.418 3.582 8 8 8 0.002 0 0.004 0 0.007 0h-0z"></path>
</svg>
