<!-- Generated by IcoMoon.io -->
<svg version="1.1" xmlns="http://www.w3.org/2000/svg" width="24" height="24" viewBox="0 0 24 24">
<title>refresh-16</title>
<path fill="#a7a8aa" d="M18.9 5.1c1.761 1.768 2.849 4.207 2.849 6.9s-1.088 5.132-2.849 6.9l0-0-1.065-1.065c1.494-1.493 2.418-3.556 2.418-5.835 0-4.556-3.694-8.25-8.25-8.25-0.001 0-0.002 0-0.003 0h0v1.5l-3-2.25 3-2.25v1.5c0.005 0 0.011-0 0.018-0 2.688 0 5.121 1.089 6.882 2.85l-0-0zM12 20.25v-1.5l3 2.25-3 2.25v-1.5c-0.003 0-0.007 0-0.011 0-5.385 0-9.75-4.365-9.75-9.75 0-2.695 1.094-5.135 2.861-6.9l0-0 1.065 1.065c-1.494 1.493-2.418 3.556-2.418 5.835 0 4.556 3.694 8.25 8.25 8.25 0.001 0 0.002 0 0.003 0h-0z"></path>
</svg>
