<!-- Generated by IcoMoon.io -->
<svg version="1.1" xmlns="http://www.w3.org/2000/svg" width="24" height="24" viewBox="0 0 24 24">
<title>refresh-24</title>
<path fill="#a7a8aa" d="M18.89 5.11c1.767 1.762 2.86 4.198 2.86 6.89s-1.093 5.128-2.859 6.89l-0 0-1.060-1.060c1.499-1.492 2.427-3.558 2.427-5.84 0-4.551-3.689-8.24-8.24-8.24-0.006 0-0.012 0-0.018 0h0.001v1.25l-3-2 3-2v1.25c0.010-0 0.021-0 0.033-0 2.681 0 5.107 1.094 6.856 2.859l0.001 0.001zM12 20.25v-1.25l3 2-3 2v-1.25c-0.010 0-0.021 0-0.033 0-2.681 0-5.107-1.094-6.856-2.859l-0.001-0.001c-1.767-1.762-2.86-4.198-2.86-6.89s1.093-5.128 2.859-6.89l0-0 1.060 1.060c-1.499 1.492-2.427 3.558-2.427 5.84 0 4.551 3.689 8.24 8.24 8.24 0.006 0 0.012 0 0.018-0h-0.001z"></path>
</svg>
