<!-- Generated by IcoMoon.io -->
<svg version="1.1" xmlns="http://www.w3.org/2000/svg" width="24" height="24" viewBox="0 0 24 24">
<title>remove-outline-24</title>
<path fill="#a7a8aa" d="M12 1.25c5.935 0.006 10.744 4.815 10.75 10.75 0 5.937-4.813 10.75-10.75 10.75s-10.75-4.813-10.75-10.75 4.813-10.75 10.75-10.75zM12 21.25c5.106-0.006 9.244-4.144 9.25-9.249v-0.001c0-5.109-4.141-9.25-9.25-9.25s-9.25 4.141-9.25 9.25c0 5.109 4.141 9.25 9.25 9.25v0zM15.47 7.47l1.060 1.060-3.47 3.47 3.47 3.47-1.060 1.060-3.47-3.47-3.47 3.47-1.060-1.060 3.47-3.47-3.47-3.47 1.060-1.060 3.47 3.47 3.47-3.47z"></path>
</svg>
