<!-- Generated by IcoMoon.io -->
<svg version="1.1" xmlns="http://www.w3.org/2000/svg" width="24" height="24" viewBox="0 0 24 24">
<title>remove-filled-12</title>
<path fill="#a7a8aa" d="M4.22 4.22c1.991-1.991 4.742-3.223 7.78-3.223 6.077 0 11.003 4.926 11.003 11.003 0 3.038-1.231 5.789-3.223 7.78v0c-1.991 1.991-4.742 3.223-7.78 3.223-6.077 0-11.003-4.926-11.003-11.003 0-3.038 1.232-5.789 3.223-7.78v0zM15.54 7.060l-3.54 3.52-3.54-3.52-1.4 1.4 3.52 3.54-3.52 3.54 1.4 1.4 3.54-3.52 3.54 3.52 1.4-1.4-3.52-3.54 3.52-3.54-1.4-1.4z"></path>
</svg>
