<!-- Generated by IcoMoon.io -->
<svg version="1.1" xmlns="http://www.w3.org/2000/svg" width="24" height="24" viewBox="0 0 24 24">
<title>remove-outline-12</title>
<path fill="#a7a8aa" d="M19.78 4.22c-1.991-1.991-4.742-3.223-7.78-3.223-6.077 0-11.003 4.926-11.003 11.003 0 3.038 1.232 5.789 3.223 7.78v0c1.991 1.991 4.742 3.223 7.78 3.223 6.077 0 11.003-4.926 11.003-11.003 0-3.038-1.232-5.789-3.223-7.78v0zM18.36 18.36c-1.624 1.619-3.865 2.62-6.34 2.62-4.96 0-8.98-4.021-8.98-8.98 0-2.485 1.009-4.734 2.64-6.36l0-0c1.624-1.619 3.865-2.62 6.34-2.62 4.96 0 8.98 4.021 8.98 8.98 0 2.485-1.009 4.734-2.64 6.36l-0 0zM15.54 7.040l-3.54 3.54-3.54-3.54-1.42 1.42 3.54 3.54-3.54 3.54 1.42 1.4 3.54-3.52 3.54 3.52 1.4-1.4-3.52-3.54 3.52-3.54-1.4-1.42z"></path>
</svg>
