<!-- Generated by IcoMoon.io -->
<svg version="1.1" xmlns="http://www.w3.org/2000/svg" width="24" height="24" viewBox="0 0 24 24">
<title>resize-24</title>
<path fill="#a7a8aa" d="M20.25 20.25v-5.25h1.5v6c-0.006 0.412-0.338 0.744-0.749 0.75h-6.001v-1.5h5.25zM21 2.25c0.412 0.006 0.744 0.338 0.75 0.749v6.001h-1.5v-5.25h-5.25v-1.5h6zM3.75 3.75v5.25h-1.5v-6c0.006-0.412 0.338-0.744 0.749-0.75h6.001v1.5h-5.25zM3.75 15v5.25h5.25v1.5h-6c-0.412-0.006-0.744-0.338-0.75-0.749v-6.001h1.5zM15.75 15c-0.006 0.412-0.338 0.744-0.749 0.75h-6.001c-0.412-0.006-0.744-0.338-0.75-0.749v-6.001c0.006-0.412 0.338-0.744 0.749-0.75h6.001c0.412 0.006 0.744 0.338 0.75 0.749v6.001zM14.25 14.25v-4.5h-4.5v4.5h4.5z"></path>
</svg>
