<!-- Generated by IcoMoon.io -->
<svg version="1.1" xmlns="http://www.w3.org/2000/svg" width="24" height="24" viewBox="0 0 24 24">
<title>resize-16</title>
<path fill="#a7a8aa" d="M22.5 0.75c0.414 0 0.75 0.336 0.75 0.75v0 6h-1.5v-5.25h-5.25v-1.5h6zM2.25 2.25v5.25h-1.5v-6c0-0.414 0.336-0.75 0.75-0.75v0h6v1.5h-5.25zM2.25 16.5v5.25h5.25v1.5h-6c-0.414 0-0.75-0.336-0.75-0.75v0-6h1.5zM21.75 21.75v-5.25h1.5v6c0 0.414-0.336 0.75-0.75 0.75v0h-6v-1.5h5.25zM17.25 16.5c0 0.414-0.336 0.75-0.75 0.75v0h-9c-0.414 0-0.75-0.336-0.75-0.75v0-9c0-0.414 0.336-0.75 0.75-0.75v0h9c0.414 0 0.75 0.336 0.75 0.75v0 9zM15.75 15.75v-7.5h-7.5v7.5h7.5z"></path>
</svg>
