<!-- Generated by IcoMoon.io -->
<svg version="1.1" xmlns="http://www.w3.org/2000/svg" width="24" height="24" viewBox="0 0 24 24">
<title>restricted-12</title>
<path fill="#a7a8aa" d="M12 21c-2.127-0.009-4.076-0.762-5.602-2.013l0.016 0.013 12.586-12.586c1.232 1.54 2 3.464 2 5.586 0 4.962-4.038 9-9 9zM3 12c0-4.962 4.038-9 9-9 2.122 0 4.046 0.768 5.586 2l-12.586 12.586c-1.232-1.54-2-3.464-2-5.586zM12 1c-6.072 0.007-10.993 4.928-11 10.999v0.001c0 6.066 4.936 11 11 11s11-4.934 11-11-4.936-11-11-11z"></path>
</svg>
