<!-- Generated by IcoMoon.io -->
<svg version="1.1" xmlns="http://www.w3.org/2000/svg" width="24" height="24" viewBox="0 0 24 24">
<title>restricted-24</title>
<path fill="#a7a8aa" d="M12 1.25c-5.937 0-10.75 4.813-10.75 10.75s4.813 10.75 10.75 10.75 10.75-4.813 10.75-10.75c-0.006-5.935-4.815-10.744-10.75-10.75zM12 2.75c2.302 0.003 4.404 0.855 6.011 2.259l-0.011-0.009-13 13c-1.374-1.593-2.21-3.682-2.21-5.967 0-0.012 0-0.023 0-0.035v0.002c0.006-5.092 4.121-9.222 9.207-9.25l0.003-0zM12 21.25c-2.302-0.003-4.404-0.855-6.011-2.259l0.011 0.009 13-13c1.374 1.593 2.21 3.682 2.21 5.967 0 0.012-0 0.023-0 0.035v-0.002c-0.006 5.092-4.121 9.222-9.207 9.25l-0.003 0z"></path>
</svg>
