<!-- Generated by IcoMoon.io -->
<svg version="1.1" xmlns="http://www.w3.org/2000/svg" width="24" height="24" viewBox="0 0 24 24">
<title>restricted-16</title>
<path fill="#a7a8aa" d="M12 0.75c-6.213 0-11.25 5.037-11.25 11.25s5.037 11.25 11.25 11.25v0c6.213 0 11.25-5.037 11.25-11.25s-5.037-11.25-11.25-11.25v0zM12 2.25c0.004 0 0.010 0 0.015 0 2.421 0 4.633 0.892 6.327 2.365l-0.012-0.010-13.725 13.725c-1.463-1.682-2.355-3.894-2.355-6.315 0-0.005 0-0.010 0-0.016v0.001c0.009-5.381 4.369-9.741 9.749-9.75h0.001zM12 21.75c-0.004 0-0.010 0-0.015 0-2.421 0-4.633-0.892-6.327-2.365l0.012 0.010 13.725-13.725c1.463 1.682 2.355 3.894 2.355 6.315 0 0.005 0 0.010-0 0.016v-0.001c-0.009 5.381-4.369 9.741-9.749 9.75h-0.001z"></path>
</svg>
