<!-- Generated by IcoMoon.io -->
<svg version="1.1" xmlns="http://www.w3.org/2000/svg" width="24" height="24" viewBox="0 0 24 24">
<title>rocket-16</title>
<path fill="#a7a8aa" d="M15.969 12.969l3-3c2.25-2.25 2.682-6.087 2.763-7.702-1.613 0.084-5.457 0.521-7.701 2.764l-8.471 8.469 4.94 4.939 5.469-5.469zM15.75 19.188v-3.877l-4.188 4.189 1.941 1.939 2.25-2.25zM4.542 14.604c-2.142 2.553-2.362 5.758-2.337 7.131 1.455-0.069 4.878-0.45 7.185-2.286l-4.847-4.846zM4.812 8.253l-2.25 2.247 1.941 1.938 4.187-4.188h-3.879zM23.253 1.479c0.005 0.252 0.119 6.21-3.221 9.55l-2.782 2.781v5.689c-0 0.207-0.084 0.395-0.22 0.531l-3 3c-0.135 0.136-0.323 0.221-0.53 0.221s-0.395-0.084-0.53-0.221l-2.498-2.498c-3.107 2.574-7.837 2.716-8.817 2.716h-0.172c-0.373-0.011-0.678-0.291-0.726-0.653l-0-0.004c-0.029-0.221-0.606-5.229 2.712-9.068l-2.497-2.495c-0.136-0.136-0.22-0.324-0.22-0.531s0.084-0.395 0.22-0.531l3-3c0.136-0.135 0.323-0.219 0.53-0.219h5.688l2.78-2.779c3.342-3.344 9.294-3.218 9.55-3.22 0.4 0.009 0.723 0.33 0.733 0.729l0 0.001zM18.3 4.65c0.58 0 1.050 0.47 1.050 1.050s-0.47 1.050-1.050 1.050v0c-0.58 0-1.050-0.47-1.050-1.050s0.47-1.050 1.050-1.050v0z"></path>
</svg>
