<!-- Generated by IcoMoon.io -->
<svg version="1.1" xmlns="http://www.w3.org/2000/svg" width="24" height="24" viewBox="0 0 24 24">
<title>rocket-12</title>
<path fill="#a7a8aa" d="M10 18.586l9.292-9.292c1.064-1.062 1.566-4.064 1.694-6.262-2.204 0.12-5.218 0.614-6.278 1.676l-9.294 9.292 4.586 4.586zM4.148 15.562c-0.676 1.382-1.010 3.646-1.1 5.406 1.756-0.096 4.012-0.438 5.392-1.114l-4.292-4.292zM23.022 2.004c-0.002 0.658-0.088 6.476-2.314 8.704l-4.708 4.706v4.586l-3 3-2.292-2.292c-2.228 2.226-8.018 2.292-8.682 2.292h-0.002c0 0 0 0 0 0-0.552 0-0.999-0.447-1-0.998v-0c-0.002-0.656 0.038-6.478 2.268-8.708l-2.292-2.294 3-3h4.586l4.706-4.706c2.228-2.228 8.060-2.292 8.728-2.292h0.002c0 0 0 0 0 0 0.552 0 1 0.448 1 1 0 0.001 0 0.001 0 0.002v-0zM18.022 5.002c0.552 0 1 0.448 1 1s-0.448 1-1 1v0c-0.552 0-1-0.448-1-1s0.448-1 1-1v0z"></path>
</svg>
