<!-- Generated by IcoMoon.io -->
<svg version="1.1" xmlns="http://www.w3.org/2000/svg" width="24" height="24" viewBox="0 0 24 24">
<title>rocket-24</title>
<path fill="#a7a8aa" d="M15.482 12.457l2.988-2.987c2.054-2.055 2.591-5.205 2.732-6.671-1.466 0.14-4.616 0.677-6.67 2.731l-7.472 7.47 3.94 3.939 4.481-4.482zM15.26 18.689v-3.889l-3.2 3.2 1.945 1.945zM6.033 14.094c-2.012 2.341-2.832 5.384-3.129 6.95 1.64-0.386 4.87-1.335 6.996-3.083zM5.31 8.75l-1.25 1.25 1.94 1.939 3.19-3.189zM22.75 2c0 0.217-0.037 5.347-3.22 8.53l-2.77 2.77v5.7c0 0 0 0 0 0 0 0.207-0.084 0.394-0.219 0.53l-2.005 2.006c-0.136 0.135-0.323 0.219-0.53 0.219s-0.394-0.083-0.53-0.219l-2.502-2.501c-3.237 2.739-8.61 3.665-8.85 3.705-0.037 0.007-0.080 0.010-0.124 0.010-0.197 0-0.376-0.076-0.509-0.201l0 0c-0.148-0.137-0.241-0.333-0.241-0.55 0-0.024 0.001-0.048 0.003-0.071l-0 0.003c0.020-0.224 0.52-5.276 3.708-8.91l-2.491-2.492c-0.136-0.136-0.22-0.323-0.22-0.53s0.084-0.394 0.22-0.53v0l2-2c0.136-0.136 0.323-0.22 0.53-0.22h5.69l2.78-2.78c3.182-3.183 8.313-3.22 8.53-3.22 0.414 0 0.75 0.336 0.75 0.75v0zM18 5c0.552 0 1 0.448 1 1s-0.448 1-1 1v0c-0.552 0-1-0.448-1-1s0.448-1 1-1v0z"></path>
</svg>
