<!-- Generated by IcoMoon.io -->
<svg version="1.1" xmlns="http://www.w3.org/2000/svg" width="24" height="24" viewBox="0 0 24 24">
<title>save-12</title>
<path fill="#a7a8aa" d="M22.7 7.3l-6-6c-0.083-0.099-0.191-0.175-0.315-0.218l-0.005-0.002c-0.104-0.051-0.225-0.080-0.354-0.080-0.009 0-0.018 0-0.027 0l0.001-0h-14c-0.552 0-1 0.448-1 1v0 20c0 0.552 0.448 1 1 1v0h20c0.552 0 1-0.448 1-1v0-14c0-0.003 0-0.007 0-0.011 0-0.272-0.115-0.516-0.3-0.688l-0.001-0.001zM15 3v4h-6v-4h6zM9 21v-4h6v4h-6zM21 21h-4v-5c0-0.552-0.448-1-1-1v0h-8c-0.552 0-1 0.448-1 1v0 5h-4v-18h4v5c0 0.552 0.448 1 1 1v0h8c0.552 0 1-0.448 1-1v0-3.58l4 4v12.58z"></path>
</svg>
