<!-- Generated by IcoMoon.io -->
<svg version="1.1" xmlns="http://www.w3.org/2000/svg" width="24" height="24" viewBox="0 0 24 24">
<title>save-24</title>
<path fill="#a7a8aa" d="M21.53 6.47l-4-4c-0.136-0.136-0.323-0.22-0.53-0.22h-14c-0.412 0.006-0.744 0.338-0.75 0.749v18.001c0.006 0.412 0.338 0.744 0.749 0.75h18.001c0.412-0.006 0.744-0.338 0.75-0.749v-14.001c-0-0.207-0.084-0.394-0.22-0.53v0zM15.25 3.75v2.5h-6.5v-2.5h6.5zM7.75 20.25v-3.5h8.5v3.5h-8.5zM20.25 20.25h-2.5v-4.25c-0.006-0.412-0.338-0.744-0.749-0.75h-10.001c-0.412 0.006-0.744 0.338-0.75 0.749v4.251h-2.5v-16.5h3.5v3.25c0.006 0.412 0.338 0.744 0.749 0.75h8.001c0.412-0.006 0.744-0.338 0.75-0.749v-3.191l3.5 3.5v12.94z"></path>
</svg>
