<!-- Generated by IcoMoon.io -->
<svg version="1.1" xmlns="http://www.w3.org/2000/svg" width="24" height="24" viewBox="0 0 24 24">
<title>save-16</title>
<path fill="#a7a8aa" d="M23.025 5.475l-4.5-4.5c-0.129-0.139-0.313-0.225-0.516-0.225-0.003 0-0.006 0-0.009 0h-16.5c-0.414 0-0.75 0.336-0.75 0.75v0 21c0 0.414 0.336 0.75 0.75 0.75v0h21c0.414 0 0.75-0.336 0.75-0.75v0-16.5c0-0.003 0-0.006 0-0.009 0-0.204-0.086-0.387-0.225-0.516l-0-0zM15.75 2.25v3h-7.5v-3h7.5zM7.5 21.75v-4.5h9v4.5h-9zM21.75 21.75h-3.75v-5.25c0-0.414-0.336-0.75-0.75-0.75v0h-10.5c-0.414 0-0.75 0.336-0.75 0.75v0 5.25h-3.75v-19.5h4.5v3.75c0 0.414 0.336 0.75 0.75 0.75v0h9c0.414 0 0.75-0.336 0.75-0.75v0-3.75h0.435l4.065 4.065v15.435z"></path>
</svg>
