<!-- Generated by IcoMoon.io -->
<svg version="1.1" xmlns="http://www.w3.org/2000/svg" width="24" height="24" viewBox="0 0 24 24">
<title>savings-16</title>
<path fill="#a7a8aa" d="M16.095 4.11c0.004-0.054 0.006-0.117 0.006-0.18s-0.002-0.126-0.006-0.189l0 0.009c0-1.657-1.343-3-3-3s-3 1.343-3 3v0c-0.004 0.056-0.006 0.122-0.006 0.188s0.002 0.131 0.006 0.196l-0-0.009c-0.683 0.169-1.268 0.37-1.829 0.614l0.074-0.029-2.595-2.28c-0.134-0.113-0.309-0.181-0.5-0.181-0.095 0-0.186 0.017-0.27 0.048l0.005-0.002c-0.252 0.11-0.434 0.337-0.479 0.61l-0.001 0.005-0.585 4.71-2.595 0.66c-0.329 0.078-0.57 0.369-0.57 0.716 0 0.001 0 0.003 0 0.004v-0 6c0 0.001 0 0.002 0 0.004 0 0.347 0.241 0.639 0.565 0.715l0.005 0.001 3.39 0.855c0.492 0.601 1.044 1.124 1.655 1.572l0.025 0.018 1.125 4.5c0.089 0.329 0.384 0.568 0.735 0.57h3c0 0 0 0 0 0 0.409 0 0.741-0.327 0.75-0.734l0-0.001v-2.295c0.75 0.060 1.5 0.060 2.25 0v2.295c0 0.414 0.336 0.75 0.75 0.75v0h3c0.351-0.002 0.646-0.241 0.734-0.565l0.001-0.005 1.125-4.5c2.008-1.362 3.327-3.611 3.39-6.17l0-0.010c0-3.705-3.015-6.855-7.155-7.89zM18.78 17.085c-0.152 0.102-0.264 0.253-0.314 0.43l-0.001 0.005-1.050 4.23h-1.665v-2.4c0-0.007 0-0.014 0-0.022 0-0.222-0.105-0.42-0.269-0.547l-0.002-0.001c-0.122-0.111-0.285-0.179-0.463-0.179-0.048 0-0.096 0.005-0.141 0.014l0.004-0.001c-0.528 0.086-1.136 0.135-1.755 0.135s-1.227-0.049-1.82-0.144l0.065 0.009c-0.041-0.009-0.088-0.014-0.137-0.014-0.179 0-0.341 0.068-0.464 0.179l0.001-0.001c-0.165 0.127-0.27 0.325-0.27 0.548 0 0.008 0 0.016 0 0.023l-0-0.001v2.4h-1.665l-1.050-4.23c-0.043-0.179-0.145-0.329-0.283-0.434l-0.002-0.001c-0.685-0.457-1.269-0.999-1.758-1.619l-0.012-0.016c-0.103-0.133-0.248-0.23-0.415-0.269l-0.005-0.001-3-0.765v-4.83l2.475-0.585c0.296-0.075 0.519-0.322 0.555-0.627l0-0.003 0.48-3.87 1.965 1.665c0.131 0.11 0.302 0.176 0.488 0.176 0.117 0 0.227-0.026 0.327-0.073l-0.005 0.002c1.309-0.644 2.849-1.020 4.477-1.020 0.008 0 0.016 0 0.024 0h-0.001c4.755 0 8.625 3 8.625 6.75-0.076 2.143-1.22 4.002-2.914 5.070l-0.026 0.015z"></path>
</svg>
