<!-- Generated by IcoMoon.io -->
<svg version="1.1" xmlns="http://www.w3.org/2000/svg" width="24" height="24" viewBox="0 0 24 24">
<title>savings-24</title>
<path fill="#a7a8aa" d="M15.69 4.56c0.033-0.165 0.054-0.358 0.060-0.555l0-0.005c0-1.519-1.231-2.75-2.75-2.75s-2.75 1.231-2.75 2.75v0c0.003 0.2 0.029 0.393 0.074 0.578l-0.004-0.018c-0.668 0.154-1.235 0.332-1.784 0.549l0.084-0.029-2-2.55c-0.142-0.173-0.356-0.282-0.596-0.282-0.065 0-0.129 0.008-0.189 0.023l0.005-0.001c-0.287 0.077-0.503 0.313-0.549 0.606l-0.001 0.004-0.79 4.54-2.73 0.86c-0.304 0.1-0.52 0.382-0.52 0.714 0 0.002 0 0.004 0 0.006v-0 6c0.001 0.342 0.231 0.63 0.545 0.719l0.005 0.001 3.41 1c0.352 0.357 0.731 0.685 1.134 0.982l0.026 0.018 0.89 4.47c0.072 0.345 0.374 0.6 0.735 0.6 0.002 0 0.004 0 0.005-0h3c0.412-0.006 0.744-0.338 0.75-0.749v-2.361c0.83 0.090 1.67 0.090 2.5 0v2.32c0.006 0.412 0.338 0.744 0.749 0.75h3.001c0.002 0 0.003 0 0.005 0 0.361 0 0.663-0.255 0.734-0.595l0.001-0.005 0.89-4.47c1.838-1.259 3.047-3.321 3.12-5.669l0-0.011c0-3.53-2.99-6.51-7.060-7.44zM11.75 4c0-0.69 0.56-1.25 1.25-1.25s1.25 0.56 1.25 1.25v0c-0.002 0.115-0.020 0.225-0.052 0.328l0.002-0.008c-0.357-0.042-0.773-0.067-1.196-0.070l-0.004-0c-0.4 0-0.8 0.020-1.2 0.060-0.031-0.092-0.049-0.199-0.050-0.309v-0.001zM18.53 16.62c-0.16 0.107-0.273 0.273-0.309 0.466l-0.001 0.004-0.84 4.16h-1.63v-2.43c0-0.22-0.1-0.43-0.27-0.57-0.127-0.113-0.295-0.182-0.479-0.182-0.046 0-0.092 0.004-0.136 0.013l0.005-0.001c-0.562 0.105-1.209 0.165-1.87 0.165s-1.308-0.060-1.935-0.175l0.065 0.010c-0.040-0.008-0.085-0.012-0.131-0.012-0.184 0-0.352 0.069-0.479 0.183l0.001-0.001c-0.165 0.136-0.269 0.341-0.27 0.57v2.43h-1.63l-0.84-4.16c-0.037-0.197-0.15-0.363-0.307-0.468l-0.003-0.002c-0.487-0.331-0.91-0.7-1.285-1.114l-0.005-0.006c-0.094-0.104-0.217-0.18-0.355-0.219l-0.005-0.001-3.070-0.85v-4.88l2.64-0.83c0.268-0.092 0.467-0.317 0.519-0.595l0.001-0.005 0.55-3.34 1.35 1.68c0.137 0.172 0.346 0.282 0.581 0.282 0.116 0 0.225-0.027 0.323-0.074l-0.004 0.002c1.249-0.581 2.711-0.92 4.253-0.92 0.013 0 0.026 0 0.039 0h-0.002c4.55 0 8.25 2.8 8.25 6.25-0.089 1.952-1.144 3.64-2.696 4.606l-0.024 0.014z"></path>
</svg>
