<!-- Generated by IcoMoon.io -->
<svg version="1.1" xmlns="http://www.w3.org/2000/svg" width="24" height="24" viewBox="0 0 24 24">
<title>savings-12</title>
<path fill="#a7a8aa" d="M18.734 17.17c-0.155 0.12-0.272 0.281-0.336 0.467l-0.002 0.007-1.116 3.356h-3.28v-2h-2v2h-3.28l-1.116-3.356c-0.067-0.193-0.184-0.353-0.336-0.472l-0.002-0.002c-0.602-0.469-1.107-1.030-1.5-1.667l-0.016-0.027c-0.179-0.287-0.493-0.476-0.852-0.476-0 0-0 0-0 0h-1.898v-4h1.9c0.356-0 0.669-0.187 0.846-0.468l0.002-0.004c0.042-0.068 0.096-0.134 0.262-0.354 0.094-0.126 0.159-0.279 0.181-0.445l0.001-0.005 0.514-3.602 1.41 1.41c0.18 0.181 0.43 0.294 0.705 0.294 0.139 0 0.271-0.029 0.391-0.080l-0.006 0.002c1.115-0.473 2.411-0.748 3.771-0.748 0.008 0 0.016 0 0.024 0h-0.001c4.412 0 8 2.692 8 6 0 1.558-0.806 3.040-2.266 4.17zM16.966 5.664c-0.171-1.503-1.432-2.66-2.966-2.664h-0c-1.36 0-2.498 0.912-2.864 2.154-0.782 0.12-1.476 0.297-2.142 0.531l0.082-0.025-2.372-2.366c-0.181-0.183-0.432-0.297-0.709-0.297-0.502 0-0.918 0.372-0.986 0.855l-0.001 0.005-0.732 5.142h-2.276c-0.552 0-1 0.448-1 1v0 6c0 0.552 0.448 1 1 1v0h2.36c0.416 0.584 0.9 1.104 1.44 1.556l1.25 3.76c0.14 0.408 0.52 0.684 0.95 0.684h10c0.439-0 0.812-0.283 0.946-0.677l0.002-0.007 1.252-3.76c1.808-1.494 2.8-3.458 2.8-5.556 0-3.284-2.49-6.106-6.034-7.336z"></path>
</svg>
