<!-- Generated by IcoMoon.io -->
<svg version="1.1" xmlns="http://www.w3.org/2000/svg" width="24" height="24" viewBox="0 0 24 24">
<title>search-24</title>
<path fill="#a7a8aa" d="M22.53 21.47l-4.13-4.13c1.46-1.696 2.349-3.92 2.349-6.351 0-5.39-4.37-9.76-9.76-9.76s-9.76 4.37-9.76 9.76c0 5.39 4.37 9.76 9.76 9.76 2.431 0 4.655-0.889 6.364-2.36l-0.013 0.011 4.13 4.13zM2.75 11c0-4.556 3.694-8.25 8.25-8.25s8.25 3.694 8.25 8.25c0 4.556-3.694 8.25-8.25 8.25v0c-4.554-0.006-8.244-3.696-8.25-8.249v-0.001z"></path>
</svg>
