<!-- Generated by IcoMoon.io -->
<svg version="1.1" xmlns="http://www.w3.org/2000/svg" width="24" height="24" viewBox="0 0 24 24">
<title>search-12</title>
<path fill="#a7a8aa" d="M22.7 21.3l-4-4c1.448-1.723 2.328-3.966 2.328-6.414 0-5.523-4.477-10-10-10s-10 4.477-10 10c0 2.783 1.137 5.3 2.971 7.113l0.001 0.001c1.79 1.817 4.277 2.943 7.027 2.943 2.418 0 4.633-0.87 6.348-2.315l-0.015 0.012 4 4zM5.34 16.66c-1.45-1.448-2.346-3.449-2.346-5.66 0-4.418 3.582-8 8-8 2.208 0 4.207 0.894 5.654 2.34l-0-0c1.45 1.448 2.346 3.449 2.346 5.66 0 4.418-3.582 8-8 8-2.208 0-4.207-0.894-5.654-2.34l0 0z"></path>
</svg>
