<!-- Generated by IcoMoon.io -->
<svg version="1.1" xmlns="http://www.w3.org/2000/svg" width="24" height="24" viewBox="0 0 24 24">
<title>search-16</title>
<path fill="#a7a8aa" d="M23.040 21.975l-5.145-5.13c1.464-1.698 2.355-3.925 2.355-6.36 0-5.393-4.372-9.765-9.765-9.765s-9.765 4.372-9.765 9.765c0 5.393 4.372 9.765 9.765 9.765 2.435 0 4.662-0.891 6.373-2.366l-0.013 0.011 5.13 5.145zM4.665 16.335c-1.493-1.493-2.417-3.556-2.417-5.835 0-4.557 3.695-8.252 8.252-8.252 2.279 0 4.342 0.924 5.835 2.417v0c1.493 1.493 2.417 3.556 2.417 5.835 0 4.557-3.695 8.252-8.252 8.252-2.279 0-4.342-0.924-5.835-2.417v0z"></path>
</svg>
