<!-- Generated by IcoMoon.io -->
<svg version="1.1" xmlns="http://www.w3.org/2000/svg" width="24" height="24" viewBox="0 0 24 24">
<title>sensor-24</title>
<path fill="#a7a8aa" d="M16.77 7.23c1.222 1.22 1.978 2.907 1.978 4.77s-0.756 3.55-1.978 4.77l-0 0-1.060-1.060c0.951-0.95 1.54-2.264 1.54-3.715 0-2.899-2.351-5.25-5.25-5.25s-5.25 2.351-5.25 5.25c0 1.451 0.589 2.764 1.54 3.715l0 0-1.060 1.060c-1.323-1.236-2.148-2.991-2.148-4.938 0-3.728 3.022-6.75 6.75-6.75 1.948 0 3.703 0.825 4.935 2.144l0.004 0.004zM19.6 4.4c4.19 4.2 4.19 11 0 15.2l-1.060-1.060c1.674-1.674 2.71-3.987 2.71-6.541 0-5.109-4.141-9.25-9.25-9.25s-9.25 4.141-9.25 9.25c0 2.555 1.036 4.867 2.71 6.541l0 0-1.060 1.060c-4.061-4.22-3.997-10.914 0.144-15.056 4.142-4.14 10.836-4.204 15.056-0.144zM12 10c1.1 0.006 1.99 0.899 1.99 2 0 0.831-0.506 1.543-1.227 1.845l-0.013 0.005v9.15h-1.5v-9.15c-0.734-0.307-1.24-1.020-1.24-1.85 0-1.101 0.89-1.994 1.99-2h0.001z"></path>
</svg>
