<!-- Generated by IcoMoon.io -->
<svg version="1.1" xmlns="http://www.w3.org/2000/svg" width="24" height="24" viewBox="0 0 24 24">
<title>sensor-12</title>
<path fill="#a7a8aa" d="M19.778 4.22c1.989 1.979 3.22 4.719 3.22 7.747 0 0.012-0 0.024-0 0.035v-0.002c0 0.010 0 0.021 0 0.033 0 3.027-1.231 5.766-3.22 7.744l-0 0-1.414-1.414c1.628-1.618 2.636-3.859 2.636-6.336 0-0.010-0-0.020-0-0.030v0.002c0-0.008 0-0.018 0-0.028 0-2.476-1.008-4.717-2.636-6.335l-0-0c-1.62-1.628-3.862-2.636-6.339-2.636-0.009 0-0.018 0-0.026 0h0.001c-0.008-0-0.017-0-0.026-0-2.476 0-4.717 1.008-6.335 2.636l-0 0c-1.631 1.619-2.64 3.862-2.64 6.341 0 0.008 0 0.016 0 0.025v-0.001c0 2.404 0.938 4.664 2.64 6.364l-1.414 1.414c-1.991-1.98-3.224-4.721-3.224-7.75 0-0.011 0-0.021 0-0.032v0.002c0-2.936 1.146-5.7 3.224-7.776 1.979-1.99 4.719-3.222 7.746-3.222 0.011 0 0.021 0 0.032 0h-0.002c2.938 0 5.7 1.144 7.778 3.22zM16.95 7.052c1.266 1.26 2.050 3.004 2.050 4.93 0 0.006 0 0.012-0 0.019v-0.001c0 1.87-0.728 3.628-2.050 4.948l-1.414-1.414c0.904-0.899 1.464-2.143 1.464-3.518 0-0.005 0-0.011-0-0.016v0.001c0-0.005 0-0.011 0-0.018 0-1.375-0.56-2.62-1.464-3.518l-0-0c-1.886-1.888-5.184-1.888-7.070 0-0.906 0.899-1.466 2.144-1.466 3.52 0 0.005 0 0.011 0 0.016v-0.001c0 1.334 0.52 2.59 1.466 3.534l-1.414 1.414c-1.267-1.259-2.052-3.003-2.052-4.93 0-0.006 0-0.013 0-0.019v0.001c0-1.87 0.73-3.628 2.052-4.95 2.64-2.644 7.258-2.644 9.898 0zM12 10c1.105 0 2 0.895 2 2v0c-0.009 0.723-0.405 1.352-0.99 1.689l-0.010 0.005v8.306h-2v-8.306c-0.595-0.342-0.991-0.971-1-1.693l-0-0.001c0-1.105 0.895-2 2-2v0z"></path>
</svg>
