<!-- Generated by IcoMoon.io -->
<svg version="1.1" xmlns="http://www.w3.org/2000/svg" width="24" height="24" viewBox="0 0 24 24">
<title>sensor-16</title>
<path fill="#a7a8aa" d="M12 9.75c0.218-0.078 0.47-0.123 0.732-0.123 1.239 0 2.242 1.004 2.242 2.243 0 1.232-0.994 2.232-2.224 2.242h-0.001v9.138h-1.5v-9.138c-0.886-0.313-1.51-1.143-1.51-2.12 0-1.239 1.004-2.242 2.242-2.242 0.006 0 0.012 0 0.019 0h-0.001zM12 5.25c0.006-0 0.012-0 0.019-0 1.858 0 3.54 0.756 4.754 1.977l0 0c1.22 1.222 1.975 2.909 1.975 4.773s-0.755 3.551-1.975 4.773l0-0-1.061-1.061c0.948-0.951 1.535-2.263 1.535-3.712s-0.586-2.762-1.535-3.713l0 0c-1.985-1.983-5.44-1.983-7.425 0-0.948 0.951-1.535 2.263-1.535 3.712s0.586 2.762 1.535 3.713l-0-0-1.061 1.061c-1.22-1.222-1.975-2.909-1.975-4.773s0.754-3.551 1.975-4.773l-0 0c1.215-1.221 2.896-1.977 4.754-1.977 0.007 0 0.013 0 0.020 0h-0.001zM19.956 4.046c4.386 4.386 4.386 11.523 0 15.909l-1.061-1.061c1.761-1.766 2.85-4.203 2.85-6.894s-1.089-5.128-2.851-6.894l0 0c-1.766-1.762-4.203-2.852-6.895-2.852s-5.129 1.090-6.895 2.852l0-0c-1.762 1.765-2.852 4.202-2.852 6.894s1.090 5.129 2.852 6.894l-0-0-1.060 1.061c-4.386-4.386-4.386-11.523 0-15.909 4.385-4.386 11.524-4.386 15.91 0z"></path>
</svg>
