<!-- Generated by IcoMoon.io -->
<svg version="1.1" xmlns="http://www.w3.org/2000/svg" width="24" height="24" viewBox="0 0 24 24">
<title>settings-16</title>
<path fill="#a7a8aa" d="M16.35 22.5c-0.006 0-0.014 0-0.021 0-0.175 0-0.335-0.062-0.46-0.166l0.001 0.001-2.67-2.175c-0.795 0.12-1.605 0.12-2.4 0l-2.67 2.235c-0.127 0.098-0.289 0.158-0.465 0.158s-0.338-0.059-0.467-0.159l0.002 0.001-3.63-2.61c-0.191-0.138-0.313-0.359-0.313-0.61 0-0.105 0.021-0.204 0.060-0.295l-0.002 0.005 1.32-3.255c-0.335-0.647-0.591-1.397-0.728-2.188l-0.007-0.047-3-1.86c-0.205-0.139-0.337-0.371-0.337-0.634 0-0.084 0.014-0.165 0.039-0.241l-0.002 0.005 1.395-4.275c0.104-0.308 0.39-0.526 0.727-0.526 0.013 0 0.027 0 0.040 0.001l-0.002-0 3.495 0.24c0.555-0.539 1.186-1.003 1.875-1.373l0.045-0.022 0.825-3.39c0.089-0.331 0.387-0.57 0.74-0.57 0.004 0 0.007 0 0.011 0h4.499c0.003-0 0.007-0 0.010-0 0.353 0 0.65 0.239 0.739 0.565l0.001 0.005 0.84 3.39c0.703 0.372 1.35 0.84 1.92 1.395l3.495-0.24c0.008-0 0.018-0 0.028-0 0.34 0 0.629 0.217 0.736 0.52l0.002 0.005 1.395 4.275c0.022 0.068 0.035 0.146 0.035 0.228 0 0.268-0.138 0.504-0.347 0.641l-0.003 0.002-3 1.86c-0.144 0.838-0.4 1.588-0.756 2.279l0.021-0.044 1.32 3.255c0.037 0.086 0.058 0.185 0.058 0.29 0 0.25-0.123 0.472-0.311 0.608l-0.002 0.002-3.63 2.715c-0.067 0.020-0.145 0.031-0.225 0.031s-0.158-0.011-0.231-0.033l0.006 0.001zM13.35 18.54c0.188 0.008 0.359 0.074 0.497 0.181l-0.002-0.001 2.475 2.085 2.7-1.95-1.23-3c-0.049-0.094-0.078-0.205-0.078-0.322s0.029-0.229 0.080-0.326l-0.002 0.004c0.384-0.685 0.654-1.486 0.762-2.338l0.003-0.032c0.028-0.229 0.158-0.423 0.342-0.538l0.003-0.002 2.775-1.74-1.020-3.165-3.255 0.225c-0.002 0-0.004 0-0.006 0-0.231 0-0.44-0.092-0.594-0.24l0 0c-0.569-0.612-1.245-1.116-2-1.482l-0.040-0.018c-0.204-0.091-0.355-0.272-0.404-0.49l-0.001-0.005-0.69-3.135h-3.33l-0.795 3.165c-0.050 0.223-0.201 0.404-0.401 0.493l-0.004 0.002c-0.795 0.384-1.471 0.888-2.036 1.496l-0.004 0.004c-0.145 0.148-0.346 0.241-0.57 0.241-0.011 0-0.021-0-0.032-0.001l0.002 0-3.255-0.24-1.020 3.165 2.775 1.74c0.187 0.117 0.317 0.311 0.345 0.536l0 0.004c0.102 0.831 0.36 1.635 0.765 2.37 0.049 0.094 0.078 0.205 0.078 0.322s-0.029 0.229-0.080 0.326l0.002-0.004-1.23 3 2.7 1.95 2.475-2.085c0.13-0.111 0.3-0.179 0.486-0.179 0.051 0 0.101 0.005 0.149 0.015l-0.005-0.001c0.84 0.18 1.71 0.18 2.55 0l0.12-0.030zM12 15c-1.657 0-3-1.343-3-3s1.343-3 3-3v0c1.657 0 3 1.343 3 3s-1.343 3-3 3v0zM12 10.5c-0.828 0-1.5 0.672-1.5 1.5s0.672 1.5 1.5 1.5v0c0.828 0 1.5-0.672 1.5-1.5s-0.672-1.5-1.5-1.5v0z"></path>
</svg>
