<!-- Generated by IcoMoon.io -->
<svg version="1.1" xmlns="http://www.w3.org/2000/svg" width="24" height="24" viewBox="0 0 24 24">
<title>settings-24</title>
<path fill="#a7a8aa" d="M12 15.75c-2.071 0-3.75-1.679-3.75-3.75s1.679-3.75 3.75-3.75v0c2.071 0 3.75 1.679 3.75 3.75s-1.679 3.75-3.75 3.75v0zM12 9.75c-1.243 0-2.25 1.007-2.25 2.25s1.007 2.25 2.25 2.25v0c1.243 0 2.25-1.007 2.25-2.25s-1.007-2.25-2.25-2.25v0zM16.26 22c-0.184-0.001-0.352-0.069-0.481-0.181l0.001 0.001-2.6-2.18c-0.355 0.057-0.764 0.090-1.18 0.090s-0.825-0.033-1.224-0.096l0.044 0.006-2.6 2.18c-0.126 0.098-0.286 0.158-0.46 0.158s-0.334-0.059-0.462-0.159l0.002 0.001-3.24-2.3c-0.187-0.138-0.306-0.357-0.306-0.605 0-0.103 0.021-0.201 0.058-0.29l-0.002 0.005 1.27-3.15c-0.337-0.646-0.592-1.395-0.724-2.186l-0.006-0.044-2.88-1.8c-0.211-0.135-0.348-0.368-0.348-0.633 0-0.085 0.014-0.166 0.040-0.242l-0.002 0.005 1.23-3.8c0.092-0.305 0.371-0.523 0.7-0.523 0.025 0 0.049 0.001 0.073 0.004l-0.003-0 3.4 0.23c0.543-0.535 1.165-0.992 1.847-1.35l0.043-0.020 0.82-3.3c0.087-0.329 0.38-0.567 0.73-0.57h4c0.35 0.003 0.643 0.242 0.729 0.565l0.001 0.005 0.82 3.3c0.725 0.378 1.347 0.834 1.891 1.371l-0.001-0.001 3.4-0.23c0.021-0.002 0.045-0.003 0.070-0.003 0.33 0 0.608 0.218 0.699 0.518l0.001 0.005 1.23 3.8c0.024 0.071 0.038 0.152 0.038 0.237 0 0.265-0.138 0.498-0.345 0.632l-0.003 0.002-2.88 1.8c-0.138 0.835-0.393 1.584-0.75 2.272l0.020-0.042 1.27 3.15c0.036 0.084 0.056 0.182 0.056 0.285 0 0.247-0.12 0.467-0.304 0.603l-0.002 0.001-3.24 2.35c-0.116 0.082-0.261 0.13-0.416 0.13-0.008 0-0.017-0-0.025-0l0.001 0zM13.39 18.090c0.003-0 0.007-0 0.011-0 0.181 0 0.345 0.068 0.469 0.181l-0.001-0.001 2.42 2 2.29-1.66-1.18-2.89c-0.047-0.095-0.075-0.207-0.075-0.325s0.028-0.23 0.077-0.329l-0.002 0.004c0.389-0.678 0.662-1.473 0.767-2.319l0.003-0.031c0.024-0.235 0.152-0.436 0.337-0.558l2.683-1.672-0.83-2.69-3.16 0.2c-0.012 0.001-0.027 0.001-0.041 0.001-0.225 0-0.428-0.097-0.568-0.25l-0.001-0.001c-0.553-0.6-1.218-1.089-1.962-1.434l-0.038-0.016c-0.207-0.095-0.362-0.275-0.419-0.495l-0.001-0.005-0.77-3.070h-2.81l-0.77 3.090c-0.058 0.225-0.213 0.405-0.415 0.498l-0.005 0.002c-0.782 0.361-1.447 0.85-1.996 1.446l-0.004 0.004c-0.137 0.143-0.329 0.232-0.543 0.232-0.020 0-0.040-0.001-0.060-0.002l-3.157-0.2-0.87 2.69 2.68 1.67c0.188 0.124 0.316 0.325 0.34 0.557l0 0.003c0.1 0.826 0.361 1.625 0.77 2.35 0.1 0.205 0.1 0.445 0 0.65l-1.14 2.93 2.29 1.66 2.42-2c0.125-0.111 0.29-0.178 0.47-0.178 0.057 0 0.112 0.007 0.164 0.019l-0.005-0.001c0.373 0.076 0.801 0.12 1.24 0.12s0.867-0.044 1.281-0.127l-0.041 0.007 0.15-0.060z"></path>
</svg>
