<!-- Generated by IcoMoon.io -->
<svg version="1.1" xmlns="http://www.w3.org/2000/svg" width="24" height="24" viewBox="0 0 24 24">
<title>settings-12</title>
<path fill="#a7a8aa" d="M16.26 22.26c-0.225-0.026-0.425-0.12-0.581-0.261l0.001 0.001-1.82-1.3c-0.558 0.143-1.2 0.225-1.86 0.225s-1.301-0.082-1.914-0.237l0.054 0.012-1.82 1.3c-0.161 0.116-0.362 0.185-0.58 0.185s-0.419-0.069-0.583-0.187l0.003 0.002-3.16-2.28c-0.25-0.176-0.412-0.463-0.412-0.788 0-0.112 0.019-0.219 0.054-0.318l-0.002 0.007 0.66-2.12c-0.597-1.025-1.003-2.233-1.137-3.521l-0.003-0.039-1.8-1.32c-0.25-0.184-0.41-0.477-0.41-0.807 0-0.112 0.018-0.219 0.052-0.32l-0.002 0.007 1.24-3.8c0.121-0.381 0.453-0.66 0.856-0.7l0.004-0h2.24c0.84-0.93 1.86-1.68 3-2.2l0.72-2.12c0.137-0.396 0.505-0.677 0.94-0.68h4c0.435 0.003 0.803 0.284 0.938 0.673l0.002 0.007 0.72 2.12c1.14 0.52 2.16 1.27 3 2.2h2.24c0.44 0.006 0.81 0.295 0.938 0.693l0.002 0.007 1.24 3.8c0.032 0.093 0.050 0.201 0.050 0.313 0 0.33-0.16 0.623-0.407 0.806l-0.003 0.002-1.8 1.32c-0.137 1.327-0.543 2.535-1.163 3.603l0.023-0.043 0.66 2.12c0.033 0.093 0.052 0.2 0.052 0.312 0 0.325-0.162 0.613-0.409 0.786l-0.003 0.002-3.24 2.28c-0.154 0.142-0.354 0.237-0.576 0.26l-0.004 0zM14 18.7c0.006-0 0.013-0 0.020-0 0.21 0 0.405 0.068 0.563 0.182l-0.003-0.002 1.62 1.16 2-1.52-0.58-1.84c-0.034-0.094-0.054-0.202-0.054-0.315 0-0.204 0.065-0.394 0.176-0.548l-0.002 0.003c0.643-0.979 1.046-2.167 1.1-3.446l0-0.014c0.016-0.31 0.168-0.582 0.398-0.758l0.002-0.002 1.6-1.16-0.68-2.44h-2c-0 0-0.001 0-0.001 0-0.305 0-0.578-0.14-0.758-0.358l-0.001-0.002c-0.757-0.944-1.733-1.682-2.853-2.143l-0.047-0.017c-0.242-0.131-0.421-0.35-0.498-0.613l-0.002-0.007-0.72-1.86h-2.56l-0.62 1.86c-0.101 0.287-0.318 0.51-0.593 0.618l-0.007 0.002c-1.173 0.469-2.156 1.201-2.91 2.127l-0.010 0.013c-0.178 0.228-0.451 0.375-0.759 0.38h-2.001l-0.8 2.44 1.6 1.16c0.232 0.178 0.384 0.45 0.4 0.758l0 0.002c0.054 1.293 0.457 2.481 1.116 3.486l-0.016-0.026c0.109 0.151 0.174 0.341 0.174 0.545 0 0.113-0.020 0.221-0.056 0.321l0.002-0.007-0.58 1.84 2 1.52 1.62-1.16c0.16-0.11 0.359-0.176 0.572-0.176 0.095 0 0.187 0.013 0.275 0.037l-0.007-0.002c0.538 0.171 1.158 0.27 1.8 0.27s1.262-0.099 1.844-0.282l-0.043 0.012c0.068-0.027 0.146-0.042 0.228-0.042 0.018 0 0.036 0.001 0.054 0.002l-0.002-0zM12 16c-2.209 0-4-1.791-4-4s1.791-4 4-4v0c2.209 0 4 1.791 4 4s-1.791 4-4 4v0zM12 10c-1.105 0-2 0.895-2 2s0.895 2 2 2v0c1.105 0 2-0.895 2-2s-0.895-2-2-2v0z"></path>
</svg>
