<!-- Generated by IcoMoon.io -->
<svg version="1.1" xmlns="http://www.w3.org/2000/svg" width="24" height="24" viewBox="0 0 24 24">
<title>success-24</title>
<path fill="#a7a8aa" d="M20.53 6.47c0.14 0.14 0.22 0.331 0.22 0.53v15c-0.006 0.412-0.338 0.744-0.749 0.75h-16.001c-0.412-0.006-0.744-0.338-0.75-0.749v-20.001c0.006-0.412 0.338-0.744 0.749-0.75h11.001c0.199 0 0.39 0.080 0.53 0.22zM19.19 7.25l-4.4-4.4v4.4zM4.75 21.25h14.5v-12.5h-5.21c-0.414 0-0.75-0.336-0.75-0.75v0-5.25h-8.54zM11 15.94l3.45-3.45 1.060 1.060-4 4c-0.13 0.136-0.312 0.22-0.514 0.22-0.006 0-0.011-0-0.017-0l0.001 0c-0.001 0-0.002 0-0.003 0-0.206 0-0.392-0.084-0.526-0.22l-2-2 1.060-1.060z"></path>
</svg>
