<!-- Generated by IcoMoon.io -->
<svg version="1.1" xmlns="http://www.w3.org/2000/svg" width="24" height="24" viewBox="0 0 24 24">
<title>success-12</title>
<path fill="#a7a8aa" d="M20.7 5.3c0.185 0.172 0.3 0.417 0.3 0.689 0 0.004-0 0.008-0 0.012v-0.001 16c0 0.552-0.448 1-1 1v0h-16c-0.552 0-1-0.448-1-1v0-20c0-0.552 0.448-1 1-1v0h12c0.003-0 0.007-0 0.011-0 0.272 0 0.516 0.115 0.688 0.3l0.001 0.001zM5 21h14v-14h-3c-0.552 0-1-0.448-1-1v0-3h-10zM11 15.58l5.3-5.28 1.4 1.4-6 6c-0.176 0.187-0.424 0.303-0.7 0.303s-0.524-0.116-0.7-0.303l-0-0-3-3 1.4-1.4z"></path>
</svg>
