<!-- Generated by IcoMoon.io -->
<svg version="1.1" xmlns="http://www.w3.org/2000/svg" width="24" height="24" viewBox="0 0 24 24">
<title>temperature-12</title>
<path fill="#a7a8aa" d="M12 21c2.758 0 5-2.244 5-5 0-1.416-0.594-2.73-1.67-3.7-0.203-0.184-0.33-0.449-0.33-0.743 0-0 0-0.001 0-0.001v0-5.556c0-1.654-1.346-3-3-3s-3 1.346-3 3v5.556c0 0.284-0.12 0.554-0.33 0.744-1.026 0.909-1.67 2.229-1.67 3.7v0c0 2.756 2.242 5 5 5zM17 11.132c1.276 1.308 2 3.058 2 4.868 0 3.86-3.14 7-7 7s-7-3.14-7-7c0-1.81 0.724-3.56 2-4.868v-5.132c0-2.756 2.242-5 5-5s5 2.244 5 5v5.132zM13 14.306c0.588 0.348 1 0.96 1 1.694 0 1.105-0.895 2-2 2s-2-0.895-2-2v0c0-0.734 0.412-1.346 1-1.694v-6.306h2v6.306z"></path>
</svg>
