<!-- Generated by IcoMoon.io -->
<svg version="1.1" xmlns="http://www.w3.org/2000/svg" width="24" height="24" viewBox="0 0 24 24">
<title>temperature-24</title>
<path fill="#a7a8aa" d="M15.75 12.66v0.040c1.228 1.057 2 2.613 2 4.35 0 1.792-0.822 3.391-2.11 4.442l-0.010 0.008c-0.984 0.802-2.254 1.288-3.638 1.288-0.429 0-0.848-0.047-1.25-0.136l0.038 0.007c-2.624-0.564-4.563-2.865-4.563-5.618 0-1.753 0.786-3.322 2.024-4.375l0.008-0.007v-7.66c0-2.071 1.679-3.75 3.75-3.75s3.75 1.679 3.75 3.75v0 7.66zM14.68 20.3c0.961-0.782 1.571-1.964 1.571-3.29 0-1.383-0.664-2.611-1.69-3.383l-0.011-0.008-0.3-0.22v-8.4c0-1.243-1.007-2.25-2.25-2.25s-2.25 1.007-2.25 2.25v0 8.4l-0.3 0.22c-1.041 0.779-1.707 2.010-1.707 3.395 0 2.020 1.416 3.709 3.309 4.129l0.028 0.005c0.274 0.062 0.588 0.098 0.911 0.098 1.022 0 1.961-0.357 2.698-0.954l-0.008 0.006zM12.75 15.15c0.739 0.305 1.25 1.020 1.25 1.854 0 1.105-0.895 2-2 2s-2-0.895-2-2c0-0.834 0.511-1.549 1.237-1.849l0.013-0.005v-7.15h1.5v7.15z"></path>
</svg>
