<!-- Generated by IcoMoon.io -->
<svg version="1.1" xmlns="http://www.w3.org/2000/svg" width="24" height="24" viewBox="0 0 24 24">
<title>temperature-16</title>
<path fill="#a7a8aa" d="M15.75 12.57c1.377 1.109 2.25 2.794 2.25 4.684 0 3.314-2.686 6-6 6s-6-2.686-6-6c0-1.889 0.873-3.575 2.238-4.675l0.012-0.009v-8.070c0-2.071 1.679-3.75 3.75-3.75s3.75 1.679 3.75 3.75v0 8.070zM12 21.75c0.023 0 0.051 0.001 0.079 0.001 2.485 0 4.5-2.015 4.5-4.5 0-1.559-0.793-2.933-1.997-3.74l-0.016-0.010c-0.179-0.125-0.299-0.325-0.315-0.553l-0-0.002v-8.445c0-1.243-1.007-2.25-2.25-2.25s-2.25 1.007-2.25 2.25v0 8.385c0 0.003 0 0.008 0 0.012 0 0.249-0.124 0.469-0.313 0.602l-0.002 0.002c-1.221 0.818-2.014 2.192-2.014 3.751 0 2.485 2.015 4.5 4.5 4.5 0.028 0 0.055-0 0.083-0.001l-0.004 0zM12.75 15.135c0.881 0.318 1.5 1.148 1.5 2.121 0 1.243-1.007 2.25-2.25 2.25s-2.25-1.007-2.25-2.25c0-0.974 0.619-1.803 1.484-2.116l0.016-0.005v-7.635h1.5v7.635z"></path>
</svg>
