<!-- Generated by IcoMoon.io -->
<svg version="1.1" xmlns="http://www.w3.org/2000/svg" width="24" height="24" viewBox="0 0 24 24">
<title>user-default-16</title>
<path fill="#a7a8aa" d="M9.058 10.35c-1.401-0.957-2.308-2.547-2.308-4.349 0-2.899 2.351-5.25 5.25-5.25s5.25 2.351 5.25 5.25c0 1.802-0.908 3.391-2.29 4.337l-0.018 0.012c2.703 1.174 4.558 3.82 4.558 6.9v0 3c0 2.82-7.425 3-7.5 3 0 0-7.5-0.18-7.5-3v-3c0-3.080 1.856-5.726 4.51-6.881l0.048-0.019zM12 2.25c-2.071 0-3.75 1.679-3.75 3.75s1.679 3.75 3.75 3.75v0c2.071 0 3.75-1.679 3.75-3.75s-1.679-3.75-3.75-3.75v0zM12 11.25c-3.314 0-6 2.686-6 6v0 3c0.090 0.555 3.090 1.5 6 1.5s5.91-0.945 6-1.5v-3c0-3.314-2.686-6-6-6v0z"></path>
</svg>
