<!-- Generated by IcoMoon.io -->
<svg version="1.1" xmlns="http://www.w3.org/2000/svg" width="24" height="24" viewBox="0 0 24 24">
<title>user-default-24</title>
<path fill="#a7a8aa" d="M14.76 10.85c1.211-0.872 1.99-2.278 1.99-3.866 0-2.623-2.127-4.75-4.75-4.75s-4.75 2.127-4.75 4.75c0 1.588 0.779 2.994 1.976 3.856l0.014 0.010c-2.373 1.077-3.994 3.424-4 6.149v2.001c0 1.88 4 2.75 6.75 2.75s6.75-0.87 6.75-2.75v-2c-0.002-2.722-1.616-5.067-3.938-6.133l-0.042-0.017zM8.75 7c0-1.795 1.455-3.25 3.25-3.25s3.25 1.455 3.25 3.25c0 1.795-1.455 3.25-3.25 3.25v0c-1.793-0.006-3.244-1.457-3.25-3.249v-0.001zM12 20.25c-2.75 0-5-0.84-5.25-1.3v-1.95c0-2.899 2.351-5.25 5.25-5.25s5.25 2.351 5.25 5.25v0 1.92c-0.25 0.46-2.45 1.33-5.25 1.33z"></path>
</svg>
