<!-- Generated by IcoMoon.io -->
<svg version="1.1" xmlns="http://www.w3.org/2000/svg" width="24" height="24" viewBox="0 0 24 24">
<title>user-default-12</title>
<path fill="#a7a8aa" d="M15.3 9.74c1.045-0.921 1.7-2.262 1.7-3.756 0-2.761-2.239-5-5-5s-5 2.239-5 5c0 1.494 0.655 2.835 1.695 3.752l0.005 0.005c-2.787 1.284-4.689 4.049-4.7 7.258v3.002c0 2.46 6.42 3 8 3s8-0.54 8-3v-3c-0.011-3.211-1.913-5.976-4.65-7.239l-0.050-0.021zM9 6c0-1.657 1.343-3 3-3s3 1.343 3 3v0c0 1.657-1.343 3-3 3s-3-1.343-3-3v0zM18 19.78c-1.682 0.772-3.65 1.223-5.722 1.223-0.098 0-0.195-0.001-0.292-0.003l0.015 0c-0.083 0.002-0.18 0.003-0.278 0.003-2.073 0-4.040-0.45-5.81-1.259l0.087 0.036v-2.78c0-3.314 2.686-6 6-6s6 2.686 6 6v0 2.78z"></path>
</svg>
