<!-- Generated by IcoMoon.io -->
<svg version="1.1" xmlns="http://www.w3.org/2000/svg" width="24" height="24" viewBox="0 0 24 24">
<title>user-add-24</title>
<path fill="#a7a8aa" d="M16.54 14.37h-0.010c-0.926-1.574-2.612-2.614-4.54-2.614-2.897 0-5.246 2.347-5.25 5.243v2h-1.5v-2c0.006-2.726 1.627-5.073 3.958-6.133l0.042-0.017c-1.211-0.872-1.99-2.278-1.99-3.866 0-2.623 2.127-4.75 4.75-4.75s4.75 2.127 4.75 4.75c0 1.588-0.779 2.994-1.976 3.856l-0.014 0.010c1.306 0.595 2.361 1.55 3.063 2.738l0.017 0.032-1.3 0.75zM8.75 7c0.006 1.793 1.457 3.244 3.249 3.25h0.001c1.795 0 3.25-1.455 3.25-3.25s-1.455-3.25-3.25-3.25c-1.795 0-3.25 1.455-3.25 3.25v0zM21 18.25v1.5h-2.25v2.25h-1.5v-2.25h-2.25v-1.5h2.25v-2.25h1.5v2.25h2.25z"></path>
</svg>
