<!-- Generated by IcoMoon.io -->
<svg version="1.1" xmlns="http://www.w3.org/2000/svg" width="24" height="24" viewBox="0 0 24 24">
<title>user-filled-24</title>
<path fill="#a7a8aa" d="M16.75 7c-0.018 0.301-0.061 0.581-0.127 0.853l0.007-0.033v0.18c-0.060 0.299-0.139 0.56-0.241 0.81l0.011-0.030c-0.031 0.086-0.065 0.158-0.104 0.227l0.004-0.007c-0.099 0.189-0.199 0.35-0.308 0.502l0.008-0.012-0.16 0.32c-0.1 0.14-0.21 0.26-0.32 0.39l-0.26 0.27c-0.141 0.127-0.294 0.251-0.453 0.368l-0.017 0.012c-0.763 0.563-1.722 0.9-2.76 0.9s-1.997-0.338-2.773-0.91l0.013 0.009c-0.176-0.129-0.329-0.253-0.476-0.385l0.006 0.005-0.26-0.27c-0.11-0.13-0.22-0.25-0.32-0.39l-0.22-0.32c-0.101-0.14-0.201-0.301-0.289-0.468l-0.011-0.022c-0.043-0.065-0.086-0.14-0.125-0.218l-0.005-0.012c-0.086-0.205-0.165-0.452-0.224-0.707l-0.006-0.033v-0.18c-0.052-0.253-0.085-0.546-0.090-0.846l-0-0.004c0-2.623 2.127-4.75 4.75-4.75s4.75 2.127 4.75 4.75v0zM16.12 11.68c1.602 1.239 2.624 3.16 2.63 5.319v2.001c0 1.88-4 2.75-6.75 2.75s-6.75-0.87-6.75-2.75v-2c0.006-2.16 1.028-4.081 2.615-5.308l0.015-0.012c1.089 0.975 2.535 1.57 4.12 1.57s3.031-0.596 4.126-1.576l-0.006 0.005z"></path>
</svg>
