<!-- Generated by IcoMoon.io -->
<svg version="1.1" xmlns="http://www.w3.org/2000/svg" width="24" height="24" viewBox="0 0 24 24">
<title>user-add-12</title>
<path fill="#a7a8aa" d="M17.6 11.28l-1.4 1.44c-1.081-1.061-2.564-1.715-4.2-1.715-3.312 0-5.997 2.684-6 5.995v3h-2v-3c0.011-3.211 1.913-5.976 4.65-7.239l0.050-0.021c-1.045-0.921-1.7-2.262-1.7-3.756 0-2.761 2.239-5 5-5s5 2.239 5 5c0 1.494-0.655 2.835-1.695 3.752l-0.005 0.005c0.888 0.398 1.649 0.915 2.303 1.543l-0.003-0.003zM9 6c0 1.657 1.343 3 3 3s3-1.343 3-3v0c0-1.657-1.343-3-3-3s-3 1.343-3 3v0zM23 18v2h-3v3h-2v-3h-3v-2h3v-3h2v3h3z"></path>
</svg>
