<!-- Generated by IcoMoon.io -->
<svg version="1.1" xmlns="http://www.w3.org/2000/svg" width="24" height="24" viewBox="0 0 24 24">
<title>user-add-16</title>
<path fill="#a7a8aa" d="M16.98 13.89c-1.093-1.61-2.915-2.653-4.98-2.653-3.314 0-6 2.686-6 6 0 0.005 0 0.009 0 0.014v-0.001 3h-1.5v-3c-0-0.008-0-0.017-0-0.026 0-3.057 1.829-5.687 4.452-6.855l0.048-0.019c-1.367-0.961-2.25-2.532-2.25-4.308 0-2.899 2.351-5.25 5.25-5.25s5.25 2.351 5.25 5.25c0 1.777-0.883 3.347-2.233 4.297l-0.017 0.011c1.33 0.598 2.423 1.523 3.208 2.674l0.017 0.026-1.245 0.84zM8.25 6c0 2.071 1.679 3.75 3.75 3.75s3.75-1.679 3.75-3.75v0c0-2.071-1.679-3.75-3.75-3.75s-3.75 1.679-3.75 3.75v0zM22.5 18.75v1.5h-3v3h-1.5v-3h-3v-1.5h3v-3h1.5v3h3z"></path>
</svg>
