<!-- Generated by IcoMoon.io -->
<svg version="1.1" xmlns="http://www.w3.org/2000/svg" width="24" height="24" viewBox="0 0 24 24">
<title>user-filled-16</title>
<path fill="#a7a8aa" d="M17.115 7.14c-0.109 0.338-0.246 0.631-0.415 0.902l0.010-0.017v0.135c-0.117 0.276-0.248 0.513-0.399 0.734l0.009-0.014v0.12c-0.22 0.237-0.46 0.449-0.721 0.635l-0.014 0.010-0.135 0.135c-0.938 0.909-2.219 1.469-3.63 1.469s-2.692-0.56-3.631-1.47l0.001 0.001-0.135-0.135c-0.2-0.202-0.383-0.423-0.545-0.659l-0.010-0.016v-0.12c-0.142-0.207-0.273-0.444-0.38-0.693l-0.010-0.027v-0.135c-0.112-0.245-0.205-0.531-0.266-0.829l-0.004-0.026v-0.195c-0.051-0.28-0.083-0.606-0.090-0.938l-0-0.007c0-2.899 2.351-5.25 5.25-5.25s5.25 2.351 5.25 5.25v0c-0.024 0.35-0.072 0.673-0.143 0.987l0.008-0.042v0.195zM16.32 11.145c1.927 1.37 3.171 3.591 3.18 6.104v3.001c0 2.82-7.5 3-7.5 3s-7.5-0.18-7.5-3v-3c0.009-2.514 1.253-4.735 3.157-6.089l0.023-0.016c1.152 0.998 2.665 1.605 4.32 1.605s3.168-0.608 4.328-1.612l-0.008 0.007z"></path>
</svg>
