<!-- Generated by IcoMoon.io -->
<svg version="1.1" xmlns="http://www.w3.org/2000/svg" width="24" height="24" viewBox="0 0 24 24">
<title>visible-24</title>
<path fill="#a7a8aa" d="M22.657 11.638c0.059 0.104 0.093 0.229 0.093 0.362s-0.035 0.258-0.095 0.366l0.002-0.004c-2.124 3.792-6.093 6.327-10.66 6.388l-0.008 0c-4.567-0.067-8.527-2.601-10.614-6.326l-0.032-0.062c-0.059-0.104-0.093-0.229-0.093-0.362s0.035-0.258 0.095-0.366l-0.002 0.004c2.124-3.792 6.093-6.327 10.66-6.388l0.008-0c4.567 0.067 8.527 2.601 10.614 6.326l0.032 0.062zM12.010 6.75c-3.866 0.057-7.236 2.125-9.117 5.202l-0.027 0.048c1.903 3.12 5.265 5.187 9.114 5.25l0.009 0c3.866-0.057 7.236-2.125 9.118-5.202l0.027-0.048c-1.903-3.12-5.265-5.187-9.114-5.25l-0.009-0zM11.999 15.75c-2.071 0-3.75-1.679-3.75-3.75s1.679-3.75 3.75-3.75v0c2.071 0 3.75 1.679 3.75 3.75s-1.679 3.75-3.75 3.75v0zM11.999 14.25c1.243 0 2.25-1.007 2.25-2.25s-1.007-2.25-2.25-2.25v0c-1.243 0-2.25 1.007-2.25 2.25s1.007 2.25 2.25 2.25v0z"></path>
</svg>
