<!-- Generated by IcoMoon.io -->
<svg version="1.1" xmlns="http://www.w3.org/2000/svg" width="24" height="24" viewBox="0 0 24 24">
<title>visible-16</title>
<path fill="#a7a8aa" d="M12 19.5c-7.11 0-10.995-6.84-11.16-7.14-0.057-0.104-0.090-0.228-0.090-0.36s0.033-0.256 0.092-0.364l-0.002 0.004c0.165-0.3 4.050-7.14 11.16-7.14s10.995 6.84 11.16 7.14c0.12 0.225 0.12 0.495 0 0.72-0.165 0.3-4.050 7.14-11.16 7.14zM2.385 12c0.87 1.35 4.275 6 9.615 6s8.745-4.65 9.615-6c-0.87-1.35-4.275-6-9.615-6s-8.745 4.65-9.615 6zM12 16.5c-2.485 0-4.5-2.015-4.5-4.5s2.015-4.5 4.5-4.5v0c2.485 0 4.5 2.015 4.5 4.5s-2.015 4.5-4.5 4.5v0zM12 9c-1.657 0-3 1.343-3 3s1.343 3 3 3v0c1.657 0 3-1.343 3-3s-1.343-3-3-3v0z"></path>
</svg>
