<!-- Generated by IcoMoon.io -->
<svg version="1.1" xmlns="http://www.w3.org/2000/svg" width="24" height="24" viewBox="0 0 24 24">
<title>visible-12</title>
<path fill="#a7a8aa" d="M12 20c-7.58 0-10.78-7.3-10.92-7.6-0.048-0.119-0.075-0.256-0.075-0.4s0.028-0.281 0.078-0.407l-0.003 0.007c0.14-0.3 3.34-7.6 10.92-7.6s10.78 7.3 10.92 7.6c0.048 0.119 0.075 0.256 0.075 0.4s-0.028 0.281-0.078 0.407l0.003-0.007c-0.14 0.3-3.34 7.6-10.92 7.6zM3.1 12c1.63 3.414 4.965 5.779 8.873 5.999l0.027 0.001c5.36 0 8.16-4.62 8.9-6-1.63-3.414-4.965-5.779-8.873-5.999l-0.027-0.001c-5.36 0-8.16 4.62-8.9 6zM12 16c-2.209 0-4-1.791-4-4s1.791-4 4-4v0c2.209 0 4 1.791 4 4s-1.791 4-4 4v0zM12 10c-1.105 0-2 0.895-2 2s0.895 2 2 2v0c1.105 0 2-0.895 2-2s-0.895-2-2-2v0z"></path>
</svg>
