<!-- Generated by IcoMoon.io -->
<svg version="1.1" xmlns="http://www.w3.org/2000/svg" width="24" height="24" viewBox="0 0 24 24">
<title>warning-critical-outline-16</title>
<path fill="#a7a8aa" d="M11.25 8.25h1.5v4.5h-1.5zM11.25 14.25h1.5v1.5h-1.5zM12 23.25c-0.003 0-0.006 0-0.009 0-0.204 0-0.387-0.086-0.516-0.225l-0-0-10.5-10.5c-0.14-0.132-0.227-0.318-0.227-0.525s0.087-0.393 0.227-0.525l0-0 10.5-10.5c0.132-0.14 0.318-0.227 0.525-0.227s0.393 0.087 0.525 0.227l0 0 10.5 10.5c0.14 0.132 0.227 0.318 0.227 0.525s-0.087 0.393-0.227 0.525l-0 0-10.5 10.5c-0.129 0.139-0.313 0.225-0.516 0.225-0.003 0-0.006-0-0.009-0h0zM2.565 12l9.435 9.435 9.435-9.435-9.435-9.435z"></path>
</svg>
