<!-- Generated by IcoMoon.io -->
<svg version="1.1" xmlns="http://www.w3.org/2000/svg" width="24" height="24" viewBox="0 0 24 24">
<title>warning-medium-outline-16</title>
<path fill="#a7a8aa" d="M22.5 21.75h-21c-0.412-0.003-0.746-0.337-0.746-0.75 0-0.138 0.037-0.267 0.102-0.379l-0.002 0.004 10.5-18c0.138-0.214 0.375-0.354 0.645-0.354s0.507 0.14 0.643 0.351l0.002 0.003 10.5 18c0.063 0.108 0.101 0.237 0.101 0.375 0 0.413-0.333 0.747-0.745 0.75h-0zM2.805 20.25h18.39l-9.195-15.75zM11.25 10.5h1.5v4.5h-1.5zM11.25 16.5h1.5v1.5h-1.5z"></path>
</svg>
