<!-- Generated by IcoMoon.io -->
<svg version="1.1" xmlns="http://www.w3.org/2000/svg" width="24" height="24" viewBox="0 0 24 24">
<title>warning-critical-outline-12</title>
<path fill="#a7a8aa" d="M11 13v-5h2v5h-2zM11 16v-2.002h2v2.002h-2zM3.414 12l8.586 8.586 8.586-8.586-8.586-8.586-8.586 8.586zM12 23c-0 0-0 0-0 0-0.276 0-0.526-0.112-0.708-0.292l-10-10c-0.181-0.181-0.292-0.432-0.292-0.708s0.112-0.527 0.292-0.708l10-10c0.181-0.181 0.431-0.293 0.707-0.293s0.526 0.112 0.707 0.293l10 10c0.181 0.181 0.294 0.431 0.294 0.708s-0.112 0.527-0.294 0.708l-10 10c-0.18 0.18-0.429 0.292-0.705 0.292-0.001 0-0.001 0-0.002 0h0z"></path>
</svg>
