<!-- Generated by IcoMoon.io -->
<svg version="1.1" xmlns="http://www.w3.org/2000/svg" width="24" height="24" viewBox="0 0 24 24">
<title>warning-low-outline-24</title>
<path fill="#a7a8aa" d="M22.75 12c0 5.937-4.813 10.75-10.75 10.75s-10.75-4.813-10.75-10.75 4.813-10.75 10.75-10.75c5.935 0.006 10.744 4.815 10.75 10.75zM21.25 12c0-5.109-4.141-9.25-9.25-9.25s-9.25 4.141-9.25 9.25c0 5.109 4.141 9.25 9.25 9.25v0c5.106-0.006 9.244-4.144 9.25-9.249v-0.001zM11.25 8h1.5v5h-1.5v-5zM11.25 14.5h1.5v1.5h-1.5v-1.5z"></path>
</svg>
