<!-- Generated by IcoMoon.io -->
<svg version="1.1" xmlns="http://www.w3.org/2000/svg" width="24" height="24" viewBox="0 0 24 24">
<title>warning-medium-outline-24</title>
<path fill="#a7a8aa" d="M22 20.75h-20c-0.003 0-0.006 0-0.009 0-0.275 0-0.514-0.152-0.639-0.376l-0.002-0.004c-0.061-0.108-0.097-0.237-0.097-0.375s0.036-0.267 0.099-0.379l-0.002 0.004 10-17c0.142-0.212 0.38-0.349 0.65-0.349s0.508 0.137 0.648 0.346l0.002 0.003 10 17c0.061 0.108 0.097 0.237 0.097 0.375s-0.036 0.267-0.099 0.379l0.002-0.004c-0.126 0.228-0.366 0.38-0.641 0.38-0.003 0-0.007-0-0.010-0h0zM3.31 19.25h17.38l-8.69-14.77zM11.25 10h1.5v4h-1.5zM11.25 15h1.5v1.5h-1.5z"></path>
</svg>
