<!-- Generated by IcoMoon.io -->
<svg version="1.1" xmlns="http://www.w3.org/2000/svg" width="24" height="24" viewBox="0 0 24 24">
<title>warning-critical-filled-12</title>
<path fill="#a7a8aa" d="M11.292 1.292c0.181-0.181 0.432-0.292 0.708-0.292s0.526 0.112 0.708 0.292l10 10c0.181 0.181 0.292 0.432 0.292 0.708s-0.112 0.526-0.292 0.708l-10 10c-0.181 0.181-0.432 0.292-0.708 0.292s-0.527-0.112-0.708-0.292l-10-10c-0.181-0.181-0.292-0.432-0.292-0.708s0.112-0.527 0.292-0.708l-0 0zM13 14h-2v2h2v-2zM13 8h-2v5h2v-5z"></path>
</svg>
