<!-- Generated by IcoMoon.io -->
<svg version="1.1" xmlns="http://www.w3.org/2000/svg" width="24" height="24" viewBox="0 0 24 24">
<title>warning-medium-outline-12</title>
<path fill="#a7a8aa" d="M3.804 19h16.39l-8.194-13.114zM22 21h-20c-0.552-0.002-0.998-0.45-0.998-1.002 0-0.196 0.056-0.378 0.153-0.532l-0.002 0.004 10-16c0.362-0.584 1.332-0.584 1.694 0l10 16c0.097 0.151 0.155 0.336 0.155 0.534 0 0.55-0.446 0.996-0.996 0.996-0.002 0-0.004 0-0.006-0h0zM11 15v-5h2v5zM11 18v-2h2v2z"></path>
</svg>
