<!-- Generated by IcoMoon.io -->
<svg version="1.1" xmlns="http://www.w3.org/2000/svg" width="24" height="24" viewBox="0 0 24 24">
<title>warning-medium-filled-24</title>
<path fill="#a7a8aa" d="M22.65 19.62l-10-17c-0.142-0.212-0.38-0.349-0.65-0.349s-0.508 0.137-0.648 0.346l-0.002 0.003-10 17c-0.061 0.108-0.097 0.237-0.097 0.375s0.036 0.267 0.099 0.379l-0.002-0.004c0.126 0.228 0.366 0.38 0.641 0.38 0.003 0 0.007-0 0.010-0h19.999c0.003 0 0.006 0 0.009 0 0.275 0 0.514-0.152 0.639-0.376l0.002-0.004c0.061-0.108 0.097-0.237 0.097-0.375s-0.036-0.267-0.099-0.379l0.002 0.004zM12.75 16.5h-1.5v-1.5h1.5zM12.75 14h-1.5v-4h1.5z"></path>
</svg>
