<!-- Generated by IcoMoon.io -->
<svg version="1.1" xmlns="http://www.w3.org/2000/svg" width="24" height="24" viewBox="0 0 24 24">
<title>warning-critical-filled-16</title>
<path fill="#a7a8aa" d="M23.025 11.475l-10.5-10.5c-0.132-0.14-0.318-0.227-0.525-0.227s-0.393 0.087-0.525 0.227l-0 0-10.5 10.5c-0.14 0.132-0.227 0.318-0.227 0.525s0.087 0.393 0.227 0.525l0 0 10.5 10.5c0.132 0.14 0.318 0.227 0.525 0.227s0.393-0.087 0.525-0.227l0-0 10.5-10.5c0.14-0.132 0.227-0.318 0.227-0.525s-0.087-0.393-0.227-0.525l-0-0zM12.75 15.75h-1.5v-1.5h1.5zM12.75 12.75h-1.5v-4.5h1.5z"></path>
</svg>
