<!-- Generated by IcoMoon.io -->
<svg version="1.1" xmlns="http://www.w3.org/2000/svg" width="24" height="24" viewBox="0 0 24 24">
<title>warning-critical-filled-24</title>
<path fill="#a7a8aa" d="M22.53 11.47l-10-10c-0.136-0.136-0.323-0.219-0.53-0.219s-0.394 0.084-0.53 0.219v0l-10 10c-0.136 0.136-0.219 0.323-0.219 0.53s0.084 0.394 0.219 0.53v0l10 10c0.136 0.136 0.323 0.219 0.53 0.219s0.394-0.084 0.53-0.219v0l10-10c0.136-0.136 0.219-0.323 0.219-0.53s-0.084-0.394-0.219-0.53v0zM12.75 16h-1.5v-1.5h1.5zM12.75 13h-1.5v-5h1.5z"></path>
</svg>
