<!-- Generated by IcoMoon.io -->
<svg version="1.1" xmlns="http://www.w3.org/2000/svg" width="24" height="24" viewBox="0 0 24 24">
<title>warning-critical-outline-24</title>
<path fill="#a7a8aa" d="M11.25 8h1.5v5h-1.5zM11.25 14.5h1.5v1.5h-1.5zM12 22.75c-0.001 0-0.002 0-0.003 0-0.206 0-0.392-0.084-0.526-0.22l-10-10c-0.136-0.136-0.219-0.323-0.219-0.53s0.084-0.394 0.219-0.53v0l10-10c0.136-0.136 0.323-0.219 0.53-0.219s0.394 0.084 0.53 0.219v0l10 10c0.136 0.136 0.219 0.323 0.219 0.53s-0.084 0.394-0.219 0.53v0l-10 10c-0.134 0.136-0.321 0.22-0.526 0.22-0.001 0-0.002 0-0.004 0h0zM3.060 12l8.94 8.94 8.94-8.94-8.94-8.94z"></path>
</svg>
