<!-- Generated by IcoMoon.io -->
<svg version="1.1" xmlns="http://www.w3.org/2000/svg" width="24" height="24" viewBox="0 0 24 24">
<title>zoom-out-16</title>
<path fill="#a7a8aa" d="M23.040 21.975l-1.065 1.065-5.13-5.145c-1.698 1.464-3.925 2.355-6.36 2.355-5.393 0-9.765-4.372-9.765-9.765s4.372-9.765 9.765-9.765c5.393 0 9.765 4.372 9.765 9.765 0 2.435-0.891 4.662-2.366 6.373l0.011-0.013zM4.665 16.335c1.493 1.493 3.556 2.417 5.835 2.417 4.557 0 8.252-3.695 8.252-8.252 0-2.279-0.924-4.342-2.417-5.835v0c-1.493-1.493-3.556-2.417-5.835-2.417-4.557 0-8.252 3.695-8.252 8.252 0 2.279 0.924 4.342 2.417 5.835v0zM6 9.75h9v1.5h-9z"></path>
</svg>
