<!-- Generated by IcoMoon.io -->
<svg version="1.1" xmlns="http://www.w3.org/2000/svg" width="24" height="24" viewBox="0 0 24 24">
<title>zoom-out-24</title>
<path fill="#a7a8aa" d="M22.53 21.47l-1.060 1.060-4.13-4.13c-1.696 1.46-3.92 2.349-6.351 2.349-5.39 0-9.76-4.37-9.76-9.76s4.37-9.76 9.76-9.76c5.39 0 9.76 4.37 9.76 9.76 0 2.431-0.889 4.655-2.36 6.364l0.011-0.013zM2.75 11c0.006 4.554 3.696 8.244 8.249 8.25h0.001c4.556 0 8.25-3.694 8.25-8.25s-3.694-8.25-8.25-8.25c-4.556 0-8.25 3.694-8.25 8.25v0zM7 10.25h8v1.5h-8z"></path>
</svg>
