<!-- Generated by IcoMoon.io -->
<svg version="1.1" xmlns="http://www.w3.org/2000/svg" width="24" height="24" viewBox="0 0 24 24">
<title>zoom-in-16</title>
<path fill="#a7a8aa" d="M23.175 21.84l-1.095 1.065-5.13-5.145c-1.698 1.464-3.925 2.355-6.36 2.355-5.393 0-9.765-4.372-9.765-9.765s4.372-9.765 9.765-9.765c5.393 0 9.765 4.372 9.765 9.765 0 2.435-0.891 4.662-2.366 6.373l0.011-0.013zM4.8 16.2c1.497 1.497 3.565 2.423 5.85 2.423 4.569 0 8.273-3.704 8.273-8.273 0-2.285-0.926-4.353-2.423-5.85v0c-1.497-1.497-3.565-2.423-5.85-2.423-4.569 0-8.273 3.704-8.273 8.273 0 2.285 0.926 4.353 2.423 5.85v0zM11.385 5.865v3.75h3.75v1.5h-3.75v3.75h-1.5v-3.75h-3.75v-1.5h3.75v-3.75z"></path>
</svg>
