<!-- Generated by IcoMoon.io -->
<svg version="1.1" xmlns="http://www.w3.org/2000/svg" width="24" height="24" viewBox="0 0 24 24">
<title>zoom-out-12</title>
<path fill="#a7a8aa" d="M22.7 21.3l-1.34 1.34-4-4c-1.7 1.432-3.915 2.303-6.333 2.303-2.75 0-5.237-1.126-7.025-2.942l-0.001-0.001c-1.835-1.814-2.972-4.331-2.972-7.114 0-5.523 4.477-10 10-10s10 4.477 10 10c0 2.448-0.88 4.691-2.34 6.429l0.013-0.015 4 4zM5.34 16.66c1.447 1.446 3.446 2.34 5.654 2.34 4.418 0 8-3.582 8-8 0-2.211-0.897-4.212-2.346-5.66l-0-0c-1.447-1.446-3.446-2.34-5.654-2.34-4.418 0-8 3.582-8 8 0 2.211 0.897 4.212 2.346 5.66l0 0zM6 10h10v2h-10v-2z"></path>
</svg>
