<?xml version="1.0" standalone="no"?>
<!DOCTYPE svg PUBLIC "-//W3C//DTD SVG 1.1//EN" "http://www.w3.org/Graphics/SVG/1.1/DTD/svg11.dtd" >
<svg xmlns="http://www.w3.org/2000/svg">
<metadata>
<json>
<![CDATA[
{
	"fontFamily": "Lightelligence-Icons",
	"majorVersion": 1,
	"minorVersion": 0,
	"fontURL": "https://lightelligence-io.github.io/styles/",
	"description": "Lightelligence Icon Font\nFont generated by IcoMoon.",
	"designerURL": "https://www.db-n.com/",
	"designer": "Deepblue Networks AG",
	"version": "Version 1.0",
	"fontId": "Lightelligence-Icons",
	"psName": "Lightelligence-Icons",
	"subFamily": "Regular",
	"fullName": "Lightelligence-Icons"
}
]]>
</json>
</metadata>
<defs>
<font id="Lightelligence-Icons" horiz-adv-x="1024">
<font-face units-per-em="1024" ascent="960" descent="-64" />
<missing-glyph horiz-adv-x="1024" />
<glyph unicode="&#x20;" horiz-adv-x="512" d="" />
<glyph unicode="&#xe900;" glyph-name="account-12" data-tags="account-12" d="M796.587 171.179c-24.136 78.014-77.233 140.918-146.426 177.394l-1.627 0.782c46.592 39.253 76.8 97.28 76.8 162.645 0 117.589-95.659 213.333-213.333 213.333-117.762-0.146-213.188-95.571-213.333-213.319v-0.014c0-65.451 30.293-123.477 76.8-162.645-70.82-37.258-123.917-100.162-147.489-176.065l-0.565-2.111c-61.385 67.179-99.092 156.899-99.413 255.422v0.066c0 211.712 172.288 384 384 384s384-172.288 384-384c-0.321-98.589-38.029-188.309-99.678-255.782l0.265 0.294zM384 512c0 70.571 57.429 128 128 128s128-57.429 128-128-57.429-128-128-128-128 57.429-128 128zM300.8 106.496c10.888 108.084 101.21 191.8 211.162 192.171h0.038c110.421 0 200.448-84.651 211.2-192.171-59.365-40.006-132.497-63.858-211.2-63.858s-151.835 23.852-212.562 64.722l1.362-0.864zM512 896c-259.069-0.34-468.994-210.264-469.333-469.301v-0.033c0-258.816 210.603-469.333 469.333-469.333s469.333 210.517 469.333 469.333c0 258.731-210.603 469.333-469.333 469.333z" />
<glyph unicode="&#xe901;" glyph-name="account-16" data-tags="account-16" d="M822.016 150.251c-25.481 101.682-97.032 182.668-190.624 220.67l-2.144 0.77c45.492 35.173 74.555 89.692 74.752 151.008v0.032c0 105.792-86.080 192-192 192-105.856 0-192-86.208-192-192 0-61.632 29.632-115.84 74.752-151.040-95.736-38.772-167.287-119.758-192.298-219.231l-0.47-2.209c-65.746 72.945-105.969 170.013-105.984 276.477v0.003c0 229.312 186.624 416 416 416s416-186.688 416-416c0-106.24-40.32-202.88-105.984-276.48zM384 522.731c0 70.528 57.472 128 128 128 70.592 0 128-57.472 128-128 0-70.656-57.408-128-128-128-70.528 0-128 57.344-128 128zM258.304 97.771c11.904 130.112 120.32 232.896 253.696 232.896 133.312 0 241.856-102.784 253.696-232.96-69.28-54.247-157.659-87.003-253.687-87.040h-0.009c-96.036 0.037-184.416 32.792-254.603 87.724l0.907-0.684zM512 906.667c-264.64 0-480-215.36-480-480 0-264.768 215.36-480 480-480 264.704 0 480 215.232 480 480 0 264.64-215.296 480-480 480z" />
<glyph unicode="&#xe902;" glyph-name="account-24" data-tags="account-24" d="M792.533 149.462c-21.048 89.12-81.194 160.999-160.892 197.659l-1.796 0.741c51.496 37.004 84.678 96.681 84.821 164.116v0.023c-0.146 111.871-90.795 202.521-202.652 202.667h-0.014c-111.871-0.146-202.521-90.795-202.667-202.652v-0.014c0.155-67.458 33.314-127.139 84.179-163.771l0.6-0.411c-81.475-37.391-141.607-109.256-162.253-196.396l-0.392-1.961c-70.539 71.066-114.133 168.962-114.133 277.040 0 0.058 0 0.116 0 0.174v-0.009c0 217.6 177.067 394.667 394.667 394.667s394.667-177.067 394.667-394.667c0-0.028 0-0.062 0-0.095 0-108.1-43.593-206.019-114.158-277.136l0.025 0.025zM373.333 512c0.097 76.544 62.122 138.57 138.657 138.667h0.009c76.544-0.097 138.57-62.122 138.667-138.657v-0.009c-0.097-76.544-62.122-138.57-138.657-138.667h-0.009c-76.544 0.097-138.57 62.122-138.667 138.657v0.009zM289.579 100.907c8.149 116.139 104.235 208.427 222.421 208.427s214.229-92.288 222.421-208.427c-62.093-43.132-139.069-68.907-222.065-68.907-0.125 0-0.25 0-0.375 0h0.020c-0.122 0-0.265 0-0.409 0-82.979 0-159.938 25.775-223.306 69.757l1.294-0.85zM512 885.334c-252.928 0-458.667-205.781-458.667-458.667 0-252.928 205.739-458.667 458.667-458.667s458.667 205.739 458.667 458.667c0 252.885-205.739 458.667-458.667 458.667z" />
<glyph unicode="&#xe903;" glyph-name="add-default-12" data-tags="add-default-12" d="M938.667 469.334h-384v384h-85.333v-384h-384v-85.333h384v-384h85.333v384h384z" />
<glyph unicode="&#xe904;" glyph-name="add-default-16" data-tags="add-default-16" d="M896 458.667h-352v352h-64v-352h-352v-64h352v-352h64v352h352z" />
<glyph unicode="&#xe905;" glyph-name="add-default-24" data-tags="add-default-24" d="M810.667 458.667h-266.667v266.667h-64v-266.667h-266.667v-64h266.667v-266.667h64v266.667h266.667z" />
<glyph unicode="&#xe906;" glyph-name="add-outline-12" data-tags="add-outline-12" d="M512 896c259.010-0.485 468.849-210.323 469.333-469.287v-0.047c0-259.206-210.128-469.333-469.333-469.333s-469.333 210.128-469.333 469.333c0 259.206 210.128 469.333 469.333 469.333v0zM512 42.667c211.882 0.484 383.516 172.118 384 383.954v0.046c0 212.077-171.923 384-384 384s-384-171.923-384-384c0-212.077 171.923-384 384-384v0zM554.667 682.667v-213.333h213.333v-85.333h-213.333v-213.333h-85.333v213.333h-213.333v85.333h213.333v213.333h85.333z" />
<glyph unicode="&#xe907;" glyph-name="add-outline-16" data-tags="add-outline-16" d="M512 906.667c265.097 0 480-214.903 480-480s-214.903-480-480-480v0c-265.097 0-480 214.903-480 480s214.903 480 480 480v0zM512 10.667c229.604 0.364 415.636 186.396 416 415.965v0.035c0 229.75-186.25 416-416 416s-416-186.25-416-416c0-229.75 186.25-416 416-416v0zM544 682.667v-224h224v-64h-224v-224h-64v224h-224v64h224v224h64z" />
<glyph unicode="&#xe908;" glyph-name="add-outline-24" data-tags="add-outline-24" d="M512 885.334c253.227-0.256 458.411-205.44 458.667-458.667 0-253.312-205.355-458.667-458.667-458.667s-458.667 205.355-458.667 458.667 205.355 458.667 458.667 458.667zM512 32c217.87 0.243 394.424 176.796 394.667 394.643v0.024c0 217.968-176.698 394.667-394.667 394.667s-394.667-176.698-394.667-394.667c0-217.968 176.698-394.667 394.667-394.667v0zM544 640v-181.333h181.333v-64h-181.333v-181.333h-64v181.333h-181.333v64h181.333v181.333h64z" />
<glyph unicode="&#xe909;" glyph-name="app-12" data-tags="app-12" d="M640 640v170.667h256v-170.667h-256zM810.667 42.667h-597.333v85.333h298.667c23.564 0 42.667 19.103 42.667 42.667v0 256c0 23.564-19.103 42.667-42.667 42.667v0h-298.667v256h341.333v-128c0-23.564 19.103-42.667 42.667-42.667v0h213.333v-512zM128 213.334v170.667h341.333v-170.667h-341.333zM938.667 896h-341.333c-23.564 0-42.667-19.103-42.667-42.667v0-42.667h-384c-23.564 0-42.667-19.103-42.667-42.667v0-298.667h-42.667c-23.564 0-42.667-19.103-42.667-42.667v0-256c0-23.564 19.103-42.667 42.667-42.667v0h42.667v-128c0-23.564 19.103-42.667 42.667-42.667v0h682.667c23.564 0 42.667 19.103 42.667 42.667v0 554.667h42.667c23.564 0 42.667 19.103 42.667 42.667v0 256c0 23.564-19.103 42.667-42.667 42.667v0z" />
<glyph unicode="&#xe90a;" glyph-name="app-16" data-tags="app-16" d="M864 522.667v-544c0-17.673-14.327-32-32-32v0h-640c-17.673 0-32 14.327-32 32v0 160h-96c-17.673 0-32 14.327-32 32v0 256c0 17.673 14.327 32 32 32v0h96v352c0 17.673 14.327 32 32 32v0h352v32c0 17.673 14.327 32 32 32v0h384c17.673 0 32-14.327 32-32v0-320c0-17.673-14.327-32-32-32v0h-96zM800 522.667h-224c-17.673 0-32 14.327-32 32v0 224h-320v-320h288c17.673 0 32-14.327 32-32v0-256c0-17.673-14.327-32-32-32v0h-288v-128h576v512zM96 202.667h384v192h-384v-192zM608 586.667h320v256h-320v-256z" />
<glyph unicode="&#xe90b;" glyph-name="app-24" data-tags="app-24" d="M629.333 586.667v234.667h277.333v-234.667h-277.333zM778.667 32h-533.333v106.667h266.667c17.673 0 32 14.327 32 32v0 256c0 17.673-14.327 32-32 32v0h-266.667v277.333h320v-181.333c0-17.664 14.336-32 32-32h181.333v-490.667zM117.333 202.667v192h362.667v-192h-362.667zM938.667 885.334h-341.333c-17.673 0-32-14.327-32-32v0-53.333h-352c-17.673 0-32-14.327-32-32v0-309.333h-96c-17.673 0-32-14.327-32-32v0-256c0-17.664 14.336-32 32-32h96v-138.667c0-17.664 14.336-32 32-32h597.333c17.673 0 32 14.327 32 32v0 522.667h96c17.673 0 32 14.327 32 32v0 298.667c0 17.673-14.327 32-32 32v0z" />
<glyph unicode="&#xe90c;" glyph-name="arrow-down-12" data-tags="arrow-down-12" d="M737.792 286.208l-183.125-183.211v793.003h-85.333v-792.832l-183.211 182.955-60.331-60.416 256-256c7.725-7.744 18.407-12.535 30.208-12.535s22.483 4.791 30.207 12.534l256.001 256.001-60.331 60.331z" />
<glyph unicode="&#xe90d;" glyph-name="arrow-down-16" data-tags="arrow-down-16" d="M544 906.667v-850.56l201.6 200.96 44.8-44.8-256-256c-5.618-5.976-13.574-9.697-22.4-9.697s-16.782 3.722-22.385 9.681l-0.015 0.016-256 256 44.8 44.8 201.6-200.96v850.56h64z" />
<glyph unicode="&#xe90e;" glyph-name="arrow-down-24" data-tags="arrow-down-24" d="M725.333 235.947l-158.72-158.72v818.773h-64v-818.773l-161.28 158.72-42.667-45.227 213.333-213.333c5.789-5.782 13.784-9.359 22.613-9.359s16.824 3.576 22.614 9.359v0l213.333 213.333z" />
<glyph unicode="&#xe90f;" glyph-name="arrow-falling-12" data-tags="arrow-falling-12" d="M725.333 597.334v-323.413l-439.467 438.613-59.733-59.733 438.613-439.467h-323.413v-85.333h426.667c23.564 0 42.667 19.103 42.667 42.667v0 426.667h-85.333z" />
<glyph unicode="&#xe910;" glyph-name="arrow-falling-16" data-tags="arrow-falling-16" d="M800 618.667v-434.56l-585.6 584.96-44.8-44.8 584.96-585.6h-434.56v-64h512c17.673 0 32 14.327 32 32v0 512h-64z" />
<glyph unicode="&#xe911;" glyph-name="arrow-falling-24" data-tags="arrow-falling-24" d="M778.667 554.667v-349.44l-542.72 542.72-45.227-45.227 542.72-542.72h-349.44v-64h426.667c17.577 0.237 31.763 14.423 32 31.977v426.69h-64z" />
<glyph unicode="&#xe912;" glyph-name="arrow-left-12" data-tags="arrow-left-12" d="M981.333 469.334h-793.003l183.211 183.125-60.416 60.416-256-256c-7.703-7.744-12.464-18.42-12.464-30.208s4.762-22.464 12.466-30.21l255.998-255.998 60.416 60.416-183.211 183.125h793.003v85.333z" />
<glyph unicode="&#xe913;" glyph-name="arrow-left-16" data-tags="arrow-left-16" d="M992 426.667h-850.56l200.96 201.6-44.8 44.8-256-256c-5.976-5.618-9.697-13.574-9.697-22.4s3.722-16.782 9.681-22.385l0.016-0.015 256-256 44.8 44.8-200.96 201.6h850.56v64z" />
<glyph unicode="&#xe914;" glyph-name="arrow-left-24" data-tags="arrow-left-24" d="M981.333 458.667h-818.773l158.72 158.72-45.227 45.227-213.333-213.333c-5.782-5.789-9.359-13.784-9.359-22.613s3.576-16.824 9.359-22.614v0l213.333-213.333 45.227 45.227-158.72 158.72h818.773v64z" />
<glyph unicode="&#xe915;" glyph-name="arrow-raising-12" data-tags="arrow-raising-12" d="M768 725.334h-426.667v-85.333h323.413l-438.613-439.467 59.733-59.733 439.467 438.613v-323.413h85.333v426.667c0 23.564-19.103 42.667-42.667 42.667v0z" />
<glyph unicode="&#xe916;" glyph-name="arrow-raising-16" data-tags="arrow-raising-16" d="M832 778.667h-512v-64h434.56l-584.96-585.6 44.8-44.8 585.6 584.96v-434.56h64v512c0 17.673-14.327 32-32 32v0z" />
<glyph unicode="&#xe917;" glyph-name="arrow-raising-24" data-tags="arrow-raising-24" d="M810.667 757.334h-426.667v-64h349.44l-542.72-542.72 45.227-45.227 542.72 542.72v-349.44h64v426.667c-0.237 17.577-14.423 31.763-31.977 32h-0.023z" />
<glyph unicode="&#xe918;" glyph-name="arrow-right-12" data-tags="arrow-right-12" d="M968.875 456.875l-256 256-60.331-60.416 183.125-183.125h-793.003v-85.333h793.003l-183.125-183.125 60.331-60.331 256 256c7.718 7.721 12.492 18.386 12.492 30.165s-4.774 22.445-12.492 30.165v0z" />
<glyph unicode="&#xe919;" glyph-name="arrow-right-16" data-tags="arrow-right-16" d="M32 426.667h850.56l-200.96 201.6 44.8 44.8 256-256c5.976-5.618 9.697-13.574 9.697-22.4s-3.722-16.782-9.681-22.385l-0.016-0.015-256-256-44.8 44.8 200.96 201.6h-850.56v64z" />
<glyph unicode="&#xe91a;" glyph-name="arrow-right-24" data-tags="arrow-right-24" d="M961.28 449.28l-213.333 213.333-45.227-45.227 158.72-158.72h-818.773v-64h818.773l-158.72-158.72 45.227-45.227 213.333 213.333c5.782 5.789 9.359 13.784 9.359 22.613s-3.576 16.824-9.359 22.614v0z" />
<glyph unicode="&#xe91b;" glyph-name="arrow-up-12" data-tags="arrow-up-12" d="M798.208 627.456l-256 256c-7.725 7.744-18.407 12.535-30.208 12.535s-22.483-4.791-30.207-12.534l-256.001-256.001 60.416-60.331 183.125 183.211v-793.088h85.333v793.003l183.125-183.125 60.331 60.416z" />
<glyph unicode="&#xe91c;" glyph-name="arrow-up-16" data-tags="arrow-up-16" d="M544-53.333v850.56l201.6-200.96 44.8 44.8-256 256c-5.618 5.976-13.574 9.697-22.4 9.697s-16.782-3.722-22.385-9.681l-0.015-0.016-256-256 44.8-44.8 201.6 200.96v-850.56h64z" />
<glyph unicode="&#xe91d;" glyph-name="arrow-up-24" data-tags="arrow-up-24" d="M725.333 662.614l-213.333 213.333c-5.789 5.782-13.784 9.359-22.613 9.359s-16.824-3.576-22.614-9.359v0l-213.333-213.333 45.227-45.227 158.72 158.72v-818.773h64v818.773l161.28-158.72 42.667 45.227z" />
<glyph unicode="&#xe91e;" glyph-name="attachment-12" data-tags="attachment-12" d="M341.333-6.826c-0.221-0.001-0.483-0.002-0.746-0.002-34.949 0-66.627 14.007-89.726 36.713l-135.662 135.662c-22.927 23.25-37.085 55.198-37.085 90.453s14.159 67.203 37.1 90.468l263.665 263.665c23.25 22.927 55.198 37.085 90.453 37.085s67.203-14.159 90.468-37.1l-0.015 0.015 110.080-110.933-59.733-59.733-110.933 110.080c-7.69 7.542-18.235 12.197-29.867 12.197s-22.177-4.655-29.874-12.203l-263.673-263.673c-7.542-7.69-12.197-18.235-12.197-29.867s4.655-22.177 12.203-29.874l135.673-135.673c7.69-7.542 18.235-12.197 29.867-12.197s22.177 4.655 29.874 12.203l-0.007-0.007 68.267 67.413 59.733-59.733-67.413-68.267c-23.081-22.689-54.759-36.696-89.708-36.696-0.262 0-0.524 0.001-0.786 0.002h0.040zM554.667 206.507c-0.221-0.001-0.483-0.002-0.746-0.002-34.949 0-66.627 14.007-89.726 36.713l0.018-0.018-110.080 110.933 59.733 59.733 110.933-110.080c7.69-7.542 18.235-12.197 29.867-12.197s22.177 4.655 29.874 12.203l263.673 263.673c7.542 7.69 12.197 18.235 12.197 29.867s-4.655 22.177-12.203 29.874l-135.673 135.673c-7.69 7.542-18.235 12.197-29.867 12.197s-22.177-4.655-29.874-12.203l0.007 0.007-68.267-67.413-59.733 59.733 67.413 68.267c23.25 22.927 55.198 37.085 90.453 37.085s67.203-14.159 90.468-37.1l135.665-135.665c22.927-23.25 37.085-55.198 37.085-90.453s-14.159-67.203-37.1-90.468l-263.665-263.665c-23.081-22.689-54.759-36.696-89.708-36.696-0.262 0-0.524 0.001-0.786 0.002h0.040z" />
<glyph unicode="&#xe91f;" glyph-name="attachment-16" data-tags="attachment-16" d="M320-26.453c-0.166-0.001-0.363-0.002-0.559-0.002-26.212 0-49.97 10.505-67.294 27.535l0.014-0.013-165.76 165.76c-17.195 17.438-27.814 41.399-27.814 67.84s10.619 50.402 27.825 67.851l325.749 325.749c17.438 17.195 41.399 27.814 67.84 27.814s50.402-10.619 67.851-27.825l-0.011 0.011 146.56-147.2-44.8-44.8-147.2 146.56c-5.767 5.656-13.676 9.147-22.4 9.147s-16.633-3.491-22.405-9.152l-325.755-325.755c-5.656-5.767-9.147-13.676-9.147-22.4s3.491-16.633 9.152-22.405l165.755-165.755c5.767-5.656 13.676-9.147 22.4-9.147s16.633 3.491 22.405 9.152l-0.005-0.005 115.2 114.56 44.8-44.8-114.56-115.2c-17.311-17.016-41.069-27.522-67.281-27.522-0.197 0-0.393 0.001-0.589 0.002h0.030zM544 197.547c-0.166-0.001-0.363-0.002-0.559-0.002-26.212 0-49.97 10.505-67.294 27.535l0.014-0.013-146.56 147.2 44.8 44.8 147.2-146.56c5.767-5.656 13.676-9.147 22.4-9.147s16.633 3.491 22.405 9.152l325.755 325.755c5.656 5.767 9.147 13.676 9.147 22.4s-3.491 16.633-9.152 22.405l-165.755 165.755c-5.767 5.656-13.676 9.147-22.4 9.147s-16.633-3.491-22.405-9.152l0.005 0.005-115.2-114.56-44.8 44.8 114.56 115.2c17.438 17.195 41.399 27.814 67.84 27.814s50.402-10.619 67.851-27.825l165.749-165.749c17.195-17.438 27.814-41.399 27.814-67.84s-10.619-50.402-27.825-67.851l-325.749-325.749c-17.311-17.016-41.069-27.522-67.281-27.522-0.197 0-0.393 0.001-0.589 0.002h0.030z" />
<glyph unicode="&#xe920;" glyph-name="attachment-24" data-tags="attachment-24" d="M300.8-22.613c-0.043 0-0.095 0-0.146 0-32.329 0-61.571 13.219-82.614 34.547l-120.76 120.76c-21.324 21.119-34.528 50.404-34.528 82.773s13.203 61.655 34.519 82.764l0.009 0.009 301.653 302.080c21.282 21.142 50.608 34.21 82.987 34.21s61.705-13.067 82.993-34.216l-0.006 0.006 90.453-90.88-45.227-45.227-90.453 90.453c-9.747 9.478-23.071 15.323-37.76 15.323s-28.013-5.845-37.773-15.335l0.013 0.012-301.653-301.653c-9.761-9.539-15.814-22.836-15.814-37.547s6.053-28.008 15.804-37.537l120.757-120.757c9.588-9.656 22.869-15.633 37.547-15.633s27.959 5.977 37.544 15.629l120.75 120.75 45.227-45.227-120.32-120.747c-21.286-21.32-50.697-34.521-83.193-34.56h-0.007zM542.293 218.88c-0.663-0.013-1.444-0.021-2.227-0.021-32.406 0-61.766 13.043-83.117 34.165l0.011-0.010-88.32 90.88 45.227 45.227 90.453-90.453c9.747-9.478 23.071-15.323 37.76-15.323s28.013 5.845 37.773 15.335l-0.013-0.012 301.653 302.080c9.761 9.539 15.814 22.836 15.814 37.547s-6.053 28.008-15.804 37.537l-0.010 0.010-120.747 120.32c-9.588 9.656-22.869 15.633-37.547 15.633s-27.959-5.977-37.544-15.629l-120.75-120.75-45.227 45.227 120.32 120.747c21.282 21.142 50.608 34.21 82.987 34.21s61.705-13.067 82.993-34.216l120.741-120.741c21.324-21.119 34.528-50.404 34.528-82.773s-13.203-61.655-34.519-82.764l-0.009-0.009-301.653-302.080c-21.21-21.094-50.449-34.133-82.734-34.133-0.014 0-0.028 0-0.042 0h0.002z" />
<glyph unicode="&#xe921;" glyph-name="brightness-12" data-tags="brightness-12" d="M512 170.667c-141.141 0-256 114.859-256 256s114.859 256 256 256 256-114.859 256-256-114.859-256-256-256zM981.333 384v85.333h-132.352c-8.041 63.285-32.527 119.701-68.995 166.286l0.558-0.74 93.525 93.525-60.331 60.331-93.525-93.525c-45.846 35.911-102.262 60.397-163.871 68.263l-1.675 0.175v132.352h-85.333v-132.352c-63.285-8.041-119.701-32.527-166.286-68.995l0.74 0.558-93.525 93.525-60.331-60.331 93.525-93.525c-35.911-45.846-60.397-102.262-68.263-163.871l-0.175-1.675h-132.352v-85.333h132.352c7.851-62.037 31.829-118.443 68.437-165.547l-93.525-93.525 60.331-60.331 93.525 93.525c47.104-36.608 103.509-60.587 165.547-68.437v-132.352h85.333v132.352c63.285 8.041 119.701 32.527 166.286 68.995l-0.74-0.558 93.525-93.525 60.331 60.331-93.525 93.525c36.608 47.104 60.587 103.509 68.437 165.547h132.352z" />
<glyph unicode="&#xe922;" glyph-name="brightness-16" data-tags="brightness-16" d="M992 394.667v64h-128c-7.003 73.86-36.063 139.853-80.432 192.527l0.432-0.527 92.16 91.52-44.16 46.72-94.72-92.16c-52.147 43.937-118.14 72.997-190.596 79.892l-1.404 0.108v129.92h-64v-128c-73.86-7.003-139.853-36.063-192.527-80.432l0.527 0.432-94.080 90.24-45.44-45.44 92.16-91.52c-43.937-52.147-72.997-118.14-79.892-190.596l-0.108-1.404h-129.92v-64h128c7.003-73.86 36.063-139.853 80.432-192.527l-0.432 0.527-90.24-97.28 45.44-45.44 91.52 92.16c52.147-43.937 118.14-72.997 190.596-79.892l1.404-0.108v-128h64v128c73.86 7.003 139.853 36.063 192.527 80.432l-0.527-0.432 97.28-88.96 45.44 45.44-92.16 91.52c43.937 52.147 72.997 118.14 79.892 190.596l0.108 1.404 126.72 1.28zM512 138.667c-159.058 0-288 128.942-288 288s128.942 288 288 288c159.058 0 288-128.942 288-288v0c-0.363-158.912-129.088-287.637-287.965-288h-0.035z" />
<glyph unicode="&#xe923;" glyph-name="brightness-24" data-tags="brightness-24" d="M938.667 394.667v64h-140.373c-6.57 56.585-28.668 107.047-61.868 148.175l0.428-0.548 99.413 99.413-45.227 45.227-99.413-99.413c-40.58 32.772-91.042 54.87-146.284 61.313l-1.343 0.127v140.373h-64v-140.373c-56.585-6.57-107.047-28.668-148.175-61.868l0.548 0.428-99.413 99.413-45.227-45.227 99.413-99.413c-32.772-40.58-54.87-91.042-61.313-146.284l-0.127-1.343h-140.373v-64h140.373c6.57-56.585 28.668-107.047 61.868-148.175l-0.428 0.548-99.413-99.413 45.227-45.227 99.413 99.413c40.58-32.772 91.042-54.87 146.284-61.313l1.343-0.127v-140.373h64v140.373c56.585 6.57 107.047 28.668 148.175 61.868l-0.548-0.428 99.413-99.413 45.227 45.227-99.413 99.413c32.772 40.58 54.87 91.042 61.313 146.284l0.127 1.343h140.373zM512 202.667c-123.712 0-224 100.288-224 224s100.288 224 224 224c123.712 0 224-100.288 224-224v0c-0.242-123.614-100.386-223.758-223.977-224h-0.023z" />
<glyph unicode="&#xe924;" glyph-name="bullet-big-12" data-tags="bullet-big-12" d="M768 426.667c0-141.385-114.615-256-256-256s-256 114.615-256 256c0 141.385 114.615 256 256 256s256-114.615 256-256z" />
<glyph unicode="&#xe925;" glyph-name="bullet-big-16" data-tags="bullet-big-16" d="M704 426.667c0-106.039-85.961-192-192-192s-192 85.961-192 192c0 106.039 85.961 192 192 192s192-85.961 192-192z" />
<glyph unicode="&#xe926;" glyph-name="bullet-big-24" data-tags="bullet-big-24" d="M640 426.667c0-70.692-57.308-128-128-128s-128 57.308-128 128c0 70.692 57.308 128 128 128s128-57.308 128-128z" />
<glyph unicode="&#xe927;" glyph-name="bullet-small-12" data-tags="bullet-small-12" d="M682.667 426.667c0-94.257-76.41-170.667-170.667-170.667s-170.667 76.41-170.667 170.667c0 94.257 76.41 170.667 170.667 170.667s170.667-76.41 170.667-170.667z" />
<glyph unicode="&#xe928;" glyph-name="bullet-small-16" data-tags="bullet-small-16" d="M640 426.667c0-70.692-57.308-128-128-128s-128 57.308-128 128c0 70.692 57.308 128 128 128s128-57.308 128-128z" />
<glyph unicode="&#xe929;" glyph-name="bullet-small-24" data-tags="bullet-small-24" d="M597.333 426.667c0-47.128-38.205-85.333-85.333-85.333s-85.333 38.205-85.333 85.333c0 47.128 38.205 85.333 85.333 85.333s85.333-38.205 85.333-85.333z" />
<glyph unicode="&#xe92a;" glyph-name="calendar-12" data-tags="calendar-12" d="M938.667 768h-128v128h-85.333v-128h-426.667v128h-85.333v-128h-128c-23.564 0-42.667-19.103-42.667-42.667v0-725.333c0-23.564 19.103-42.667 42.667-42.667v0h853.333c23.564 0 42.667 19.103 42.667 42.667v0 725.333c0 23.564-19.103 42.667-42.667 42.667v0zM896 682.667v-128h-768v128h768zM128 42.667v426.667h768v-426.667h-768z" />
<glyph unicode="&#xe92b;" glyph-name="calendar-16" data-tags="calendar-16" d="M960 778.667h-96v128h-64v-128h-576v128h-64v-128h-96c-17.673 0-32-14.327-32-32v0-768c0-17.673 14.327-32 32-32v0h896c17.673 0 32 14.327 32 32v0 768c0 17.673-14.327 32-32 32v0zM160 714.667h768v-128h-832v128h64zM96 10.667v512h832v-512h-832z" />
<glyph unicode="&#xe92c;" glyph-name="calendar-24" data-tags="calendar-24" d="M938.667 757.334h-138.667v117.333h-64v-117.333h-448v117.333h-64v-117.333h-138.667c-17.577-0.237-31.763-14.423-32-31.977v-725.356c0.237-17.577 14.423-31.763 31.977-32h853.356c17.577 0.237 31.763 14.423 32 31.977v725.356c-0.237 17.577-14.423 31.763-31.977 32h-0.023zM906.667 693.334v-106.667h-789.333v106.667h789.333zM117.333 32v490.667h789.333v-490.667h-789.333z" />
<glyph unicode="&#xe92d;" glyph-name="cart-12" data-tags="cart-12" d="M971.947 709.12c5.964-7.385 9.574-16.888 9.574-27.233 0-3.353-0.379-6.617-1.097-9.752l0.056 0.292-85.333-341.333c-5.055-18.725-21.832-32.299-41.799-32.427h-572.602l11.947-85.333h560.64v-85.333h-597.333c-21.494 0.16-39.27 15.878-42.633 36.442l-0.034 0.251-79.36 560.64h-91.307v85.333h128c21.494-0.16 39.27-15.878 42.633-36.442l0.034-0.251 6.827-48.64h718.507c0.065 0 0.142 0.001 0.219 0.001 13.406 0 25.339-6.309 32.991-16.121l0.070-0.093zM820.053 384l64 256h-651.947l36.693-256h551.253zM298.667-0c-23.564 0-42.667 19.103-42.667 42.667s19.103 42.667 42.667 42.667v0c23.564 0 42.667-19.103 42.667-42.667s-19.103-42.667-42.667-42.667v0zM810.667-0c-23.564 0-42.667 19.103-42.667 42.667s19.103 42.667 42.667 42.667v0c23.564 0 42.667-19.103 42.667-42.667s-19.103-42.667-42.667-42.667v0z" />
<glyph unicode="&#xe92e;" glyph-name="cart-16" data-tags="cart-16" d="M984.32 703.147c6.4-7.104 8.96-16.896 7.040-26.24l-64-352c-2.546-14.98-15.427-26.243-30.94-26.243-0.148 0-0.295 0.001-0.443 0.003h-597.098l16-96h581.12v-64h-608.64c-15.77 0.116-28.819 11.622-31.334 26.693l-0.026 0.187-90.88 549.12h-133.12v64h160c15.77-0.116 28.819-11.622 31.334-26.693l0.026-0.187 6.4-37.12h730.24c0.010 0 0.022 0 0.034 0 9.767 0 18.491-4.465 24.243-11.465l0.044-0.055zM869.12 362.667l52.48 288h-680.96l48-288h580.48zM320-5.333c-26.51 0-48 21.49-48 48s21.49 48 48 48v0c26.51 0 48-21.49 48-48s-21.49-48-48-48v0zM832-5.333c-26.51 0-48 21.49-48 48s21.49 48 48 48v0c26.51 0 48-21.49 48-48s-21.49-48-48-48v0z" />
<glyph unicode="&#xe92f;" glyph-name="cart-24" data-tags="cart-24" d="M963.84 702.294c4.239-5.477 6.795-12.444 6.795-20.007 0-2.588-0.299-5.106-0.865-7.522l0.044 0.222-85.333-341.333c-3.707-14.016-16.221-24.201-31.133-24.32h-542.307l15.36-106.667h526.933v-64h-554.667c-0.086-0.001-0.188-0.001-0.289-0.001-15.933 0-29.11 11.802-31.265 27.141l-0.019 0.167-81.493 570.027h-142.933v64h170.667c0.086 0.001 0.188 0.001 0.289 0.001 15.933 0 29.11-11.802 31.265-27.141l0.019-0.167 8.533-58.027h685.227c10.207-0.033 19.284-4.84 25.12-12.303l0.053-0.070zM828.16 373.334l67.84 277.333h-633.6l39.68-277.333h526.080zM810.667-0c-23.564 0-42.667 19.103-42.667 42.667s19.103 42.667 42.667 42.667v0c23.564 0 42.667-19.103 42.667-42.667s-19.103-42.667-42.667-42.667v0zM341.333-0c-23.564 0-42.667 19.103-42.667 42.667s19.103 42.667 42.667 42.667v0c23.564 0 42.667-19.103 42.667-42.667s-19.103-42.667-42.667-42.667v0z" />
<glyph unicode="&#xe930;" glyph-name="check-default-12" data-tags="check-default-12" d="M426.667 128c-0.178-0.003-0.388-0.004-0.599-0.004-11.399 0-21.732 4.561-29.274 11.958l-255.993 255.993 60.587 60.587 225.28-226.133 397.653 398.507 60.587-60.587-426.667-426.667c-7.815-8.41-18.938-13.654-31.285-13.654-0.102 0-0.203 0-0.304 0.001h0.016z" />
<glyph unicode="&#xe931;" glyph-name="check-default-16" data-tags="check-default-16" d="M384 138.667c-0.134-0.002-0.291-0.003-0.449-0.003-8.549 0-16.299 3.421-21.956 8.968l-255.995 255.995 45.44 45.44 232.96-233.6 490.88 490.24 44.8-44.8-512-512c-5.862-6.307-14.203-10.241-23.463-10.241-0.076 0-0.152 0-0.228 0.001h0.012z" />
<glyph unicode="&#xe932;" glyph-name="check-default-24" data-tags="check-default-24" d="M384 138.667c-0.044 0-0.097 0-0.149 0-8.788 0-16.737 3.59-22.461 9.384l-256.003 256.003 45.227 45.227 233.387-233.387 489.387 489.387 45.227-45.227-512-512c-5.727-5.797-13.676-9.387-22.464-9.387-0.052 0-0.105 0-0.157 0h0.008z" />
<glyph unicode="&#xe933;" glyph-name="check-filled-12" data-tags="check-filled-12" d="M180.053 758.614c84.953 84.953 202.313 137.497 331.947 137.497 259.266 0 469.443-210.177 469.443-469.443 0-129.633-52.544-246.994-137.497-331.947v0c-84.953-84.953-202.313-137.497-331.947-137.497-259.266 0-469.443 210.177-469.443 469.443 0 129.633 52.544 246.994 137.497 331.947v0zM738.133 627.2l-311.467-310.613-140.8 139.947-59.733-59.733 170.667-170.667c7.491-7.967 18.099-12.93 29.867-12.93s22.376 4.962 29.847 12.908l0.020 0.021 341.333 341.333-59.733 59.733z" />
<glyph unicode="&#xe934;" glyph-name="check-filled-16" data-tags="check-filled-16" d="M512 906.667c-265.097 0-480-214.903-480-480s214.903-480 480-480v0c265.097 0 480 214.903 480 480s-214.903 480-480 480v0zM448 253.227l-151.68 149.76 45.44 45.44 106.24-104.96 234.88 234.24 44.8-44.8z" />
<glyph unicode="&#xe935;" glyph-name="check-filled-24" data-tags="check-filled-24" d="M512 885.334c-253.312 0-458.667-205.355-458.667-458.667s205.355-458.667 458.667-458.667 458.667 205.355 458.667 458.667c-0.256 253.227-205.44 458.411-458.667 458.667zM490.667 276.054c-5.528-5.793-13.308-9.394-21.93-9.394-0.24 0-0.48 0.003-0.719 0.008l0.036-0.001c-0.044 0-0.097 0-0.149 0-8.788 0-16.737 3.59-22.461 9.384l-128.003 128.003 45.227 45.227 106.667-105.387 234.24 233.813 45.227-45.227-258.133-256.427z" />
<glyph unicode="&#xe936;" glyph-name="check-outline-12" data-tags="check-outline-12" d="M512-42.666c-259.253 0-469.419 210.166-469.419 469.419s210.166 469.419 469.419 469.419v0c0.066 0 0.143 0 0.221 0 259.206 0 469.333-210.128 469.333-469.333 0-64.874-13.163-126.674-36.963-182.875l1.158 3.078c-72.41-171.519-239.202-289.707-433.599-289.707-0.053 0-0.105 0-0.158 0h0.008zM512 810.667c-0.206 0-0.449 0.001-0.692 0.001-212.549 0-384.853-172.305-384.853-384.853s172.305-384.853 384.853-384.853c212.549 0 384.853 172.305 384.853 384.853 0 106.314-43.109 202.56-112.799 272.211l-0.002 0.002c-69.117 69.576-164.847 112.641-270.635 112.641-0.255 0-0.51 0-0.765-0.001h0.040zM426.667 213.334c-0.145-0.002-0.317-0.003-0.489-0.003-11.591 0-22.033 4.917-29.356 12.779l-0.022 0.024-170.667 170.667 59.733 59.733 140.8-139.947 311.467 310.613 59.733-59.733-341.333-341.333c-7.344-7.886-17.787-12.803-29.378-12.803-0.172 0-0.344 0.001-0.515 0.003h0.026z" />
<glyph unicode="&#xe937;" glyph-name="check-outline-16" data-tags="check-outline-16" d="M512-53.333c-265.097 0-480 214.903-480 480s214.903 480 480 480v0c265.097 0 480-214.903 480-480s-214.903-480-480-480v0zM512 842.667c-229.75 0-416-186.25-416-416s186.25-416 416-416c229.75 0 416 186.25 416 416v0c-0.364 229.604-186.396 415.636-415.965 416h-0.035zM448 266.667c-0.134-0.002-0.291-0.003-0.449-0.003-8.549 0-16.299 3.421-21.956 8.968l-127.995 127.995 45.44 45.44 104.96-105.6 234.88 234.24 44.8-44.8-256-256c-5.862-6.307-14.203-10.241-23.463-10.241-0.076 0-0.152 0-0.228 0.001h0.012z" />
<glyph unicode="&#xe938;" glyph-name="check-outline-24" data-tags="check-outline-24" d="M512-32c-253.312 0-458.667 205.355-458.667 458.667s205.355 458.667 458.667 458.667 458.667-205.355 458.667-458.667c-0.256-253.227-205.44-458.411-458.667-458.667zM512 821.334c-217.968 0-394.667-176.698-394.667-394.667s176.698-394.667 394.667-394.667c217.968 0 394.667 176.698 394.667 394.667v0c-0.243 217.87-176.796 394.424-394.643 394.667h-0.024zM469.333 266.667c-0.044 0-0.097 0-0.149 0-8.788 0-16.737 3.59-22.461 9.384l-128.003 128.003 45.227 45.227 105.387-105.387 234.24 233.813 45.227-45.227-256-256c-5.557-6.054-13.508-9.834-22.341-9.834-0.396 0-0.79 0.008-1.182 0.023l0.056-0.002z" />
<glyph unicode="&#xe939;" glyph-name="chevron-down-12" data-tags="chevron-down-12" d="M512 213.334c-0.145-0.002-0.317-0.003-0.489-0.003-11.591 0-22.033 4.917-29.356 12.779l-0.022 0.024-341.333 341.333 59.733 59.733 311.467-310.613 311.467 310.613 59.733-59.733-341.333-341.333c-7.344-7.886-17.787-12.803-29.378-12.803-0.172 0-0.344 0.001-0.515 0.003h0.026z" />
<glyph unicode="&#xe93a;" glyph-name="chevron-down-16" data-tags="chevron-down-16" d="M512 202.667c-0.109-0.001-0.238-0.002-0.367-0.002-8.693 0-16.525 3.688-22.017 9.584l-0.017 0.018-384 384 44.8 44.8 361.6-360.96 361.6 360.96 44.8-44.8-384-384c-5.508-5.915-13.34-9.602-22.033-9.602-0.129 0-0.258 0.001-0.386 0.002h0.020z" />
<glyph unicode="&#xe93b;" glyph-name="chevron-down-24" data-tags="chevron-down-24" d="M512 224c-0.044 0-0.097 0-0.149 0-8.788 0-16.737 3.59-22.461 9.384l-341.336 341.336 45.227 45.227 318.72-318.72 318.72 318.72 45.227-45.227-341.333-341.333c-5.727-5.797-13.676-9.387-22.464-9.387-0.052 0-0.105 0-0.157 0h0.008z" />
<glyph unicode="&#xe93c;" glyph-name="chevron-left-12" data-tags="chevron-left-12" d="M652.8 55.467l-341.333 341.333c-7.967 7.491-12.93 18.099-12.93 29.867s4.962 22.376 12.908 29.847l0.021 0.020 341.333 341.333 59.733-59.733-310.613-311.467 310.613-311.467z" />
<glyph unicode="&#xe93d;" glyph-name="chevron-left-16" data-tags="chevron-left-16" d="M681.6 20.267l-384 384c-5.976 5.618-9.697 13.574-9.697 22.4s3.722 16.782 9.681 22.385l0.016 0.015 384 384 44.8-44.8-360.96-361.6 360.96-361.6z" />
<glyph unicode="&#xe93e;" glyph-name="chevron-left-24" data-tags="chevron-left-24" d="M660.053 62.72l-341.333 341.333c-5.782 5.789-9.359 13.784-9.359 22.613s3.576 16.824 9.359 22.614v0l341.333 341.333 45.227-45.227-318.72-318.72 318.72-318.72z" />
<glyph unicode="&#xe93f;" glyph-name="chevron-right-12" data-tags="chevron-right-12" d="M371.2 55.467l-59.733 59.733 310.613 311.467-310.613 311.467 59.733 59.733 341.333-341.333c7.967-7.491 12.93-18.099 12.93-29.867s-4.962-22.376-12.908-29.847l-0.021-0.020z" />
<glyph unicode="&#xe940;" glyph-name="chevron-right-16" data-tags="chevron-right-16" d="M342.4 20.267l-44.8 44.8 360.96 361.6-360.96 361.6 44.8 44.8 384-384c5.976-5.618 9.697-13.574 9.697-22.4s-3.722-16.782-9.681-22.385l-0.016-0.015z" />
<glyph unicode="&#xe941;" glyph-name="chevron-right-24" data-tags="chevron-right-24" d="M363.947 62.72l-45.227 45.227 318.72 318.72-318.72 318.72 45.227 45.227 341.333-341.333c5.782-5.789 9.359-13.784 9.359-22.613s-3.576-16.824-9.359-22.614v0z" />
<glyph unicode="&#xe942;" glyph-name="chevron-up-12" data-tags="chevron-up-12" d="M823.467 226.134l-311.467 310.613-311.467-310.613-59.733 59.733 341.333 341.333c7.491 7.967 18.099 12.93 29.867 12.93s22.376-4.962 29.847-12.908l0.020-0.021 341.333-341.333z" />
<glyph unicode="&#xe943;" glyph-name="chevron-up-16" data-tags="chevron-up-16" d="M873.6 212.267l-361.6 360.96-361.6-360.96-44.8 44.8 384 384c5.618 5.976 13.574 9.697 22.4 9.697s16.782-3.722 22.385-9.681l0.015-0.016 384-384z" />
<glyph unicode="&#xe944;" glyph-name="chevron-up-24" data-tags="chevron-up-24" d="M830.72 233.387l-318.72 318.72-318.72-318.72-45.227 45.227 341.333 341.333c5.789 5.782 13.784 9.359 22.613 9.359s16.824-3.576 22.614-9.359v0l341.333-341.333z" />
<glyph unicode="&#xe945;" glyph-name="clock-12" data-tags="clock-12" d="M554.667 682.667v-238.080l157.867-158.72-59.733-59.733-170.667 170.667c-7.886 7.344-12.803 17.787-12.803 29.378 0 0.172 0.001 0.344 0.003 0.515v-0.026 256h85.333zM512 896c259.010-0.485 468.849-210.323 469.333-469.287v-0.047c0-259.206-210.128-469.333-469.333-469.333s-469.333 210.128-469.333 469.333c0 259.206 210.128 469.333 469.333 469.333v0zM512 42.667c211.882 0.484 383.516 172.118 384 383.954v0.046c0 212.077-171.923 384-384 384s-384-171.923-384-384c0-212.077 171.923-384 384-384v0z" />
<glyph unicode="&#xe946;" glyph-name="clock-16" data-tags="clock-16" d="M512-53.333c-265.097 0-480 214.903-480 480s214.903 480 480 480v0c265.097 0 480-214.903 480-480s-214.903-480-480-480v0zM512 842.667c-229.75 0-416-186.25-416-416s186.25-416 416-416c229.75 0 416 186.25 416 416v0c-0.364 229.604-186.396 415.636-415.965 416h-0.035zM681.6 212.267l-192 192c-5.915 5.508-9.602 13.34-9.602 22.033 0 0.129 0.001 0.258 0.002 0.386v-0.020 288h64v-274.56l182.4-183.040-44.8-44.8z" />
<glyph unicode="&#xe947;" glyph-name="clock-24" data-tags="clock-24" d="M512-32c-253.312 0-458.667 205.355-458.667 458.667s205.355 458.667 458.667 458.667 458.667-205.355 458.667-458.667c-0.256-253.227-205.44-458.411-458.667-458.667zM512 821.334c-217.968 0-394.667-176.698-394.667-394.667s176.698-394.667 394.667-394.667c217.968 0 394.667 176.698 394.667 394.667v0c-0.243 217.87-176.796 394.424-394.643 394.667h-0.024zM660.053 233.387l-170.667 170.667c-5.793 5.786-9.379 13.78-9.387 22.612v298.669h64v-285.44l161.28-161.28-45.227-45.227z" />
<glyph unicode="&#xe948;" glyph-name="cloud-12" data-tags="cloud-12" d="M799.403 636.758c104.96-16.555 181.931-104.533 181.931-210.091 0-117.589-95.573-213.333-213.333-213.333h-85.333v85.333h85.333c70.571 0 128 57.429 128 128s-57.429 128-128 128h-1.365c-21.248 0-42.155 15.189-45.141 36.181-18.486 124.428-124.154 218.935-252.067 219.818l-0.093 0.001c-133.376 0-244.907-104.96-254.123-238.933-1.057-14.665-9.394-27.173-21.38-34.023l-0.209-0.11c-39.187-22.196-65.281-63.479-65.621-110.885v-0.048c0-70.571 57.429-128 128-128h85.333v-85.333h-85.333c-117.762 0.146-213.188 95.571-213.333 213.319v0.014c0 68.693 33.792 133.035 89.685 172.885 22.187 167.936 166.315 296.448 337.067 296.448 156.416 0 292.693-109.312 329.984-259.243zM554.667 102.998l55.125 55.125 60.416-60.331-128-128c-7.744-7.703-18.42-12.464-30.208-12.464s-22.464 4.762-30.21 12.466l-127.998 127.998 60.416 60.331 55.125-55.125v323.669h85.333v-323.669z" />
<glyph unicode="&#xe949;" glyph-name="cloud-16" data-tags="cloud-16" d="M544 55.915l137.344 137.344 45.312-45.248-192-192c-5.808-5.777-13.815-9.348-22.656-9.348s-16.848 3.571-22.657 9.35l-191.999 191.999 45.312 45.248 137.344-137.344v370.752h64v-370.752zM992 458.667c-0.145-105.89-85.874-191.709-191.716-192h-96.284v64h96c70.592 0 128 57.408 128 128s-57.408 128-128 128l-62.784-0.128-3.136 28.544c-1.393 13.513-3.558 25.64-6.527 37.447l0.383-1.799c-29.363 111.247-129.087 191.936-247.656 191.936-0.098 0-0.197 0-0.295 0h0.015c-131.939-0.058-240.402-100.497-253.163-229.086l-0.085-1.058-2.368-23.936-23.616-4.352c-59.968-11.233-104.748-63.168-104.768-125.566v-0.002c0-70.592 57.408-128 128-128h96v-64h-96c-105.856 0-192 86.144-192 192 0 84.544 55.168 158.016 134.208 182.848 26.255 151.442 156.671 265.152 313.646 265.152 0.052 0 0.103 0 0.155 0h-0.008c0.028 0 0.061 0 0.094 0 154.039 0 282.642-108.905 313.013-253.919l0.365-2.081h6.528c105.856 0 192-86.144 192-192z" />
<glyph unicode="&#xe94a;" glyph-name="cloud-24" data-tags="cloud-24" d="M810.667 629.334c88.317-0.121 159.879-71.683 160-159.988v-0.012c-0.121-88.317-71.683-159.879-159.988-160h-128.012v64h128c52.907 0 96 43.051 96 96s-43.093 96-96 96h-85.333c-17.673 0-32 14.327-32 32v0c-0.146 123.653-100.347 223.855-223.986 224h-0.014c-123.653-0.146-223.855-100.347-224-223.986v-0.014c0-17.673-14.327-32-32-32v0c-52.99-0.073-95.927-43.010-96-95.993v-0.007c0-52.949 43.093-96 96-96h128v-64h-128c-88.317 0.121-159.879 71.683-160 159.988v0.012c0.119 77.526 55.24 142.143 128.423 156.925l1.028 0.173c14.635 145.195 137.557 258.901 286.549 258.901 148.011 0 270.251-112.213 286.251-256h55.083zM544 77.227l116.053 116.053 45.227-45.227-170.667-170.667c-5.78-5.803-13.777-9.394-22.613-9.394s-16.833 3.591-22.612 9.393l-170.668 170.668 45.227 45.227 116.053-116.053v349.44h64v-349.44z" />
<glyph unicode="&#xe94b;" glyph-name="code-12" data-tags="code-12" d="M128 128h768v597.333h-768zM938.667 42.667h-853.333c-23.564 0-42.667 19.103-42.667 42.667v0 682.667c0 23.564 19.103 42.667 42.667 42.667v0h853.333c23.564 0 42.667-19.103 42.667-42.667v0-682.667c0-23.564-19.103-42.667-42.667-42.667v0zM311.125 311.126l-85.333 85.333c-7.744 7.725-12.535 18.407-12.535 30.208s4.791 22.483 12.534 30.207l85.334 85.334 60.416-60.416-55.211-55.125 55.211-55.125zM712.875 311.126l-60.331 60.416 55.125 55.125-55.125 55.125 60.331 60.416 85.333-85.333c7.744-7.725 12.535-18.407 12.535-30.208s-4.791-22.483-12.534-30.207l-0.001-0.001zM464.811 236.886l-76.373 38.144 170.667 341.333 76.373-38.144z" />
<glyph unicode="&#xe94c;" glyph-name="code-16" data-tags="code-16" d="M96 74.667h832v704h-832v-704zM960 10.667h-896c-17.673 0-32 14.327-32 32v0 768c0 17.673 14.327 32 32 32v0h896c17.673 0 32-14.327 32-32v0-768c0-17.673-14.327-32-32-32v0zM297.344 276.011l-128 128c-5.789 5.791-9.369 13.789-9.369 22.624s3.58 16.833 9.369 22.624l128 128 45.312-45.248-105.408-105.344 105.408-105.344-45.312-45.248zM726.656 276.011l-45.248 45.248 105.344 105.408-105.344 105.344 45.248 45.312 128-128c5.808-5.794 9.401-13.805 9.401-22.656s-3.593-16.862-9.401-22.655l-128.001-128.001zM478.336 224.555l-60.672 20.224 128 384 60.736-20.224-128-384z" />
<glyph unicode="&#xe94d;" glyph-name="code-24" data-tags="code-24" d="M117.333 74.667h789.333v704h-789.333zM938.667 10.667h-853.333c-17.673 0-32 14.327-32 32v0 768c0 17.673 14.327 32 32 32v0h853.333c17.673 0 32-14.327 32-32v0-768c0-17.673-14.327-32-32-32v0zM318.72 276.054l-128 128c-5.782 5.789-9.359 13.784-9.359 22.613s3.576 16.824 9.359 22.614v0l128 128 45.227-45.227-105.387-105.387 105.387-105.387zM705.28 276.054l-45.227 45.227 105.387 105.387-105.387 105.387 45.227 45.227 128-128c5.782-5.789 9.359-13.784 9.359-22.613s-3.576-16.824-9.359-22.614v0zM500.352 248.235l-62.037 15.531 85.333 341.333 62.037-15.531z" />
<glyph unicode="&#xe94e;" glyph-name="copy-12" data-tags="copy-12" d="M968.533 712.534l-170.667 170.667c-7.344 7.886-17.787 12.803-29.378 12.803-0.172 0-0.344-0.001-0.515-0.003h-383.974c-23.564 0-42.667-19.103-42.667-42.667v0-128h-256c-23.564 0-42.667-19.103-42.667-42.667v0-682.667c0-23.564 19.103-42.667 42.667-42.667v0h554.667c23.564 0 42.667 19.103 42.667 42.667v0 128h256c23.564 0 42.667 19.103 42.667 42.667v0 512c0.002 0.145 0.003 0.317 0.003 0.489 0 11.591-4.917 22.033-12.779 29.356l-0.024 0.022zM597.333 42.667h-469.333v597.333h213.333v-469.333c0-23.564 19.103-42.667 42.667-42.667v0h213.333v-85.333zM426.667 213.334v597.333h298.667v-128c0-23.564 19.103-42.667 42.667-42.667v0h128v-426.667h-469.333z" />
<glyph unicode="&#xe94f;" glyph-name="copy-16" data-tags="copy-16" d="M918.4 641.067l-256 256c-5.508 5.915-13.34 9.602-22.033 9.602-0.129 0-0.258-0.001-0.386-0.002h-319.98c-17.673 0-32-14.327-32-32v0-160h-160c-17.673 0-32-14.327-32-32v0-704c0-17.673 14.327-32 32-32v0h576c17.673 0 32 14.327 32 32v0 160h160c17.673 0 32 14.327 32 32v0 448c0.001 0.109 0.002 0.238 0.002 0.367 0 8.693-3.688 16.525-9.584 22.017l-0.018 0.017zM672 797.227l146.56-146.56h-146.56v146.56zM672 10.667h-512v640h128v-480c0-17.673 14.327-32 32-32v0h352v-128zM352 202.667v640h256v-224c0-17.673 14.327-32 32-32v0h224v-384h-512z" />
<glyph unicode="&#xe950;" glyph-name="copy-24" data-tags="copy-24" d="M918.613 705.28l-170.667 170.667c-5.786 5.793-13.78 9.379-22.612 9.387h-384.002c-17.577-0.237-31.763-14.423-32-31.977v-138.69h-181.333c-17.577-0.237-31.763-14.423-32-31.977v-682.69c0.237-17.577 14.423-31.763 31.977-32h554.69c17.577 0.237 31.763 14.423 32 31.977v138.69h181.333c17.577 0.237 31.763 14.423 32 31.977v512.023c-0.008 8.833-3.594 16.828-9.386 22.613v0zM861.44 672h-146.773v146.773l146.773-146.773zM650.667 32h-490.667v618.667h149.333v-480c0.237-17.577 14.423-31.763 31.977-32h309.356v-106.667zM373.333 202.667v618.667h277.333v-181.333c0.237-17.577 14.423-31.763 31.977-32h181.356v-405.333h-490.667z" />
<glyph unicode="&#xe951;" glyph-name="dashboard-12" data-tags="dashboard-12" d="M938.667-42.666h-853.333c-23.564 0-42.667 19.103-42.667 42.667v0 853.333h85.333v-810.667h810.667v-85.333zM243.541 268.459l-60.416 60.416 213.333 213.333c7.725 7.744 18.407 12.535 30.208 12.535s22.483-4.791 30.207-12.534l140.46-140.545 311.125 311.211 60.331-60.416-341.333-341.333c-7.721-7.718-18.386-12.492-30.165-12.492s-22.445 4.774-30.165 12.492l-140.459 140.544-183.211-183.211z" />
<glyph unicode="&#xe952;" glyph-name="dashboard-16" data-tags="dashboard-16" d="M164.736 74.667h800v-64h-832c-17.673 0-32 14.327-32 32v0 768h64zM452.736 381.419l-169.344-169.344-45.312 45.248 192 192c5.808 5.777 13.815 9.348 22.656 9.348s16.848-3.571 22.657-9.35l105.343-105.407 297.344 297.408 45.312-45.248-320-320c-5.794-5.808-13.805-9.401-22.656-9.401s-16.862 3.593-22.655 9.401l-0.001 0.001z" />
<glyph unicode="&#xe953;" glyph-name="dashboard-24" data-tags="dashboard-24" d="M896 10.667h-768c-17.673 0-32 14.327-32 32v0 768h64v-736h736zM278.613 233.387l-45.227 45.227 213.333 213.333c5.789 5.782 13.784 9.359 22.613 9.359s16.824-3.576 22.614-9.359v0l105.387-105.387 233.387 233.387 45.227-45.227-256-256c-5.789-5.782-13.784-9.359-22.613-9.359s-16.824 3.576-22.614 9.359v0l-105.387 105.387z" />
<glyph unicode="&#xe954;" glyph-name="delete-12" data-tags="delete-12" d="M938.667 725.334v-85.333h-85.333v-597.333c0-47.128-38.205-85.333-85.333-85.333v0h-512c-47.128 0-85.333 38.205-85.333 85.333v0 597.333h-85.333v85.333h213.333v85.333c0 47.128 38.205 85.333 85.333 85.333v0h256c47.128 0 85.333-38.205 85.333-85.333v0-85.333zM384 810.667v-85.333h256v85.333zM768 42.667v597.333h-512v-597.333zM384 512h85.333v-341.333h-85.333zM554.667 512h85.333v-341.333h-85.333z" />
<glyph unicode="&#xe955;" glyph-name="delete-16" data-tags="delete-16" d="M928 714.667v-64h-96v-608c0-53.019-42.981-96-96-96v0h-448c-53.019 0-96 42.981-96 96v0 608h-96v64h256v160c0 17.673 14.327 32 32 32v0h256c17.673 0 32-14.327 32-32v0-160h256zM416 842.667v-128h192v128h-192zM768 42.667v608h-512v-608c0-17.673 14.327-32 32-32v0h448c17.673 0 32 14.327 32 32v0zM384 554.667h64v-448h-64v448zM576 554.667h64v-448h-64v448z" />
<glyph unicode="&#xe956;" glyph-name="delete-24" data-tags="delete-24" d="M394.667 512h64v-341.333h-64v341.333zM565.333 512h64v-341.333h-64v341.333zM896 714.667v-64h-53.333v-608c-0.241-41.14-33.526-74.426-74.644-74.667h-512.023c-41.14 0.241-74.426 33.526-74.667 74.644v608.023h-53.333v64h224v96c0.241 41.14 33.526 74.426 74.644 74.667h170.69c41.14-0.241 74.426-33.526 74.667-74.644v-96.023h224zM416 810.667v-96h192v96c0 5.891-4.776 10.667-10.667 10.667v0h-170.667c-5.891 0-10.667-4.776-10.667-10.667v0zM778.667 42.667v608h-533.333v-608c0-5.888 4.779-10.667 10.667-10.667h512c5.891 0 10.667 4.776 10.667 10.667v0z" />
<glyph unicode="&#xe957;" glyph-name="device-12" data-tags="device-12" d="M768 725.334h-512c-23.564 0-42.667-19.103-42.667-42.667v0-512c0-23.564 19.103-42.667 42.667-42.667v0h128v-170.667h85.333v170.667h85.333v-170.667h85.333v170.667h128c23.564 0 42.667 19.103 42.667 42.667v0 512c0 23.564-19.103 42.667-42.667 42.667v0zM725.333 213.334h-426.667v426.667h426.667v-426.667z" />
<glyph unicode="&#xe958;" glyph-name="device-16" data-tags="device-16" d="M832 778.667c17.673 0 32-14.327 32-32v0-640c0-17.673-14.327-32-32-32v0h-96v-128h-64v128h-128v-128h-64v128h-128v-128h-64v128h-96c-17.673 0-32 14.327-32 32v0 640c0 17.673 14.327 32 32 32v0h640zM800 138.667v576h-576v-576h576zM384 266.667c-17.673 0-32 14.327-32 32v0 256c0 17.673 14.327 32 32 32v0h256c17.673 0 32-14.327 32-32v0-256c0-17.673-14.327-32-32-32v0h-256zM416 522.667v-192h192v192h-192z" />
<glyph unicode="&#xe959;" glyph-name="device-24" data-tags="device-24" d="M810.667 800c17.577-0.237 31.763-14.423 32-31.977v-597.356c-0.237-17.577-14.423-31.763-31.977-32h-96.023v-138.667h-64v138.667h-106.667v-138.667h-64v138.667h-106.667v-138.667h-64v138.667h-96c-17.577 0.237-31.763 14.423-32 31.977v597.356c0.237 17.577 14.423 31.763 31.977 32h597.356zM778.667 202.667v533.333h-533.333v-533.333h533.333zM384 309.334c-17.577 0.237-31.763 14.423-32 31.977v256.023c0.237 17.577 14.423 31.763 31.977 32h256.023c17.577-0.237 31.763-14.423 32-31.977v-256.023c-0.237-17.577-14.423-31.763-31.977-32h-256.023zM416 565.334v-192h192v192h-192z" />
<glyph unicode="&#xe95a;" glyph-name="document-12" data-tags="document-12" d="M883.2 712.534l-170.667 170.667c-7.344 7.886-17.787 12.803-29.378 12.803-0.172 0-0.344-0.001-0.515-0.003h-511.974c-23.564 0-42.667-19.103-42.667-42.667v0-853.333c0-23.564 19.103-42.667 42.667-42.667v0h682.667c23.564 0 42.667 19.103 42.667 42.667v0 682.667c0.002 0.145 0.003 0.317 0.003 0.489 0 11.591-4.917 22.033-12.779 29.356l-0.024 0.022zM213.333 42.667v768h426.667v-128c0-23.564 19.103-42.667 42.667-42.667v0h128v-597.333h-597.333z" />
<glyph unicode="&#xe95b;" glyph-name="document-16" data-tags="document-16" d="M886.4 641.067l-256 256c-5.508 5.915-13.34 9.602-22.033 9.602-0.129 0-0.258-0.001-0.386-0.002h-447.98c-17.673 0-32-14.327-32-32v0-896c0-17.673 14.327-32 32-32v0h704c17.673 0 32 14.327 32 32v0 640c0.001 0.109 0.002 0.238 0.002 0.367 0 8.693-3.688 16.525-9.584 22.017l-0.018 0.017zM640 797.227l146.56-146.56h-146.56v146.56zM192 10.667v832h384v-224c0-17.673 14.327-32 32-32v0h224v-576h-640z" />
<glyph unicode="&#xe95c;" glyph-name="document-24" data-tags="document-24" d="M875.947 662.614l-213.333 213.333c-5.786 5.793-13.78 9.379-22.612 9.387h-469.335c-17.577-0.237-31.763-14.423-32-31.977v-853.356c0.237-17.577 14.423-31.763 31.977-32h682.69c17.577 0.237 31.763 14.423 32 31.977v640.023c-0.008 8.833-3.594 16.828-9.386 22.613v0zM818.773 629.334h-187.733v187.733zM202.667 32v789.333h364.373v-224c0-17.664 14.336-32 32-32h222.293v-533.333z" />
<glyph unicode="&#xe95d;" glyph-name="download-12" data-tags="download-12" d="M896 426.667h85.333v-426.667c0-23.564-19.103-42.667-42.667-42.667v0h-853.333c-23.564 0-42.667 19.103-42.667 42.667v0 426.667h85.333v-384h768v384zM512 213.334c-0.145-0.002-0.317-0.003-0.489-0.003-11.591 0-22.033 4.917-29.356 12.779l-0.022 0.024-256 256 59.733 59.733 183.467-182.613v494.080h85.333v-494.080l183.467 182.613 59.733-59.733-256-256c-7.344-7.886-17.787-12.803-29.378-12.803-0.172 0-0.344 0.001-0.515 0.003h0.026z" />
<glyph unicode="&#xe95e;" glyph-name="download-16" data-tags="download-16" d="M928 426.667h64v-448c0-17.673-14.327-32-32-32v0h-896c-17.673 0-32 14.327-32 32v0 448h64v-416h832v416zM512 202.667c-0.109-0.001-0.238-0.002-0.367-0.002-8.693 0-16.525 3.688-22.017 9.584l-0.017 0.018-256 256 44.8 44.8 201.6-200.96v562.56h64v-562.56l201.6 200.96 44.8-44.8-256-256c-5.508-5.915-13.34-9.602-22.033-9.602-0.129 0-0.258 0.001-0.386 0.002h0.020z" />
<glyph unicode="&#xe95f;" glyph-name="download-24" data-tags="download-24" d="M512 266.667c-0.044 0-0.097 0-0.149 0-8.788 0-16.737 3.59-22.461 9.384l-213.336 213.336 45.227 45.227 158.72-158.72v477.44h64v-477.44l158.72 158.72 45.227-45.227-213.333-213.333c-5.727-5.797-13.676-9.387-22.464-9.387-0.052 0-0.105 0-0.157 0h0.008zM864 426.667h64v-384c-0.237-17.577-14.423-31.763-31.977-32h-768.023c-17.577 0.237-31.763 14.423-32 31.977v384.023h64v-352h704v352z" />
<glyph unicode="&#xe960;" glyph-name="duplicate-12" data-tags="duplicate-12" d="M938.667-42.666h-682.667c-23.564 0-42.667 19.103-42.667 42.667v0 682.667c0 23.564 19.103 42.667 42.667 42.667v0h682.667c23.564 0 42.667-19.103 42.667-42.667v0-682.667c0-23.564-19.103-42.667-42.667-42.667v0zM298.667 42.667h597.333v597.333h-597.333v-597.333zM128 170.667h-85.333v682.667c0 23.564 19.103 42.667 42.667 42.667v0h682.667v-85.333h-640v-640z" />
<glyph unicode="&#xe961;" glyph-name="duplicate-16" data-tags="duplicate-16" d="M960-53.333h-768c-17.673 0-32 14.327-32 32v0 768c0 17.673 14.327 32 32 32v0h768c17.673 0 32-14.327 32-32v0-768c0-17.673-14.327-32-32-32v0zM224 10.667h704v704h-704v-704zM96 106.667h-64v768c0 17.673 14.327 32 32 32v0h768v-64h-736v-736z" />
<glyph unicode="&#xe962;" glyph-name="duplicate-24" data-tags="duplicate-24" d="M938.667-32h-682.667c-17.577 0.237-31.763 14.423-32 31.977v682.69c0.237 17.577 14.423 31.763 31.977 32h682.69c17.577-0.237 31.763-14.423 32-31.977v-682.69c-0.237-17.577-14.423-31.763-31.977-32h-0.023zM288 32h618.667v618.667h-618.667v-618.667zM117.333 170.667h-64v682.667c0.237 17.577 14.423 31.763 31.977 32h682.69v-64h-650.667v-650.667z" />
<glyph unicode="&#xe963;" glyph-name="edit-12" data-tags="edit-12" d="M938.667 743.254l-110.080 110.080c-15.424 15.335-36.685 24.814-60.16 24.814s-44.736-9.479-60.164-24.818l0.004 0.004-622.933-622.080c-5.758-6.554-9.944-14.63-11.883-23.544l-0.064-0.349-29.867-201.387c-0.323-1.932-0.507-4.158-0.507-6.427 0-11.536 4.769-21.959 12.444-29.403l0.010-0.010c7.344-7.886 17.787-12.803 29.378-12.803 0.172 0 0.344 0.001 0.515 0.003h6.801l200.533 30.72c9.508 0.98 17.837 5.375 23.87 11.921l0.024 0.026 622.080 622.080c15.59 15.467 25.241 36.9 25.241 60.587s-9.651 45.12-25.236 60.581l-0.006 0.006zM266.24 69.974l-129.707-19.627 19.627 129.707 441.173 442.027 110.933-110.080-442.027-442.027zM768 572.587l-110.080 110.080 110.080 110.080 110.933-110.080-110.933-110.080z" />
<glyph unicode="&#xe964;" glyph-name="edit-16" data-tags="edit-16" d="M937.6 750.507l-101.76 101.76c-17.438 17.195-41.399 27.814-67.84 27.814s-50.402-10.619-67.851-27.825l0.011 0.011-594.56-595.2c-4.196-3.883-7.317-8.87-8.907-14.499l-0.053-0.221-64-256c-0.546-2.189-0.859-4.703-0.859-7.289 0-8.971 3.767-17.061 9.804-22.777l0.014-0.014c5.508-5.915 13.34-9.602 22.033-9.602 0.129 0 0.258 0.001 0.386 0.002h-0.020c2.56-0.64 5.12-0.64 7.68 0l256 64c5.893 1.138 10.956 4.113 14.698 8.295l0.022 0.025 595.2 594.56c17.575 17.503 28.451 41.721 28.451 68.48s-10.875 50.977-28.447 68.477l-0.003 0.003zM303.36 71.467l-195.2-48.64 48.64 195.2 483.2 483.2 146.56-146.56zM892.16 660.267l-60.16-60.16-146.56 146.56 60.16 60.16c5.767 5.656 13.676 9.147 22.4 9.147s16.633-3.491 22.405-9.152l101.755-101.755c5.656-5.767 9.147-13.676 9.147-22.4s-3.491-16.633-9.152-22.405l0.005 0.005z" />
<glyph unicode="&#xe965;" glyph-name="edit-24" data-tags="edit-24" d="M873.387 707.84l-80.213 80.213c-17.368 17.347-41.351 28.076-67.84 28.076s-50.472-10.728-67.841-28.077l-509.439-509.439c-4.314-4.332-7.457-9.832-8.914-15.984l-0.046-0.229-42.667-213.333c-0.341-1.777-0.536-3.821-0.536-5.91 0-9.009 3.626-17.171 9.499-23.106l-0.003 0.003c5.973-5.973 14.123-9.387 22.613-9.387h6.4l213.333 42.667c6.433 1.325 11.975 4.504 16.201 8.947l0.012 0.013 509.44 509.867c17.347 17.368 28.076 41.351 28.076 67.84s-10.728 50.472-28.077 67.841l0.001-0.001zM325.547 114.774l-154.88-29.44 31.147 156.587 395.52 395.52 125.44-125.44-397.227-397.227zM828.16 617.387l-60.16-60.16-125.44 125.44 60.16 60.16c5.789 5.782 13.784 9.359 22.613 9.359s16.824-3.576 22.614-9.359v0l80.213-80.213c5.782-5.789 9.359-13.784 9.359-22.613s-3.576-16.824-9.359-22.614v0z" />
<glyph unicode="&#xe966;" glyph-name="emission-12" data-tags="emission-12" d="M469.333 554.667c-134.733-0.751-244.771-105.468-253.993-237.959l-0.045-0.803c-1.046-14.717-9.381-27.28-21.382-34.194l-0.208-0.11c-39.234-22.163-65.367-63.458-65.706-110.885v-0.048c0-70.571 57.429-128 128-128h512c70.571 0 128 57.429 128 128s-57.429 128-128 128v0.256c-20.736 1.195-43.605 15.787-46.507 35.925-18.452 124.446-124.14 218.973-252.071 219.818h-0.089zM768-42.666h-512c-117.762 0.146-213.188 95.571-213.333 213.319v0.014c0 68.693 33.792 133.12 89.685 172.885 22.272 167.936 166.229 296.448 336.981 296.448 156.245 0 292.181-108.8 329.813-258.219 103.576-15.938 181.994-104.339 182.187-211.094v-0.020c0-117.589-95.744-213.333-213.333-213.333zM938.667 469.334c0-23.564-19.103-42.667-42.667-42.667s-42.667 19.103-42.667 42.667v0c0 23.564 19.103 42.667 42.667 42.667s42.667-19.103 42.667-42.667v0zM853.333 640c0-23.564-19.103-42.667-42.667-42.667s-42.667 19.103-42.667 42.667v0c0 23.564 19.103 42.667 42.667 42.667s42.667-19.103 42.667-42.667v0zM170.667 640c0-23.564-19.103-42.667-42.667-42.667s-42.667 19.103-42.667 42.667v0c0 23.564 19.103 42.667 42.667 42.667s42.667-19.103 42.667-42.667v0zM341.333 810.667c0-23.564-19.103-42.667-42.667-42.667s-42.667 19.103-42.667 42.667v0c0 23.564 19.103 42.667 42.667 42.667s42.667-19.103 42.667-42.667v0z" />
<glyph unicode="&#xe967;" glyph-name="emission-16" data-tags="emission-16" d="M800 10.667h-576c-105.881 0.209-191.633 86.090-191.633 192 0 85.335 55.67 157.667 132.674 182.659l1.358 0.381c28.756 149.622 158.625 261.124 314.537 261.124 146.907 0 270.692-98.994 308.287-233.914l0.535-2.251 3.84-16h6.4c106.039 0 192-85.961 192-192s-85.961-192-192-192v0zM480 586.667c-0.381 0.002-0.832 0.003-1.283 0.003-132.37 0-241.275-100.465-254.625-229.305l-0.092-1.098v-23.68l-23.68-4.48c-65.846-6.102-116.997-61.078-116.997-128 0-70.978 57.539-128.517 128.517-128.517 4.056 0 8.068 0.188 12.028 0.555l-0.508-0.038h576c70.692 0 128 57.308 128 128s-57.308 128-128 128v0h-64v28.8c-1.357 13.227-3.612 25.191-6.767 36.784l0.367-1.584c-28.524 112.586-128.948 194.56-248.518 194.56-0.156 0-0.311 0-0.466 0h0.024zM800 618.667c-17.673 0-32 14.327-32 32s14.327 32 32 32v0c17.673 0 32-14.327 32-32s-14.327-32-32-32v0zM160 618.667c-17.673 0-32 14.327-32 32s14.327 32 32 32v0c17.673 0 32-14.327 32-32s-14.327-32-32-32v0zM352 810.667c-17.673 0-32 14.327-32 32s14.327 32 32 32v0c17.673 0 32-14.327 32-32s-14.327-32-32-32v0zM928 490.667c-17.673 0-32 14.327-32 32s14.327 32 32 32v0c17.673 0 32-14.327 32-32s-14.327-32-32-32v0z" />
<glyph unicode="&#xe968;" glyph-name="emission-24" data-tags="emission-24" d="M810.667 10.667h-597.333c-88.344 0.029-159.95 71.652-159.95 160 0 77.479 55.071 142.095 128.205 156.841l1.025 0.172c14.621 146.661 137.376 260.241 286.659 260.241 148.228 0 270.301-111.98 286.238-255.959l0.116-1.296h55.040c88.366 0 160-71.634 160-160s-71.634-160-160-160v0zM469.333 522.667c-123.614-0.242-223.758-100.386-224-223.977v-0.023c-0.237-17.577-14.423-31.763-31.977-32h-0.023c-53.019 0-96-42.981-96-96s42.981-96 96-96v0h597.333c53.019 0 96 42.981 96 96s-42.981 96-96 96v0h-85.333c-17.577 0.237-31.763 14.423-32 31.977v0.023c-0.242 123.614-100.386 223.758-223.977 224h-0.023zM170.667 554.667c-23.564 0-42.667 19.103-42.667 42.667s19.103 42.667 42.667 42.667v0c23.564 0 42.667-19.103 42.667-42.667s-19.103-42.667-42.667-42.667v0zM341.333 768c-23.564 0-42.667 19.103-42.667 42.667s19.103 42.667 42.667 42.667v0c23.564 0 42.667-19.103 42.667-42.667s-19.103-42.667-42.667-42.667v0zM725.333 597.334c-23.564 0-42.667 19.103-42.667 42.667s19.103 42.667 42.667 42.667v0c23.564 0 42.667-19.103 42.667-42.667s-19.103-42.667-42.667-42.667v0zM896 426.667c-23.564 0-42.667 19.103-42.667 42.667s19.103 42.667 42.667 42.667v0c23.564 0 42.667-19.103 42.667-42.667s-19.103-42.667-42.667-42.667v0z" />
<glyph unicode="&#xe969;" glyph-name="enter-12" data-tags="enter-12" d="M896 853.334v-554.667h-707.669l183.211 183.125-60.416 60.416-256-256c-7.703-7.744-12.464-18.42-12.464-30.208s4.762-22.464 12.466-30.21l255.998-255.998 60.416 60.416-183.211 183.125h750.336c23.564 0 42.667 19.103 42.667 42.667v0 597.333h-85.333z" />
<glyph unicode="&#xe96a;" glyph-name="enter-16" data-tags="enter-16" d="M928 810.667v-544h-786.752l201.408 201.344-45.312 45.312-256-256c-5.777-5.808-9.348-13.815-9.348-22.656s3.571-16.848 9.35-22.657l255.999-255.999 45.312 45.312-201.408 201.344h818.752c17.673 0 32 14.327 32 32v0 576h-64z" />
<glyph unicode="&#xe96b;" glyph-name="enter-24" data-tags="enter-24" d="M906.667 896v-608h-744.064l201.344 201.387-45.227 45.227-256-256c-5.793-5.785-9.376-13.781-9.376-22.613s3.583-16.829 9.376-22.613v0l256-256 45.227 45.227-201.344 201.387h776.064c17.673 0 32 14.327 32 32v0 640h-64z" />
<glyph unicode="&#xe96c;" glyph-name="failure-12" data-tags="failure-12" d="M883.2 712.534c7.886-7.344 12.803-17.787 12.803-29.378 0-0.172-0.001-0.344-0.003-0.515v0.026-682.667c0-23.564-19.103-42.667-42.667-42.667v0h-682.667c-23.564 0-42.667 19.103-42.667 42.667v0 853.333c0 23.564 19.103 42.667 42.667 42.667v0h512c0.145 0.002 0.317 0.003 0.489 0.003 11.591 0 22.033-4.917 29.356-12.779l0.022-0.024 170.667-170.667zM213.333 42.667h597.333v597.333h-128c-23.564 0-42.667 19.103-42.667 42.667v0 128h-426.667v-768zM652.8 541.867l59.733-59.733-139.947-140.8 139.947-140.8-59.733-59.733-140.8 139.947-140.8-139.947-59.733 59.733 139.947 140.8-139.947 140.8 59.733 59.733 140.8-139.947 140.8 139.947z" />
<glyph unicode="&#xe96d;" glyph-name="failure-16" data-tags="failure-16" d="M886.4 641.067c5.915-5.508 9.602-13.34 9.602-22.033 0-0.129-0.001-0.258-0.002-0.386v0.020-640c0-17.673-14.327-32-32-32v0h-704c-17.673 0-32 14.327-32 32v0 896c0 17.673 14.327 32 32 32v0h448c0.109 0.001 0.238 0.002 0.367 0.002 8.693 0 16.525-3.688 22.017-9.584l0.017-0.018 256-256zM640 797.227v-146.56h146.56l-146.56 146.56zM192 10.667h640v576h-224c-17.673 0-32 14.327-32 32v0 224h-384v-832zM625.28 456.747l44.8-44.8-112.64-113.28 112.64-113.28-44.8-44.8-113.28 112.64-113.28-112.64-44.8 44.8 112.64 113.28-112.64 113.28 44.8 44.8 113.28-112.64 113.28 112.64z" />
<glyph unicode="&#xe96e;" glyph-name="failure-24" data-tags="failure-24" d="M875.947 662.614c5.973-5.973 9.387-14.123 9.387-22.613v-640c-0.237-17.577-14.423-31.763-31.977-32h-682.69c-17.577 0.237-31.763 14.423-32 31.977v853.356c0.237 17.577 14.423 31.763 31.977 32h469.356c8.491 0 16.64-3.413 22.613-9.387zM818.773 629.334l-187.733 187.733v-187.733zM202.667 32h618.667v533.333h-222.293c-17.673 0-32 14.327-32 32v0 224h-364.373zM617.387 449.28l45.227-45.227-105.387-105.387 105.387-105.387-45.227-45.227-105.387 105.387-105.387-105.387-45.227 45.227 105.387 105.387-105.387 105.387 45.227 45.227 105.387-105.387z" />
<glyph unicode="&#xe96f;" glyph-name="favorite-outline-12" data-tags="favorite-default-12" d="M775.68-22.186c-0.072 0-0.156-0.001-0.241-0.001-7.129 0-13.813 1.9-19.575 5.222l0.19-0.101-244.053 128-244.053-128c-6.295-3.998-13.964-6.372-22.187-6.372s-15.891 2.374-22.358 6.473l0.171-0.101c-10.883 7.288-17.952 19.535-17.952 33.432 0 2.969 0.323 5.862 0.934 8.647l-0.049-0.266 49.493 274.773-200.533 192c-7.989 8.15-12.92 19.324-12.92 31.65 0 4.535 0.667 8.913 1.909 13.044l-0.083-0.32c5.345 15.327 18.601 26.591 34.749 28.984l0.238 0.029 272.213 39.253 122.027 249.173c7.822 13.329 22.082 22.137 38.4 22.137s30.578-8.808 38.287-21.929l0.113-0.208 122.027-247.467 272.213-39.253c16.386-2.423 29.642-13.687 34.894-28.708l0.093-0.305c1.159-3.81 1.827-8.189 1.827-12.723 0-12.326-4.931-23.5-12.927-31.657l0.007 0.007-200.533-193.707 46.080-271.36c0.563-2.519 0.885-5.412 0.885-8.381 0-13.898-7.069-26.145-17.807-33.341l-0.145-0.091c-5.929-4.524-13.204-7.584-21.129-8.514l-0.204-0.019zM512 202.24c6.827 0 13.653-1.707 19.627-5.12l187.733-98.133-36.693 208.213c-0.137 1.256-0.215 2.712-0.215 4.187 0 11.808 4.997 22.45 12.991 29.925l0.023 0.022 151.893 151.040-209.92 30.72c-13.958 2.080-25.505 10.805-31.464 22.797l-0.109 0.243-93.867 190.293-93.867-190.293c-6.069-12.235-17.616-20.96-31.344-23.012l-0.229-0.028-209.92-30.72 151.893-151.040c8.018-7.497 13.015-18.138 13.015-29.946 0-1.475-0.078-2.931-0.23-4.366l0.015 0.179-36.693-208.213 187.733 98.133c5.572 3.221 12.257 5.121 19.385 5.121 0.085 0 0.17 0 0.254-0.001h-0.013z" />
<glyph unicode="&#xe970;" glyph-name="favorite-outline-16" data-tags="favorite-default-16" d="M789.12-31.573c-5.623 0.055-10.903 1.469-15.544 3.929l0.184-0.089-261.76 134.4-261.76-134.4c-4.406-2.434-9.66-3.866-15.247-3.866-17.673 0-32 14.327-32 32 0 2.046 0.192 4.046 0.559 5.985l-0.031-0.199 52.48 292.48-214.4 205.44c-5.992 6.113-9.69 14.493-9.69 23.738 0 3.401 0.501 6.685 1.432 9.783l-0.062-0.24c4.009 11.495 13.951 19.943 26.062 21.738l0.178 0.022 292.48 42.24 131.2 265.6c5.866 9.997 16.562 16.603 28.8 16.603s22.934-6.606 28.715-16.447l0.085-0.156 131.2-265.6 292.48-42.24c12.289-1.817 22.231-10.265 26.17-21.531l0.070-0.229c0.869-2.857 1.37-6.141 1.37-9.542 0-9.244-3.698-17.625-9.695-23.743l0.005 0.006-214.4-205.44 49.92-291.84c0.259-1.544 0.407-3.323 0.407-5.136 0-10.708-5.156-20.211-13.121-26.163l-0.086-0.061c-4.323-3.776-9.812-6.319-15.862-7.027l-0.138-0.013zM512 178.347c5.12 0 10.24-1.28 14.72-3.84l219.52-115.2-42.24 244.48c-0.331 1.712-0.521 3.68-0.521 5.693 0 8.806 3.63 16.764 9.474 22.46l177.927 172.806-245.76 35.84c-9.819 1.199-18.22 6.438-23.61 13.977l-0.070 0.103-109.44 225.92-109.44-225.92c-4.99-9.055-13.757-15.504-24.121-17.252l-0.199-0.028-245.76-35.84 177.92-172.8c5.972-5.719 9.684-13.758 9.684-22.663 0-0.808-0.031-1.61-0.091-2.403l0.006 0.106-41.6-244.48 219.52 115.2c4.048 2.341 8.89 3.756 14.055 3.84h0.025z" />
<glyph unicode="&#xe971;" glyph-name="favorite-outline-24" data-tags="favorite-default-24" d="M775.68-11.093c-5.479 0.009-10.624 1.431-15.092 3.921l0.158-0.081-248.747 130.56-248.747-130.56c-4.377-2.492-9.617-3.961-15.2-3.961-6.967 0-13.4 2.288-18.589 6.153l0.083-0.059c-8.094 5.881-13.295 15.315-13.295 25.964 0 1.982 0.18 3.923 0.525 5.805l-0.030-0.196 47.36 276.907-200.96 196.267c-6.010 5.758-9.746 13.849-9.746 22.813 0 3.593 0.6 7.045 1.705 10.263l-0.066-0.222c3.652 11.591 13.414 20.214 25.416 22.162l0.184 0.025 278.187 40.107 124.587 252.16c5.912 9.793 16.496 16.24 28.587 16.24s22.675-6.447 28.503-16.091l0.084-0.149 124.587-252.16 278.187-40.107c15.496-2.408 27.217-15.655 27.217-31.64 0-9.010-3.723-17.15-9.715-22.965l-0.008-0.008-200.96-196.267 47.36-276.907c0.315-1.686 0.495-3.627 0.495-5.609 0-10.649-5.202-20.084-13.203-25.9l-0.092-0.064c-5.192-3.862-11.69-6.24-18.736-6.399l-0.037-0.001zM512 191.574c5.479-0.009 10.624-1.431 15.092-3.921l-0.158 0.081 206.080-108.373-39.253 229.547c-0.301 1.648-0.473 3.545-0.473 5.482 0 9.076 3.779 17.27 9.849 23.094l0.011 0.011 166.827 162.56-229.973 33.707c-10.578 1.574-19.324 8.203-23.811 17.308l-0.082 0.185-104.107 209.067-103.253-209.067c-4.722-9.499-13.828-16.199-24.597-17.479l-0.149-0.014-230.827-33.707 166.827-162.56c6.081-5.834 9.86-14.028 9.86-23.104 0-1.937-0.172-3.834-0.502-5.676l0.029 0.194-39.253-229.547 206.080 108.373c4.328 2.423 9.497 3.85 15 3.85 0.277 0 0.552-0.004 0.827-0.011l-0.041 0.001z" />
<glyph unicode="&#xe972;" glyph-name="favorite-filled-12" data-tags="favorite-filled-12" d="M775.68-22.186c-0.072 0-0.156-0.001-0.241-0.001-7.129 0-13.813 1.9-19.575 5.222l0.19-0.101-244.053 128-244.053-128c-6.295-3.998-13.964-6.372-22.187-6.372s-15.891 2.374-22.358 6.473l0.171-0.101c-10.883 7.288-17.952 19.535-17.952 33.432 0 2.969 0.323 5.862 0.934 8.647l-0.049-0.266 49.493 274.773-200.533 192c-7.989 8.15-12.92 19.324-12.92 31.65 0 4.535 0.667 8.913 1.909 13.044l-0.083-0.32c5.345 15.327 18.601 26.591 34.749 28.984l0.238 0.029 272.213 39.253 122.027 249.173c7.822 13.329 22.082 22.137 38.4 22.137s30.578-8.808 38.287-21.929l0.113-0.208 122.027-247.467 272.213-39.253c16.386-2.423 29.642-13.687 34.894-28.708l0.093-0.305c1.159-3.81 1.827-8.189 1.827-12.723 0-12.326-4.931-23.5-12.927-31.657l0.007 0.007-200.533-193.707 46.080-271.36c0.563-2.519 0.885-5.412 0.885-8.381 0-13.898-7.069-26.145-17.807-33.341l-0.145-0.091c-5.929-4.524-13.204-7.584-21.129-8.514l-0.204-0.019z" />
<glyph unicode="&#xe973;" glyph-name="favorite-filled-16" data-tags="favorite-filled-16" d="M789.12-31.573c-5.623 0.055-10.903 1.469-15.544 3.929l0.184-0.089-261.76 134.4-261.76-134.4c-4.406-2.434-9.66-3.866-15.247-3.866-17.673 0-32 14.327-32 32 0 2.046 0.192 4.046 0.559 5.985l-0.031-0.199 52.48 292.48-214.4 205.44c-5.992 6.113-9.69 14.493-9.69 23.738 0 3.401 0.501 6.685 1.432 9.783l-0.062-0.24c4.009 11.495 13.951 19.943 26.062 21.738l0.178 0.022 292.48 42.24 131.2 265.6c5.866 9.997 16.562 16.603 28.8 16.603s22.934-6.606 28.715-16.447l0.085-0.156 131.2-265.6 292.48-42.24c12.289-1.817 22.231-10.265 26.17-21.531l0.070-0.229c0.869-2.857 1.37-6.141 1.37-9.542 0-9.244-3.698-17.625-9.695-23.743l0.005 0.006-214.4-205.44 49.92-291.84c0.259-1.544 0.407-3.323 0.407-5.136 0-10.708-5.156-20.211-13.121-26.163l-0.086-0.061c-4.323-3.776-9.812-6.319-15.862-7.027l-0.138-0.013z" />
<glyph unicode="&#xe974;" glyph-name="favorite-filled-24" data-tags="favorite-filled-24" d="M775.68-11.093c-5.479 0.009-10.624 1.431-15.092 3.921l0.158-0.081-248.747 130.56-248.747-130.56c-4.377-2.492-9.617-3.961-15.2-3.961-6.967 0-13.4 2.288-18.589 6.153l0.083-0.059c-8.094 5.881-13.295 15.315-13.295 25.964 0 1.982 0.18 3.923 0.525 5.805l-0.030-0.196 47.36 276.907-200.96 196.267c-6.010 5.758-9.746 13.849-9.746 22.813 0 3.593 0.6 7.045 1.705 10.263l-0.066-0.222c3.652 11.591 13.414 20.214 25.416 22.162l0.184 0.025 278.187 40.107 124.587 252.16c5.912 9.793 16.496 16.24 28.587 16.24s22.675-6.447 28.503-16.091l0.084-0.149 124.587-252.16 278.187-40.107c15.496-2.408 27.217-15.655 27.217-31.64 0-9.010-3.723-17.15-9.715-22.965l-0.008-0.008-200.96-196.267 47.36-276.907c0.315-1.686 0.495-3.627 0.495-5.609 0-10.649-5.202-20.084-13.203-25.9l-0.092-0.064c-5.192-3.862-11.69-6.24-18.736-6.399l-0.037-0.001z" />
<glyph unicode="&#xe975;" glyph-name="fill-12" data-tags="fill-12" d="M775.083 495.19l-274.859 274.091c-6.784 7.307-16.443 11.864-27.167 11.864-0.169 0-0.338-0.001-0.507-0.003h-275.601c-86.22-1.019-155.722-71.15-155.722-157.515 0-69.451 44.945-128.405 107.336-149.361l1.111-0.324-70.827-70.144c-14.373-14.273-23.269-34.044-23.269-55.893s8.897-41.621 23.265-55.889l259.076-259.161c14.273-14.373 34.044-23.269 55.893-23.269s41.621 8.897 55.889 23.265l337.924 337.924v-101.632c0-43.523 35.282-78.805 78.805-78.805s78.805 35.282 78.805 78.805v0c0.366 4.701 0.574 10.18 0.574 15.708 0 103.071-72.516 189.206-169.312 210.168l-1.417 0.257zM393.813 88.747l-259.157 259.157 118.187 118.187h219.733v78.763h-275.627c-43.499 0-78.763 35.263-78.763 78.763s35.263 78.763 78.763 78.763v0h180.395l-50.432-51.2 55.125-55.125 90.539 89.771 259.157-259.157z" />
<glyph unicode="&#xe976;" glyph-name="fill-16" data-tags="fill-16" d="M1013.76 356.907c-18.102 62.033-65.967 109.898-126.683 127.67l-1.317 0.33-351.36 348.16c-5.508 5.915-13.34 9.602-22.033 9.602-0.129 0-0.258-0.001-0.386-0.002h-287.98c-105.293-0.978-190.272-86.561-190.272-191.992 0-73.594 41.405-137.517 102.191-169.744l1.041-0.504-50.56-49.92c-17.347-17.368-28.076-41.351-28.076-67.84s10.728-50.472 28.077-67.841l293.759-293.759c17.368-17.347 41.351-28.076 67.84-28.076s50.472 10.728 67.841 28.077l380.159 380.159v-82.56c0-35.346 28.654-64 64-64s64 28.654 64 64v0c-0.835 21.075-4.519 40.992-10.679 59.787l0.439-1.547zM470.4 46.507c-5.767-5.656-13.676-9.147-22.4-9.147s-16.633 3.491-22.405 9.152l-293.755 293.755c-5.656 5.767-9.147 13.676-9.147 22.4s3.491 16.633 9.152 22.405l-0.005-0.005 74.88 75.52h305.28v64h-288c-70.692 0-128 57.308-128 128s57.308 128 128 128v0h210.56l-136.96-138.88 45.44-45.44 168.96 168.96 338.56-338.56-380.16-380.16z" />
<glyph unicode="&#xe977;" glyph-name="fill-24" data-tags="fill-24" d="M896 469.334c-19.275 22.97-47.412 37.96-79.080 39.668l-0.28 0.012-282.027 281.6c-5.727 5.797-13.676 9.387-22.464 9.387-0.052 0-0.105 0-0.157 0h-255.992c-88.077-0.381-159.33-71.869-159.33-159.999 0-64.958 38.71-120.875 94.32-145.941l1.009-0.407-69.12-69.547c-21.118-21.214-34.173-50.469-34.173-82.773s13.055-61.56 34.177-82.778l221.009-221.009c21.214-21.118 50.469-34.173 82.773-34.173s61.56 13.055 82.778 34.177l343.889 343.889v-40.107c0-23.564 19.103-42.667 42.667-42.667s42.667 19.103 42.667 42.667v0c0.761 5.799 1.196 12.506 1.196 19.314 0 42.236-16.722 80.567-43.907 108.732l0.044-0.046zM464.213 82.774c-9.68-9.453-22.932-15.284-37.547-15.284s-27.867 5.831-37.557 15.295l0.011-0.010-221.013 221.013c-9.453 9.68-15.284 22.932-15.284 37.547s5.831 27.867 15.295 37.557l-0.010-0.011 101.12 101.12h285.44v64h-298.667c-53.019 0-96 42.981-96 96s42.981 96 96 96v0h178.773l-116.053-116.053 45.227-45.227 148.053 148.053 296.107-296.107-343.893-343.893z" />
<glyph unicode="&#xe978;" glyph-name="filter-12" data-tags="filter-12" d="M128 384h170.667v85.333h-170.667v-85.333zM384 512c0 23.564-19.103 42.667-42.667 42.667v0h-256c-23.564 0-42.667-19.103-42.667-42.667v0-42.667h-42.667v-85.333h42.667v-42.667c0-23.564 19.103-42.667 42.667-42.667v0h256c23.564 0 42.667 19.103 42.667 42.667v0 42.667h640v85.333h-640v42.667zM725.333 42.667h170.667v85.333h-170.667v-85.333zM981.333 170.667c0 23.564-19.103 42.667-42.667 42.667v0h-256c-23.564 0-42.667-19.103-42.667-42.667v0-42.667h-640v-85.333h640v-42.667c0-23.564 19.103-42.667 42.667-42.667v0h256c23.564 0 42.667 19.103 42.667 42.667v0 42.667h42.667v85.333h-42.667v42.667zM725.333 725.334h170.667v85.333h-170.667v-85.333zM981.333 810.667v42.667c0 23.564-19.103 42.667-42.667 42.667v0h-256c-23.564 0-42.667-19.103-42.667-42.667v0-42.667h-640v-85.333h640v-42.667c0-23.564 19.103-42.667 42.667-42.667v0h256c23.564 0 42.667 19.103 42.667 42.667v0 42.667h42.667v85.333h-42.667z" />
<glyph unicode="&#xe979;" glyph-name="filter-16" data-tags="filter-16" d="M224 394.667h128v64h-128v-64zM416 490.667c0 17.673-14.327 32-32 32v0h-192c-17.673 0-32-14.327-32-32v0-32h-96v-64h96v-32c0-17.673 14.327-32 32-32v0h192c17.673 0 32 14.327 32 32v0 32h544v64h-544v32zM672 138.667h128v64h-128v-64zM864 234.667c0 17.673-14.327 32-32 32v0h-192c-17.673 0-32-14.327-32-32v0-32h-544v-64h544v-32c0-17.673 14.327-32 32-32v0h192c17.673 0 32 14.327 32 32v0 32h96v64h-96v32zM672 650.667h128v64h-128v-64zM864 714.667v32c0 17.673-14.327 32-32 32v0h-192c-17.673 0-32-14.327-32-32v0-32h-544v-64h544v-32c0-17.673 14.327-32 32-32v0h192c17.673 0 32 14.327 32 32v0 32h96v64h-96z" />
<glyph unicode="&#xe97a;" glyph-name="filter-24" data-tags="filter-24" d="M885.333 757.334h96v-64h-96v-10.667c-0.241-41.14-33.526-74.426-74.644-74.667h-128.023c-41.14 0.241-74.426 33.526-74.667 74.644v10.69h-565.333v64h565.333v10.667c0.241 41.14 33.526 74.426 74.644 74.667h128.023c41.14-0.241 74.426-33.526 74.667-74.644v-10.69zM821.333 682.667v85.333c0 5.891-4.776 10.667-10.667 10.667v0h-128c-5.891 0-10.667-4.776-10.667-10.667v0-85.333c0-5.888 4.779-10.667 10.667-10.667h128c5.891 0 10.667 4.776 10.667 10.667v0zM885.333 170.667v-10.667h96v-64h-96v-10.667c-0.241-41.14-33.526-74.426-74.644-74.667h-128.023c-41.14 0.241-74.426 33.526-74.667 74.644v10.69h-565.333v64h565.333v10.667c0.241 41.14 33.526 74.426 74.644 74.667h128.023c41.14-0.241 74.426-33.526 74.667-74.644v-0.023zM821.333 85.334v85.333c0 5.891-4.776 10.667-10.667 10.667v0h-128c-5.891 0-10.667-4.776-10.667-10.667v0-85.333c0-5.888 4.779-10.667 10.667-10.667h128c5.891 0 10.667 4.776 10.667 10.667v0zM416 469.334v-10.667h565.333v-64h-565.333v-10.667c-0.241-41.14-33.526-74.426-74.644-74.667h-128.023c-41.14 0.241-74.426 33.526-74.667 74.644v10.69h-96v64h96v10.667c0.241 41.14 33.526 74.426 74.644 74.667h128.023c41.14-0.241 74.426-33.526 74.667-74.644v-0.023zM352 384v85.333c0 5.891-4.776 10.667-10.667 10.667v0h-128c-5.891 0-10.667-4.776-10.667-10.667v0-85.333c0-5.888 4.779-10.667 10.667-10.667h128c5.891 0 10.667 4.776 10.667 10.667v0z" />
<glyph unicode="&#xe97b;" glyph-name="floorplan-12" data-tags="floorplan-12" d="M981.333 512v341.333c0 23.564-19.103 42.667-42.667 42.667v0h-853.333c-23.564 0-42.667-19.103-42.667-42.667v0-853.333c0-23.564 19.103-42.667 42.667-42.667v0h853.333c23.564 0 42.667 19.103 42.667 42.667v0 341.333h-85.333v-298.667h-341.333v128h-85.333v-128h-341.333v341.333h341.333v-42.667h85.333v85.333c0 23.564-19.103 42.667-42.667 42.667v0h-384v341.333h768v-170.667h-213.333v-85.333h213.333v-42.667h85.333z" />
<glyph unicode="&#xe97c;" glyph-name="floorplan-16" data-tags="floorplan-16" d="M704 586.667v-64h173.888l86.656-144.448 54.912 32.896-91.456 152.448v247.104c0 17.673-14.327 32-32 32v0h-768c-17.673 0-32-14.327-32-32v0-768c0-17.673 14.327-32 32-32v0h768c17.673 0 32 14.327 32 32v0 224h-64v-192h-320v96h-64v-96h-320v320h320v-96h64v128c0 17.673-14.327 32-32 32v0h-352v320h704v-192h-160z" />
<glyph unicode="&#xe97d;" glyph-name="floorplan-24" data-tags="floorplan-24" d="M682.667 586.667v-64h193.536l76.501-152.96 57.259 28.587-81.963 163.925v248.448c0 17.673-14.327 32-32 32v0h-768c-17.673 0-32-14.327-32-32v0-768c0-17.664 14.336-32 32-32h768c17.673 0 32 14.327 32 32v0 256h-64v-224h-320v96h-64v-96h-320v319.317h320v-95.317h64v127.317c0 17.673-14.327 32-32 32v0h-352v320.683h704v-192h-181.333z" />
<glyph unicode="&#xe97e;" glyph-name="help-filled-12" data-tags="help-filled-12" d="M512 896c258.731 0 469.333-210.517 469.333-469.333 0-258.731-210.603-469.333-469.333-469.333-259.069 0.34-468.994 210.264-469.333 469.301v0.033c0 258.816 210.603 469.333 469.333 469.333zM492.032 289.622c-0.708 0.033-1.537 0.052-2.371 0.052-13.676 0-26.162-5.099-35.659-13.499l0.057 0.050c-8.932-8.599-14.479-20.658-14.479-34.013 0-0.823 0.021-1.64 0.063-2.453l-0.005 0.114c0-15.36 4.779-27.477 14.421-36.693 9.33-8.554 21.818-13.795 35.53-13.795 0.859 0 1.714 0.021 2.563 0.061l-0.12-0.005c0.858-0.048 1.862-0.075 2.873-0.075 14.029 0 26.826 5.273 36.518 13.946l-0.052-0.046c8.884 8.764 14.387 20.935 14.387 34.391 0 0.78-0.018 1.555-0.055 2.326l0.004-0.109c0.036 0.691 0.056 1.5 0.056 2.314 0 13.347-5.511 25.406-14.381 34.027l-0.011 0.011c-9.738 8.373-22.502 13.471-36.456 13.471-1.014 0-2.022-0.027-3.022-0.080l0.14 0.006zM514.219 663.894c-30.464 0-56.576-3.669-78.165-11.093-21.838-7.411-40.779-16.945-58.094-28.695l0.835 0.535 32.683-62.805c12.057 8.099 25.875 15.256 40.494 20.782l1.405 0.466c7.851 2.816 15.701 5.035 23.637 6.571 7.851 1.451 15.275 2.304 22.272 2.304 21.675 0 36.864-4.608 45.483-13.739 7.885-9.129 12.688-21.112 12.688-34.216 0-0.871-0.021-1.738-0.063-2.599l0.005 0.121c0.016-0.482 0.024-1.049 0.024-1.618 0-10.676-3.127-20.621-8.514-28.971l0.127 0.211c-5.803-8.533-12.885-16.725-21.333-24.576-8.533-7.851-17.664-16.043-27.563-24.576-9.914-8.728-18.51-18.599-25.687-29.489l-0.339-0.548c-7.68-11.605-13.824-25.344-18.005-41.301-2.91-11.388-4.58-24.461-4.58-37.925 0-7.026 0.455-13.946 1.337-20.732l-0.085 0.801h72.619c0 18.347 2.987 33.28 9.216 45.141 6.141 11.901 13.534 22.128 22.22 31.096l-0.033-0.034c8.789 8.96 18.347 17.323 28.843 25.259 10.775 8.098 20.206 17.015 28.548 26.882l0.209 0.254c8.704 10.24 16.043 22.699 21.931 37.291 5.888 14.507 8.875 33.024 8.875 55.211 0 33.707-11.605 60.331-34.731 80.213s-55.211 29.781-96.256 29.781z" />
<glyph unicode="&#xe97f;" glyph-name="help-filled-16" data-tags="help-filled-16" d="M512 906.667c-265.097 0-480-214.903-480-480s214.903-480 480-480v0c265.097 0 480 214.903 480 480s-214.903 480-480 480v0zM534.4 258.987c-6.936-6.417-16.248-10.352-26.479-10.352-1.042 0-2.075 0.041-3.096 0.121l0.135-0.009c-0.597-0.033-1.295-0.052-1.997-0.052-10.12 0-19.326 3.915-26.186 10.313l0.023-0.021c-6.723 7.185-10.852 16.87-10.852 27.52s4.129 20.335 10.873 27.543l-0.021-0.023c6.996 5.998 16.158 9.649 26.172 9.649 0.699 0 1.394-0.018 2.084-0.053l-0.097 0.004c0.822 0.058 1.782 0.091 2.75 0.091 10.188 0 19.521-3.663 26.754-9.743l-0.064 0.052c6.723-7.185 10.852-16.87 10.852-27.52s-4.129-20.335-10.873-27.543l0.021 0.023zM613.12 480.427c-3.886-10.588-9.309-19.718-16.1-27.64l0.1 0.12c-6.305-7.628-13.232-14.352-20.825-20.259l-0.295-0.221c-7.997-6.129-15.098-12.419-21.731-19.17l-0.029-0.030c-6.59-6.569-12.147-14.169-16.408-22.539l-0.232-0.501c-4.459-9.392-7.063-20.408-7.063-32.031 0-0.664 0.009-1.326 0.025-1.986l-0.002 0.098h-55.040c-1.145 6.542-1.799 14.074-1.799 21.76s0.654 15.218 1.911 22.546l-0.111-0.786c3.030 11.663 7.642 21.899 13.683 31.114l-0.243-0.394c6.443 8.748 14.064 16.166 22.726 22.193l0.314 0.207 20.48 18.56c5.706 5.663 10.775 11.953 15.1 18.762l0.26 0.438c4.031 6.045 6.432 13.475 6.432 21.467 0 0.553-0.012 1.104-0.034 1.652l0.003-0.078c0.015 0.411 0.024 0.893 0.024 1.378 0 10.001-3.641 19.151-9.67 26.198l0.046-0.055c-7.887 6.087-17.911 9.757-28.792 9.757-1.355 0-2.696-0.057-4.022-0.168l0.173 0.012h-16.64c-6.809-1.25-12.82-3.024-18.551-5.346l0.631 0.226-16.64-7.040-12.8-10.88-24.32 47.36c13.312 8.96 27.712 16 42.88 21.12 15.975 5.317 34.368 8.385 53.476 8.385 1.675 0 3.345-0.024 5.008-0.070l-0.245 0.005c1.787 0.105 3.877 0.165 5.981 0.165 25.084 0 48.185-8.489 66.588-22.75l-0.249 0.185c17.536-14.976 27.2-37.12 26.24-60.16-0.731-15.233-4.43-29.432-10.527-42.271l0.287 0.671z" />
<glyph unicode="&#xe980;" glyph-name="help-filled-24" data-tags="help-filled-24" d="M512 885.334c-253.312 0-458.667-205.355-458.667-458.667s205.355-458.667 458.667-458.667 458.667 205.355 458.667 458.667c-0.256 253.227-205.44 458.411-458.667 458.667zM545.28 238.934c-8.213-7.44-19.161-11.994-31.173-11.994-0.741 0-1.478 0.017-2.21 0.052l0.104-0.004c-0.451-0.016-0.982-0.026-1.514-0.026-11.789 0-22.514 4.553-30.513 11.997l0.027-0.025c-7.41 7.282-12.002 17.411-12.002 28.613 0 0.741 0.020 1.478 0.060 2.209l-0.004-0.102c-0.040 0.662-0.063 1.436-0.063 2.215 0 11.035 4.604 20.995 11.995 28.064l0.015 0.014c7.619 7.189 17.921 11.608 29.255 11.608 0.966 0 1.924-0.032 2.874-0.095l-0.129 0.007c0.765 0.045 1.659 0.071 2.56 0.071 11.799 0 22.571-4.394 30.77-11.634l-0.050 0.043c7.398-7.28 11.983-17.402 11.983-28.593 0-0.598-0.013-1.193-0.039-1.784l0.003 0.084c0.009-0.326 0.014-0.711 0.014-1.096 0-11.513-4.56-21.961-11.973-29.637l0.012 0.012zM633.6 487.254c-4.844-12.106-11.17-22.544-18.916-31.748l0.143 0.174c-7.138-8.401-14.97-15.827-23.529-22.347l-0.364-0.266c-8.985-6.702-16.928-13.698-24.269-21.28l-0.051-0.053c-7.332-7.477-13.588-16.048-18.492-25.436l-0.281-0.591c-4.885-10.213-7.739-22.2-7.739-34.852 0-1.098 0.021-2.19 0.064-3.277l-0.005 0.156h-61.013c-0.709 5.204-1.115 11.218-1.115 17.327 0 11.11 1.34 21.908 3.866 32.239l-0.192-0.927c3.604 13.131 8.86 24.628 15.649 35.032l-0.289-0.472c6.327 9.723 13.513 18.13 21.652 25.503l0.108 0.097c8.533 6.827 16.213 14.080 23.040 20.48 6.784 6.059 12.8 12.971 17.92 20.48 4.565 6.69 7.289 14.952 7.289 23.851 0 0.615-0.013 1.227-0.039 1.836l0.003-0.087c0.017 0.447 0.026 0.973 0.026 1.501 0 11.734-4.737 22.361-12.402 30.075l0.002-0.002c-8.856 7.354-20.342 11.817-32.871 11.817-1.948 0-3.87-0.108-5.762-0.318l0.233 0.021c-2.75 0.277-5.943 0.435-9.173 0.435s-6.423-0.158-9.572-0.467l0.399 0.032c-7.674-1.423-14.403-3.343-20.857-5.817l0.804 0.271c-7.424-2.622-13.62-5.357-19.574-8.491l0.801 0.384c-6.194-2.985-11.511-6.253-16.455-9.989l0.242 0.175-26.027 50.347c13.874 9.58 29.827 17.673 46.838 23.485l1.375 0.408c18.59 5.973 39.977 9.417 62.167 9.417 1.245 0 2.486-0.011 3.726-0.032l-0.186 0.003c2.054 0.124 4.456 0.195 6.875 0.195 28.073 0 53.917-9.547 74.461-25.571l-0.27 0.203c17.378-15.684 28.253-38.288 28.253-63.432 0-1.4-0.034-2.793-0.1-4.177l0.007 0.195c0.077-1.679 0.12-3.647 0.12-5.626 0-14.616-2.386-28.675-6.79-41.808l0.27 0.927z" />
<glyph unicode="&#xe981;" glyph-name="help-outline-12" data-tags="help-outline-12" d="M512 810.667c-211.98-0.243-383.758-172.021-384-383.977v-0.023c0-211.712 172.288-384 384-384s384 172.288 384 384-172.288 384-384 384zM512-42.666c-259.088 0.291-469.042 210.245-469.333 469.305v0.028c0 258.816 210.603 469.333 469.333 469.333s469.333-210.517 469.333-469.333-210.603-469.333-469.333-469.333zM439.637 239.787c0 15.36 4.779 27.392 14.507 36.352 9.43 8.397 21.928 13.527 35.625 13.527 0.766 0 1.528-0.016 2.286-0.048l-0.108 0.004c16.64 0 29.696-4.608 39.339-13.397 8.886-8.579 14.404-20.597 14.404-33.904 0-0.891-0.025-1.776-0.074-2.655l0.005 0.122c0.034-0.678 0.054-1.473 0.054-2.272 0-13.413-5.506-25.54-14.382-34.243l-0.008-0.008c-9.643-9.216-22.699-13.824-39.253-13.824-0.731-0.037-1.588-0.057-2.45-0.057-13.725 0-26.217 5.277-35.559 13.913l0.035-0.032c-8.932 8.731-14.47 20.902-14.47 34.365 0 0.759 0.018 1.514 0.052 2.264l-0.004-0.106zM452.693 332.8c-0.736 5.833-1.156 12.583-1.156 19.431 0 13.637 1.666 26.885 4.806 39.551l-0.236-1.126c7.431 28.676 22.91 53.041 43.863 71.28l0.169 0.144c9.813 8.363 19.029 16.555 27.477 24.491 8.533 7.765 15.616 16.043 21.333 24.491 5.364 8.147 8.557 18.138 8.557 28.874 0 0.559-0.009 1.116-0.026 1.671l0.002-0.081c0.036 0.729 0.057 1.582 0.057 2.441 0 13.144-4.872 25.15-12.908 34.311l0.051-0.059c-8.533 9.131-23.723 13.653-45.483 13.653-6.997 0-14.421-0.683-22.187-2.219-24.843-5.348-46.782-15.001-66.080-28.226l0.63 0.408-32.768 62.805c16.555 11.349 35.669 20.736 57.259 28.16s47.787 11.093 78.165 11.093c40.96 0 73.045-9.899 96.256-29.696 23.040-19.883 34.645-46.592 34.645-80.213 0-22.272-2.901-40.619-8.789-55.381-5.973-14.507-13.312-26.965-21.931-37.205-8.789-10.24-18.347-19.285-28.757-27.221-10.638-7.983-20.054-16.235-28.809-25.139l-0.034-0.035c-8.623-8.974-16.014-19.224-21.842-30.418l-0.345-0.729c-5.86-12.146-9.285-26.411-9.285-41.476 0-1.289 0.025-2.572 0.075-3.849l-0.006 0.184h-72.704z" />
<glyph unicode="&#xe982;" glyph-name="help-outline-16" data-tags="help-outline-16" d="M512-53.333c-265.097 0-480 214.903-480 480s214.903 480 480 480v0c265.097 0 480-214.903 480-480s-214.903-480-480-480v0zM512 842.667c-229.75 0-416-186.25-416-416s186.25-416 416-416c229.75 0 416 186.25 416 416v0c-0.364 229.604-186.396 415.636-415.965 416h-0.035zM475.52 356.267c-1.145 6.542-1.799 14.074-1.799 21.76s0.654 15.218 1.911 22.546l-0.111-0.786c3.030 11.663 7.642 21.899 13.683 31.114l-0.243-0.394c6.443 8.748 14.064 16.166 22.726 22.193l0.314 0.207 20.48 18.56c5.706 5.663 10.775 11.953 15.1 18.762l0.26 0.438c4.031 6.045 6.432 13.475 6.432 21.467 0 0.553-0.012 1.104-0.034 1.652l0.003-0.078c0.015 0.411 0.024 0.893 0.024 1.378 0 10.001-3.641 19.151-9.67 26.198l0.046-0.055c-7.887 6.087-17.911 9.757-28.792 9.757-1.355 0-2.696-0.057-4.022-0.168l0.173 0.012h-16.64c-6.809-1.25-12.82-3.024-18.551-5.346l0.631 0.226-16.64-7.040-12.8-10.88-24.32 47.36c13.312 8.96 27.712 16 42.88 21.12 15.975 5.317 34.368 8.385 53.476 8.385 1.675 0 3.345-0.024 5.008-0.070l-0.245 0.005c1.787 0.105 3.877 0.165 5.981 0.165 25.084 0 48.185-8.489 66.588-22.75l-0.249 0.185c17.536-14.976 27.2-37.12 26.24-60.16 0.020-0.793 0.032-1.727 0.032-2.664 0-13.989-2.594-27.372-7.328-39.694l0.256 0.758c-3.886-10.588-9.309-19.718-16.1-27.64l0.1 0.12c-7.155-7.675-15.13-14.429-23.83-20.176l-0.49-0.304c-7.997-6.129-15.098-12.419-21.731-19.17l-0.029-0.030c-6.59-6.569-12.147-14.169-16.408-22.539l-0.232-0.501c-4.459-9.392-7.063-20.408-7.063-32.031 0-0.664 0.009-1.326 0.025-1.986l-0.002 0.098h-55.040zM465.92 286.507c-0.013 0.371-0.021 0.806-0.021 1.244 0 10.265 4.166 19.556 10.9 26.276l0.001 0.001c6.996 5.998 16.158 9.649 26.172 9.649 0.699 0 1.394-0.018 2.084-0.053l-0.097 0.004c0.822 0.058 1.782 0.091 2.75 0.091 10.188 0 19.521-3.663 26.754-9.743l-0.064 0.052c6.723-7.185 10.852-16.87 10.852-27.52s-4.129-20.335-10.873-27.543l0.021 0.023c-6.936-6.417-16.248-10.352-26.479-10.352-1.042 0-2.075 0.041-3.096 0.121l0.135-0.009c-0.597-0.033-1.295-0.052-1.997-0.052-10.12 0-19.326 3.915-26.186 10.313l0.023-0.021c-6.734 6.72-10.901 16.012-10.901 26.276 0 0.437 0.008 0.873 0.023 1.307l-0.002-0.063z" />
<glyph unicode="&#xe983;" glyph-name="help-outline-24" data-tags="help-outline-24" d="M512-32c-253.312 0-458.667 205.355-458.667 458.667s205.355 458.667 458.667 458.667 458.667-205.355 458.667-458.667c-0.256-253.227-205.44-458.411-458.667-458.667zM512 821.334c-217.968 0-394.667-176.698-394.667-394.667s176.698-394.667 394.667-394.667c217.968 0 394.667 176.698 394.667 394.667v0c-0.243 217.87-176.796 394.424-394.643 394.667h-0.024zM479.147 347.734c-0.709 5.204-1.115 11.218-1.115 17.327 0 11.11 1.34 21.908 3.866 32.239l-0.192-0.927c3.604 13.131 8.86 24.628 15.649 35.032l-0.289-0.472c6.327 9.723 13.513 18.13 21.652 25.503l0.108 0.097c8.533 6.827 16.213 14.080 23.040 20.48 6.784 6.059 12.8 12.971 17.92 20.48 4.565 6.69 7.289 14.952 7.289 23.851 0 0.615-0.013 1.227-0.039 1.836l0.003-0.087c0.017 0.447 0.026 0.973 0.026 1.501 0 11.734-4.737 22.361-12.402 30.075l0.002-0.002c-8.856 7.354-20.342 11.817-32.871 11.817-1.948 0-3.87-0.108-5.762-0.318l0.233 0.021c-2.75 0.277-5.943 0.435-9.173 0.435s-6.423-0.158-9.572-0.467l0.399 0.032c-7.674-1.423-14.403-3.343-20.857-5.817l0.804 0.271c-7.424-2.622-13.62-5.357-19.574-8.491l0.801 0.384c-6.194-2.985-11.511-6.253-16.455-9.989l0.242 0.175-26.027 50.347c13.874 9.58 29.827 17.673 46.838 23.485l1.375 0.408c18.59 5.973 39.977 9.417 62.167 9.417 1.245 0 2.486-0.011 3.726-0.032l-0.186 0.003c2.054 0.124 4.456 0.195 6.875 0.195 28.073 0 53.917-9.547 74.461-25.571l-0.27 0.203c17.378-15.684 28.253-38.288 28.253-63.432 0-1.4-0.034-2.793-0.1-4.177l0.007 0.195c0.427-15.787-2.048-31.573-7.253-46.507-4.844-12.106-11.17-22.544-18.916-31.748l0.143 0.174c-7.138-8.401-14.97-15.827-23.529-22.347l-0.364-0.266c-8.985-6.702-16.928-13.698-24.269-21.28l-0.051-0.053c-7.332-7.477-13.588-16.048-18.492-25.436l-0.281-0.591c-4.885-10.213-7.739-22.2-7.739-34.852 0-1.098 0.021-2.19 0.064-3.277l-0.005 0.156h-60.16zM469.333 269.654c-0.040 0.662-0.063 1.436-0.063 2.215 0 11.035 4.604 20.995 11.995 28.064l0.015 0.014c7.612 7.153 17.887 11.547 29.19 11.547 0.538 0 1.074-0.010 1.607-0.030l-0.077 0.002c0.765 0.045 1.659 0.071 2.56 0.071 11.799 0 22.571-4.394 30.77-11.634l-0.050 0.043c7.398-7.28 11.983-17.402 11.983-28.593 0-0.598-0.013-1.193-0.039-1.784l0.003 0.084c0.009-0.326 0.014-0.711 0.014-1.096 0-11.513-4.56-21.961-11.973-29.637l0.012 0.012c-8.213-7.44-19.161-11.994-31.173-11.994-0.741 0-1.478 0.017-2.21 0.052l0.104-0.004c-0.451-0.016-0.982-0.026-1.514-0.026-11.789 0-22.514 4.553-30.513 11.997l0.027-0.025c-6.694 7.148-10.805 16.787-10.805 27.386 0 1.174 0.050 2.335 0.149 3.483l-0.010-0.149z" />
<glyph unicode="&#xe984;" glyph-name="home-12" data-tags="home-12" d="M896 42.667h-213.333v298.667c0 23.564-19.103 42.667-42.667 42.667v0h-256c-23.564 0-42.667-19.103-42.667-42.667v0-298.667h-213.333v448.853l384 307.2 384-307.2v-448.853zM426.667 42.667h170.667v256h-170.667v-256zM965.291 545.366l-426.581 341.333c-7.251 5.789-16.55 9.289-26.667 9.289s-19.416-3.5-26.753-9.355l0.086 0.067-426.752-341.333c-9.75-7.933-15.935-19.925-15.957-33.361v-512.004c0-23.564 19.103-42.667 42.667-42.667v0h853.333c23.564 0 42.667 19.103 42.667 42.667v0 512c-0.019 13.459-6.241 25.461-15.961 33.301l-0.082 0.064z" />
<glyph unicode="&#xe985;" glyph-name="home-16" data-tags="home-16" d="M928 10.667h-256v288c0 17.673-14.327 32-32 32v0h-256c-17.673 0-32-14.327-32-32v0-288h-256v464.448l416 326.848 416-326.848v-464.448zM416 10.667h192v256h-192v-256zM979.776 515.819l-448 352c-5.383 4.276-12.278 6.86-19.776 6.86s-14.393-2.584-19.842-6.91l0.066 0.050-448-352c-7.471-5.911-12.222-14.976-12.224-25.152v0-512c0-17.673 14.327-32 32-32v0h896c17.673 0 32 14.327 32 32v0 512c-0.002 10.176-4.753 19.241-12.157 25.101l-0.067 0.051z" />
<glyph unicode="&#xe986;" glyph-name="home-24" data-tags="home-24" d="M906.667 32h-256v309.333c0 17.673-14.327 32-32 32v0h-213.333c-17.673 0-32-14.327-32-32v0-309.333h-256v505.984l394.667 276.267 394.667-276.267v-505.984zM437.333 32h149.333v277.333h-149.333v-277.333zM957.013 580.864l-426.667 298.667c-5.111 3.623-11.476 5.791-18.347 5.791s-13.235-2.168-18.446-5.858l0.1 0.067-426.667-298.667c-8.298-5.835-13.653-15.368-13.653-26.152 0-0.016 0-0.032 0-0.048v0.002-554.667c0-17.664 14.336-32 32-32h853.333c17.673 0 32 14.327 32 32v0 554.667c0 0.014 0 0.030 0 0.046 0 10.784-5.356 20.317-13.552 26.084l-0.101 0.068z" />
<glyph unicode="&#xe987;" glyph-name="hourglass-12" data-tags="hourglass-12" d="M853.333 696.32v114.347h85.333v85.333h-853.333v-85.333h85.333v-114.347c0.351-78.537 43.086-147.014 106.496-183.772l1.024-0.548 148.48-85.333-148.48-85.333c-64.434-37.306-107.169-105.783-107.52-184.27v-114.397h-85.333v-85.333h853.333v85.333h-85.333v114.347c-0.351 78.537-43.086 147.014-106.496 183.772l-1.024 0.548-148.48 85.333 148.48 85.333c64.434 37.306 107.169 105.783 107.52 184.27v0.050zM768 157.014v-114.347h-512v114.347c-0.001 0.176-0.001 0.384-0.001 0.592 0 47.19 25.882 88.335 64.225 110.015l0.629 0.327 191.147 109.227 191.147-109.227c40.192-22.357 65.109-64.853 64.853-110.933zM703.147 583.68l-191.147-107.52-191.147 109.227c-38.973 22.006-64.855 63.151-64.855 110.342 0 0.208 0.001 0.416 0.002 0.624v-0.032 114.347h512v-114.347c0.001-0.176 0.001-0.384 0.001-0.592 0-47.19-25.882-88.335-64.225-110.015l-0.629-0.327v-1.707z" />
<glyph unicode="&#xe988;" glyph-name="hourglass-16" data-tags="hourglass-16" d="M800 712.747v128h64v65.92h-704v-64h64v-128c-0.009-0.83-0.014-1.811-0.014-2.794 0-111.986 64.489-208.91 158.357-255.659l1.657-0.747 56.32-28.8-56.32-28.8c-95.14-47.607-159.326-144.304-159.36-255.996v-128.004h-64v-64h704v64h-64v128c-0.035 111.697-64.22 208.394-157.714 255.253l-1.646 0.747-57.6 28.8 56.32 28.8c95.517 47.499 160.001 144.419 160.001 256.4 0 0.309 0 0.618-0.001 0.927v-0.047zM736 140.587v-128h-448v128c0 0.153-0.001 0.334-0.001 0.516 0 86.967 49.702 162.325 122.251 199.219l1.27 0.586 100.48 49.92 100.48-49.92c73.818-37.479 123.521-112.838 123.521-199.804 0-0.181 0-0.362-0.001-0.543v0.028zM512 462.507l-100.48 49.92c-73.818 37.479-123.521 112.838-123.521 199.804 0 0.181 0 0.362 0.001 0.543v-0.028 128h448v-128c0-0.153 0.001-0.334 0.001-0.516 0-86.967-49.702-162.325-122.251-199.219l-1.27-0.586-100.48-49.92z" />
<glyph unicode="&#xe989;" glyph-name="hourglass-24" data-tags="hourglass-24" d="M800 712.96v108.373h53.333v64h-682.667v-64h53.333v-108.373c0.205-111.594 64.226-208.187 157.506-255.25l1.64-0.75 57.173-28.587-56.32-30.293c-94.92-47.813-158.941-144.406-159.147-255.972v-108.401h-54.187v-64h682.667v64h-53.333v106.667c-0.205 111.594-64.226 208.187-157.506 255.25l-1.64 0.75-57.173 30.293 56.32 28.587c95.54 47.731 160.001 144.804 160.001 256.932 0 0.272 0 0.545-0.001 0.817v-0.042zM736 140.374v-108.373h-448v108.373c-0.002 0.35-0.003 0.765-0.003 1.18 0 87.015 49.805 162.397 122.463 199.195l1.274 0.585 100.267 49.493 100.267-49.493c73.932-37.383 123.736-112.765 123.736-199.78 0-0.415-0.001-0.83-0.003-1.244v0.064zM512 462.507l-100.267 49.493c-73.931 37.383-123.735 112.765-123.735 199.779 0 0.265 0 0.53 0.001 0.795v-0.041 108.8h448v-108.373c0.001-0.224 0.001-0.489 0.001-0.754 0-87.014-49.804-162.396-122.461-199.194l-1.274-0.585-100.267-49.92z" />
<glyph unicode="&#xe98a;" glyph-name="humidity-12" data-tags="humidity-12" d="M512 790.87c-73.557-81.749-256-303.531-256-492.203 0-141.141 114.859-256 256-256s256 114.859 256 256c0 188.672-182.443 410.453-256 492.203zM512-42.666c-188.245 0-341.333 153.088-341.333 341.333 0 270.507 298.496 572.16 311.125 584.789 7.725 7.744 18.407 12.535 30.208 12.535s22.483-4.791 30.207-12.534l0.001-0.001c12.629-12.629 311.125-314.283 311.125-584.789 0-188.245-153.088-341.333-341.333-341.333zM512 128v85.333c47.104 0 85.333 38.315 85.333 85.333h85.333c0-94.123-76.544-170.667-170.667-170.667z" />
<glyph unicode="&#xe98b;" glyph-name="humidity-16" data-tags="humidity-16" d="M512-53.333c-194.258 0.364-351.636 157.742-352 351.965v0.035c0 298.88 320 587.52 330.88 599.68 5.552 5.072 12.973 8.178 21.12 8.178s15.568-3.107 21.144-8.2l-0.024 0.022c13.44-12.16 330.88-300.8 330.88-599.68-0.364-194.258-157.742-351.636-351.965-352h-0.035zM512 830.507c-69.76-69.76-288-304-288-531.84 0-159.058 128.942-288 288-288s288 128.942 288 288v0c0 228.48-217.6 462.080-288 531.84zM512 74.667v64c88.366 0 160 71.634 160 160v0h64c0-123.712-100.288-224-224-224v0z" />
<glyph unicode="&#xe98c;" glyph-name="humidity-24" data-tags="humidity-24" d="M512-32c-182.525 0.243-330.424 148.142-330.667 330.643v0.023c0 266.24 295.253 564.907 308.053 577.28 5.789 5.782 13.784 9.359 22.613 9.359s16.824-3.576 22.614-9.359v0c12.8-12.373 308.053-311.040 308.053-577.28-0.243-182.525-148.142-330.424-330.643-330.667h-0.023zM512 806.827c-68.267-74.667-266.667-308.48-266.667-508.16 0-147.276 119.391-266.667 266.667-266.667s266.667 119.391 266.667 266.667v0c0 199.68-198.4 433.493-266.667 508.16zM512 96v64c76.486 0.242 138.425 62.181 138.667 138.643v0.023h64c0-111.93-90.737-202.667-202.667-202.667v0z" />
<glyph unicode="&#xe98d;" glyph-name="Info-filled-12x12" data-tags="Info-Filled-12x12" d="M512 896c258.731 0 469.333-210.517 469.333-469.333s-210.603-469.333-469.333-469.333c-259.088 0.291-469.042 210.245-469.333 469.305v0.028c0 258.816 210.603 469.333 469.333 469.333zM554.667 469.334h-85.333v-213.333h85.333v213.333zM554.667 597.334h-85.333v-85.333h85.333v85.333z" />
<glyph unicode="&#xe98e;" glyph-name="info-filled-16" data-tags="info-filled-16" d="M512 906.667c-265.097 0-480-214.903-480-480s214.903-480 480-480v0c265.097 0 480 214.903 480 480s-214.903 480-480 480v0zM544 266.667h-64v192h64zM544 522.667h-64v64h64z" />
<glyph unicode="&#xe98f;" glyph-name="info-filled-24" data-tags="info-filled-24" d="M512 885.334c-253.312 0-458.667-205.355-458.667-458.667s205.355-458.667 458.667-458.667 458.667 205.355 458.667 458.667c-0.256 253.227-205.44 458.411-458.667 458.667zM544 256h-64v213.333h64v-213.333zM544 533.334h-64v64h64v-64z" />
<glyph unicode="&#xe990;" glyph-name="info-outline-12" data-tags="info-outline-12" d="M512 810.667c-211.98-0.243-383.758-172.021-384-383.977v-0.023c0-211.712 172.288-384 384-384s384 172.288 384 384-172.288 384-384 384zM512-42.666c-259.088 0.291-469.042 210.245-469.333 469.305v0.028c0 258.816 210.603 469.333 469.333 469.333s469.333-210.517 469.333-469.333-210.603-469.333-469.333-469.333zM469.333 256v213.333h85.333v-213.333h-85.333zM469.333 512v85.333h85.333v-85.333h-85.333z" />
<glyph unicode="&#xe991;" glyph-name="info-outline-16" data-tags="info-outline-16" d="M480 458.667h64v-192h-64zM480 586.667h64v-64h-64zM512-53.333c-265.097 0-480 214.903-480 480s214.903 480 480 480v0c265.097 0 480-214.903 480-480s-214.903-480-480-480v0zM512 842.667c-229.75 0-416-186.25-416-416s186.25-416 416-416c229.75 0 416 186.25 416 416v0c-0.364 229.604-186.396 415.636-415.965 416h-0.035z" />
<glyph unicode="&#xe992;" glyph-name="info-outline-24" data-tags="info-outline-24" d="M512-32c-253.312 0-458.667 205.355-458.667 458.667s205.355 458.667 458.667 458.667 458.667-205.355 458.667-458.667c-0.256-253.227-205.44-458.411-458.667-458.667zM512 821.334c-217.968 0-394.667-176.698-394.667-394.667s176.698-394.667 394.667-394.667c217.968 0 394.667 176.698 394.667 394.667v0c-0.243 217.87-176.796 394.424-394.643 394.667h-0.024zM480 469.334h64v-213.333h-64v213.333zM480 597.334h64v-64h-64v64z" />
<glyph unicode="&#xe993;" glyph-name="key-12" data-tags="key-12" d="M128 42.667h85.333v42.667c0 23.564 19.103 42.667 42.667 42.667v0h42.667v42.667c0 23.564 19.103 42.667 42.667 42.667v0h67.669l136.192 136.192c7.688 7.755 18.344 12.555 30.122 12.555 5.559 0 10.867-1.069 15.732-3.014l-0.286 0.101c172.544-66.731 347.904 66.56 347.904 238.165 0 141.141-114.859 256-256 256s-256-114.859-256-256c0-30.293 5.973-61.184 17.835-91.989 1.775-4.529 2.803-9.773 2.803-15.258 0-11.79-4.754-22.47-12.449-30.228l-306.856-306.856v-110.336zM256-42.666h-170.667c-23.564 0-42.667 19.103-42.667 42.667v0 170.667c0 11.349 4.523 22.187 12.459 30.208l300.629 300.544c-9.040 28.675-14.304 61.658-14.421 95.854v0.060c0 188.245 153.088 341.333 341.333 341.333s341.333-153.088 341.333-341.333-153.088-341.333-341.333-341.333c-32 0-64.171 4.864-96 14.336l-129.792-129.877c-7.754-7.686-18.424-12.44-30.205-12.459h-42.67v-42.667c0-23.564-19.103-42.667-42.667-42.667v0h-42.667v-42.667c0-23.564-19.103-42.667-42.667-42.667v0zM810.667 661.334c0-35.346-28.654-64-64-64s-64 28.654-64 64v0c0 35.346 28.654 64 64 64s64-28.654 64-64v0z" />
<glyph unicode="&#xe994;" glyph-name="key-16" data-tags="key-16" d="M96 10.667h128v96c0 17.673 14.327 32 32 32v0h96v96c0.109 17.696 14.48 32 32.191 32 0.023 0 0.045 0 0.068 0h-0.004l113.6-0.832 68.928 68.928c5.79 5.787 13.788 9.366 22.621 9.366 3.3 0 6.483-0.499 9.478-1.427l-0.227 0.060c21.843-7.31 47.013-11.706 73.153-12.094l0.191-0.002c141.184 0 256 114.816 256 256s-114.816 256-256 256-256-114.816-256-256c0-22.656 3.84-45.952 12.032-73.28 0.872-2.773 1.375-5.962 1.375-9.269 0-8.829-3.583-16.822-9.374-22.603v0l-324.032-324.096v-146.752zM256-53.333h-192c-17.673 0-32 14.327-32 32v0 192c0 8.512 3.392 16.64 9.344 22.656l320.256 320.256c-5.889 21.872-9.377 47.023-9.599 72.954l-0.001 0.134c0 176.448 143.552 320 320 320s320-143.552 320-320-143.552-320-320-320c-23.168 0-47.232 3.136-73.152 9.664l-65.152-65.216c-5.793-5.81-13.804-9.406-22.656-9.408h-0.256l-94.784 0.704v-95.744c0-17.673-14.327-32-32-32v0h-96v-96c0-17.673-14.327-32-32-32v0zM704 682.667c-34.128-1.574-61.201-29.625-61.201-64s27.073-62.426 61.060-63.995l0.141-0.005c34.128 1.574 61.201 29.625 61.201 64s-27.073 62.426-61.060 63.995l-0.141 0.005zM704 490.667c-70.592 0-128 57.408-128 128s57.408 128 128 128 128-57.408 128-128-57.408-128-128-128z" />
<glyph unicode="&#xe995;" glyph-name="key-24" data-tags="key-24" d="M117.333 32h106.667v53.333c0 17.673 14.327 32 32 32v0h53.333v96c0 17.673 14.327 32 32 32v0h114.731l91.605 91.563c5.803 5.785 13.809 9.362 22.652 9.362 3.761 0 7.371-0.647 10.725-1.836l-0.224 0.069c23.972-8.703 51.642-13.763 80.485-13.824h0.027c135.296 0 245.333 110.080 245.333 245.333s-110.037 245.333-245.333 245.333c-135.425-0.17-245.164-109.908-245.333-245.317v-0.016c0-27.093 4.651-54.187 13.824-80.512 1.135-3.144 1.791-6.773 1.791-10.554 0-8.843-3.587-16.848-9.385-22.64v0l-304.896-304.896v-125.397zM256-32h-170.667c-17.673 0-32 14.327-32 32v0 170.667c0 8.491 3.371 16.64 9.387 22.613l300.587 300.587c-7.152 24.611-11.278 52.884-11.307 82.118v0.016c0 170.581 138.752 309.333 309.333 309.333s309.333-138.752 309.333-309.333-138.752-309.333-309.333-309.333c-29.234 0.028-57.493 4.155-84.249 11.837l2.158-0.53-87.296-87.253c-5.773-5.798-13.762-9.387-22.588-9.387-0.009 0-0.018 0-0.026 0h-95.999v-96c0-17.673-14.327-32-32-32v0h-53.333v-53.333c0-17.673-14.327-32-32-32v0zM725.333 693.334c-29.397 0-53.333-23.936-53.333-53.333s23.936-53.333 53.333-53.333 53.333 23.936 53.333 53.333-23.936 53.333-53.333 53.333zM725.333 522.667c-64.782 0.049-117.285 52.551-117.333 117.329v0.005c0.049 64.782 52.551 117.285 117.329 117.333h0.005c64.782-0.049 117.285-52.551 117.333-117.329v-0.005c-0.049-64.782-52.551-117.285-117.329-117.333h-0.005z" />
<glyph unicode="&#xe996;" glyph-name="led-12" data-tags="led-12" d="M298.667 298.667v298.667c0 117.589 95.659 213.333 213.333 213.333s213.333-95.744 213.333-213.333v-298.667h-426.667zM810.667 298.667v298.667c0 164.693-133.973 298.667-298.667 298.667s-298.667-133.973-298.667-298.667v-298.667h-85.333v-85.333h256v-170.667h85.333v170.667h85.333v-256h85.333v256h256v85.333h-85.333z" />
<glyph unicode="&#xe997;" glyph-name="led-16" data-tags="led-16" d="M800 330.667h64v-64h-224v-320h-64v320h-128v-256h-64v256h-224v64h64v288c0 159.058 128.942 288 288 288s288-128.942 288-288v0-288zM288 330.667h448v288c0 123.712-100.288 224-224 224s-224-100.288-224-224v0-288zM352 618.667c0 88.366 71.634 160 160 160v0-64c-53.019 0-96-42.981-96-96v0h-64z" />
<glyph unicode="&#xe998;" glyph-name="led-24" data-tags="led-24" d="M757.333 373.334h53.333v-64h-181.333v-352h-64v352h-106.667v-266.667h-64v266.667h-181.333v64h53.333v266.667c0 135.494 109.839 245.333 245.333 245.333s245.333-109.839 245.333-245.333v0-266.667zM330.667 373.334h362.667v266.667c0 100.148-81.186 181.333-181.333 181.333s-181.333-81.186-181.333-181.333v0-266.667zM394.667 640c0 64.801 52.532 117.333 117.333 117.333v0-64c-29.44 0-53.333-23.893-53.333-53.333h-64z" />
<glyph unicode="&#xe999;" glyph-name="lifetime-12" data-tags="lifetime-12" d="M938.667 640c23.564 0 42.667-19.103 42.667-42.667v0-341.333c0-23.564-19.103-42.667-42.667-42.667v0h-42.667v-42.667c0-23.564-19.103-42.667-42.667-42.667v0h-768c-23.564 0-42.667 19.103-42.667 42.667v0 512c0 23.564 19.103 42.667 42.667 42.667v0h768c23.564 0 42.667-19.103 42.667-42.667v0-42.667h42.667zM810.667 213.334v426.667h-682.667v-426.667h682.667zM486.4 597.334l-11.947-119.467h131.413l-153.6-221.867 11.947 119.467h-131.413l153.6 221.867z" />
<glyph unicode="&#xe99a;" glyph-name="lifetime-16" data-tags="lifetime-16" d="M960 586.667c17.673 0 32-14.327 32-32v0-256c0-17.673-14.327-32-32-32v0h-96v-64c0-17.673-14.327-32-32-32v0h-768c-17.673 0-32 14.327-32 32v0 448c0 17.673 14.327 32 32 32v0h768c17.673 0 32-14.327 32-32v0-64zM800 234.667v384h-704v-384zM928 330.667v192h-64v-192zM464 586.667l-10.88-112h122.88l-144-208 10.88 112h-122.88z" />
</font>
</defs>
</svg>
